M48
; DRILL file {KiCad 6.0.9} date Mo 31 Okt 2022 19:27:19 CET
; FORMAT={-:-/ absolute / inch / decimal}
; #@! TF.CreationDate,2022-10-31T19:27:19+01:00
; #@! TF.GenerationSoftware,Kicad,Pcbnew,6.0.9
; #@! TF.FileFunction,Plated,1,2,PTH
FMAT,2
INCH
; #@! TA.AperFunction,Plated,PTH,ViaDrill
T1C0.0157
; #@! TA.AperFunction,Plated,PTH,ComponentDrill
T2C0.0390
; #@! TA.AperFunction,Plated,PTH,ComponentDrill
T3C0.0394
; #@! TA.AperFunction,Plated,PTH,ComponentDrill
T4C0.0430
; #@! TA.AperFunction,Plated,PTH,ComponentDrill
T5C0.0500
; #@! TA.AperFunction,Plated,PTH,ComponentDrill
T6C0.0984
%
G90
G05
T1
X6.665Y-5.6549
X6.7422Y-5.6557
X7.0064Y-4.6592
X7.0064Y-4.7576
X7.2574Y-4.6228
X7.2576Y-4.8226
X7.2639Y-5.1686
X7.2942Y-4.723
X7.2942Y-4.8659
X7.3009Y-5.2009
X7.3402Y-5.245
X7.3666Y-5.8616
X7.3757Y-4.9123
X7.4083Y-4.8659
X7.5635Y-5.0218
X8.9918Y-4.6791
X9.1178Y-5.0413
X9.1363Y-4.4791
X9.1363Y-4.5811
X9.4882Y-5.0504
X9.5894Y-5.6126
X9.6665Y-5.6118
T2
X1.9858Y-5.1287
X1.9858Y-4.4594
X1.9858Y-5.798
X1.9858Y-6.4673
X2.2858Y-5.1287
X2.2858Y-4.4594
X2.2858Y-5.798
X2.2858Y-6.4673
X2.6945Y-5.1287
X2.6945Y-4.4594
X2.6945Y-5.798
X2.6945Y-6.4673
X2.9945Y-5.1287
X2.9945Y-4.4594
X2.9945Y-5.798
X2.9945Y-6.4673
X3.4031Y-5.1287
X3.4031Y-5.798
X3.4031Y-6.4673
X3.4031Y-4.4594
X3.7031Y-5.1287
X3.7031Y-5.798
X3.7031Y-6.4673
X3.7031Y-4.4594
X4.1118Y-4.0177
X4.1118Y-4.687
X4.1118Y-5.3563
X4.1118Y-6.0256
X4.4118Y-4.0177
X4.4118Y-4.687
X4.4118Y-5.3563
X4.4118Y-6.0256
X4.6362Y-6.8622
X4.8205Y-3.8504
X4.8205Y-4.5197
X4.8205Y-5.189
X4.8205Y-5.8583
X4.9362Y-6.8622
X5.1205Y-3.8504
X5.1205Y-4.5197
X5.1205Y-5.189
X5.1205Y-5.8583
X5.4079Y-6.8957
X5.5291Y-6.0256
X5.5291Y-5.3563
X5.5291Y-4.687
X5.5291Y-4.0177
X5.7053Y-6.9349
X5.8291Y-6.0256
X5.8291Y-5.3563
X5.8291Y-4.687
X5.8291Y-4.0177
X6.1738Y-7.0422
X6.2378Y-6.126
X6.2378Y-5.4567
X6.2378Y-4.7874
X6.2378Y-4.1181
X6.4599Y-7.1324
X6.5378Y-6.126
X6.5378Y-5.4567
X6.5378Y-4.7874
X6.5378Y-4.1181
X6.8974Y-6.5313
X6.9051Y-7.333
X7.1649Y-7.483
X7.1693Y-6.6581
X9.1623Y-6.6151
X9.1667Y-7.4399
X9.4265Y-7.2899
X9.4342Y-6.4883
X9.7938Y-4.0751
X9.7938Y-4.7443
X9.7938Y-5.4136
X9.7938Y-6.0829
X9.8717Y-7.0894
X10.0938Y-4.0751
X10.0938Y-4.7443
X10.0938Y-5.4136
X10.0938Y-6.0829
X10.1578Y-6.9992
X10.5024Y-3.9747
X10.5024Y-4.644
X10.5024Y-5.3132
X10.5024Y-5.9825
X10.6263Y-6.8918
X10.8024Y-3.9747
X10.8024Y-4.644
X10.8024Y-5.3132
X10.8024Y-5.9825
X10.9237Y-6.8526
X11.2111Y-5.8152
X11.2111Y-5.1459
X11.2111Y-4.4766
X11.2111Y-3.8073
X11.3954Y-6.8192
X11.5111Y-5.8152
X11.5111Y-5.1459
X11.5111Y-4.4766
X11.5111Y-3.8073
X11.6954Y-6.8192
X11.9198Y-5.9825
X11.9198Y-5.3132
X11.9198Y-4.644
X11.9198Y-3.9747
X12.2198Y-5.9825
X12.2198Y-5.3132
X12.2198Y-4.644
X12.2198Y-3.9747
X12.6284Y-4.4164
X12.6284Y-6.4243
X12.6284Y-5.755
X12.6284Y-5.0857
X12.9284Y-4.4164
X12.9284Y-6.4243
X12.9284Y-5.755
X12.9284Y-5.0857
X13.3371Y-6.4243
X13.3371Y-5.755
X13.3371Y-4.4164
X13.3371Y-5.0857
X13.6371Y-6.4243
X13.6371Y-5.755
X13.6371Y-4.4164
X13.6371Y-5.0857
X14.0457Y-6.4243
X14.0457Y-5.755
X14.0457Y-4.4164
X14.0457Y-5.0857
X14.3457Y-6.4243
X14.3457Y-5.755
X14.3457Y-4.4164
X14.3457Y-5.0857
T3
X6.9631Y-5.0425
X7.0631Y-5.0425
X7.1259Y-5.2114
X7.1259Y-5.3114
X7.1259Y-5.4114
X7.1259Y-5.5114
X7.1259Y-5.6114
X7.1259Y-5.7114
X7.1259Y-5.8114
X7.1259Y-5.9114
X7.1631Y-5.0425
X7.2631Y-5.0425
X7.3631Y-5.0425
X8.9685Y-4.9995
X9.0685Y-4.9995
X9.1685Y-4.9995
X9.2057Y-5.1684
X9.2057Y-5.2684
X9.2057Y-5.3684
X9.2057Y-5.4684
X9.2057Y-5.5684
X9.2057Y-5.6684
X9.2057Y-5.7684
X9.2057Y-5.8684
X9.2685Y-4.9995
X9.3685Y-4.9995
T4
X6.8681Y-3.8228
X6.8681Y-3.9228
X6.8681Y-4.0228
X6.8681Y-4.1228
X6.8681Y-4.2228
X6.8681Y-4.3228
X6.8681Y-4.4228
X6.8681Y-4.5228
X6.8681Y-4.6228
X6.8681Y-4.7228
X6.8681Y-4.8228
X6.8681Y-4.9228
X7.4681Y-3.8228
X7.4681Y-3.9228
X7.4681Y-4.0228
X7.4681Y-4.1228
X7.4681Y-4.2228
X7.4681Y-4.3228
X7.4681Y-4.4228
X7.4681Y-4.5228
X7.4681Y-4.6228
X7.4681Y-4.7228
X7.4681Y-4.8228
X7.4681Y-4.9228
X8.865Y-3.7798
X8.865Y-3.8798
X8.865Y-3.9798
X8.865Y-4.0798
X8.865Y-4.1798
X8.865Y-4.2798
X8.865Y-4.3798
X8.865Y-4.4798
X8.865Y-4.5798
X8.865Y-4.6798
X8.865Y-4.7798
X8.865Y-4.8798
X9.465Y-3.7798
X9.465Y-3.8798
X9.465Y-3.9798
X9.465Y-4.0798
X9.465Y-4.1798
X9.465Y-4.2798
X9.465Y-4.3798
X9.465Y-4.4798
X9.465Y-4.5798
X9.465Y-4.6798
X9.465Y-4.7798
X9.465Y-4.8798
T5
X1.939Y-6.1209
X1.939Y-4.7823
X1.939Y-5.4516
X1.939Y-4.113
X2.1358Y-6.0382
X2.1358Y-6.0382
X2.1358Y-4.6996
X2.1358Y-4.6996
X2.1358Y-5.3689
X2.1358Y-5.3689
X2.1358Y-4.0303
X2.1358Y-4.0303
X2.3327Y-6.1209
X2.3327Y-4.7823
X2.3327Y-5.4516
X2.3327Y-4.113
X2.6476Y-5.4516
X2.6476Y-4.113
X2.6476Y-4.7823
X2.6476Y-6.1209
X2.8445Y-5.3689
X2.8445Y-5.3689
X2.8445Y-4.0303
X2.8445Y-4.0303
X2.8445Y-4.6996
X2.8445Y-4.6996
X2.8445Y-6.0382
X2.8445Y-6.0382
X3.0413Y-5.4516
X3.0413Y-4.113
X3.0413Y-4.7823
X3.0413Y-6.1209
X3.3563Y-5.4516
X3.3563Y-4.7823
X3.3563Y-4.113
X3.3563Y-6.1209
X3.5531Y-5.3689
X3.5531Y-5.3689
X3.5531Y-4.6996
X3.5531Y-4.6996
X3.5531Y-4.0303
X3.5531Y-4.0303
X3.5531Y-6.0382
X3.5531Y-6.0382
X3.75Y-5.4516
X3.75Y-4.7823
X3.75Y-4.113
X3.75Y-6.1209
X4.065Y-5.6791
X4.065Y-5.0098
X4.065Y-4.3406
X4.065Y-3.6713
X4.2618Y-5.5965
X4.2618Y-5.5965
X4.2618Y-4.9272
X4.2618Y-4.9272
X4.2618Y-4.2579
X4.2618Y-4.2579
X4.2618Y-3.5886
X4.2618Y-3.5886
X4.4587Y-5.6791
X4.4587Y-5.0098
X4.4587Y-4.3406
X4.4587Y-3.6713
X4.5894Y-6.5157
X4.7736Y-4.8425
X4.7736Y-5.5118
X4.7736Y-4.1732
X4.7736Y-3.5039
X4.7862Y-6.4331
X4.7862Y-6.4331
X4.9705Y-4.7598
X4.9705Y-4.7598
X4.9705Y-5.4291
X4.9705Y-5.4291
X4.9705Y-4.0906
X4.9705Y-4.0906
X4.9705Y-3.4213
X4.9705Y-3.4213
X4.9831Y-6.5157
X5.1673Y-4.8425
X5.1673Y-5.5118
X5.1673Y-4.1732
X5.1673Y-3.5039
X5.4066Y-6.5461
X5.4823Y-3.6713
X5.4823Y-5.0098
X5.4823Y-5.6791
X5.4823Y-4.3406
X5.6126Y-6.4898
X5.6126Y-6.4898
X5.6791Y-3.5886
X5.6791Y-3.5886
X5.6791Y-4.9272
X5.6791Y-4.9272
X5.6791Y-5.5965
X5.6791Y-5.5965
X5.6791Y-4.2579
X5.6791Y-4.2579
X5.797Y-6.5975
X5.876Y-3.6713
X5.876Y-5.0098
X5.876Y-5.6791
X5.876Y-4.3406
X6.1909Y-5.1102
X6.1909Y-5.7795
X6.1909Y-4.4409
X6.1909Y-3.7717
X6.2333Y-6.6977
X6.3878Y-5.0276
X6.3878Y-5.0276
X6.3878Y-5.6969
X6.3878Y-5.6969
X6.3878Y-4.3583
X6.3878Y-4.3583
X6.3878Y-3.689
X6.3878Y-3.689
X6.4459Y-6.6781
X6.4459Y-6.6781
X6.5846Y-5.1102
X6.5846Y-5.7795
X6.5846Y-4.4409
X6.5846Y-3.7717
X6.6088Y-6.8161
X7.0014Y-6.1975
X7.0377Y-7.0095
X7.2147Y-6.2058
X7.2147Y-6.2058
X7.2495Y-7.0364
X7.2495Y-7.0364
X7.3582Y-6.3639
X7.3787Y-7.2064
X8.9529Y-7.1633
X8.9734Y-6.3209
X9.082Y-6.9933
X9.082Y-6.9933
X9.1169Y-6.1627
X9.1169Y-6.1627
X9.2939Y-6.9665
X9.3302Y-6.1545
X9.7228Y-6.7731
X9.7469Y-3.7286
X9.7469Y-4.3979
X9.7469Y-5.7365
X9.7469Y-5.0672
X9.8857Y-6.635
X9.8857Y-6.635
X9.9438Y-3.6459
X9.9438Y-3.6459
X9.9438Y-4.3152
X9.9438Y-4.3152
X9.9438Y-5.6538
X9.9438Y-5.6538
X9.9438Y-4.9845
X9.9438Y-4.9845
X10.0983Y-6.6547
X10.1406Y-3.7286
X10.1406Y-4.3979
X10.1406Y-5.7365
X10.1406Y-5.0672
X10.4556Y-4.2975
X10.4556Y-5.6361
X10.4556Y-4.9668
X10.4556Y-3.6282
X10.5346Y-6.5544
X10.6524Y-4.2148
X10.6524Y-4.2148
X10.6524Y-5.5534
X10.6524Y-5.5534
X10.6524Y-4.8841
X10.6524Y-4.8841
X10.6524Y-3.5455
X10.6524Y-3.5455
X10.719Y-6.4468
X10.719Y-6.4468
X10.8493Y-4.2975
X10.8493Y-5.6361
X10.8493Y-4.9668
X10.8493Y-3.6282
X10.9249Y-6.503
X11.1643Y-3.4609
X11.1643Y-4.1302
X11.1643Y-5.4688
X11.1643Y-4.7995
X11.3485Y-6.4727
X11.3611Y-3.3782
X11.3611Y-3.3782
X11.3611Y-4.0475
X11.3611Y-4.0475
X11.3611Y-5.3861
X11.3611Y-5.3861
X11.3611Y-4.7168
X11.3611Y-4.7168
X11.5454Y-6.39
X11.5454Y-6.39
X11.558Y-3.4609
X11.558Y-4.1302
X11.558Y-5.4688
X11.558Y-4.7995
X11.7422Y-6.4727
X11.8729Y-3.6282
X11.8729Y-4.2975
X11.8729Y-4.9668
X11.8729Y-5.6361
X12.0698Y-3.5455
X12.0698Y-3.5455
X12.0698Y-4.2148
X12.0698Y-4.2148
X12.0698Y-4.8841
X12.0698Y-4.8841
X12.0698Y-5.5534
X12.0698Y-5.5534
X12.2666Y-3.6282
X12.2666Y-4.2975
X12.2666Y-4.9668
X12.2666Y-5.6361
X12.5816Y-6.0778
X12.5816Y-4.0699
X12.5816Y-4.7392
X12.5816Y-5.4085
X12.7784Y-5.9951
X12.7784Y-5.9951
X12.7784Y-3.9873
X12.7784Y-3.9873
X12.7784Y-4.6566
X12.7784Y-4.6566
X12.7784Y-5.3258
X12.7784Y-5.3258
X12.9753Y-6.0778
X12.9753Y-4.0699
X12.9753Y-4.7392
X12.9753Y-5.4085
X13.2902Y-6.0778
X13.2902Y-4.7392
X13.2902Y-4.0699
X13.2902Y-5.4085
X13.4871Y-5.9951
X13.4871Y-5.9951
X13.4871Y-4.6566
X13.4871Y-4.6566
X13.4871Y-3.9873
X13.4871Y-3.9873
X13.4871Y-5.3258
X13.4871Y-5.3258
X13.6839Y-6.0778
X13.6839Y-4.7392
X13.6839Y-4.0699
X13.6839Y-5.4085
X13.9989Y-4.0699
X13.9989Y-5.4085
X13.9989Y-4.7392
X13.9989Y-6.0778
X14.1957Y-3.9873
X14.1957Y-3.9873
X14.1957Y-5.3258
X14.1957Y-5.3258
X14.1957Y-4.6566
X14.1957Y-4.6566
X14.1957Y-5.9951
X14.1957Y-5.9951
X14.3926Y-4.0699
X14.3926Y-5.4085
X14.3926Y-4.7392
X14.3926Y-6.0778
T6
X2.4902Y-4.5972
X2.4902Y-5.9358
X3.9076Y-4.8249
X4.1753Y-6.4232
X5.3249Y-5.3268
X5.3249Y-3.9878
X6.539Y-6.4197
X7.4759Y-5.2614
X7.4759Y-5.8614
X8.8557Y-5.2184
X8.8557Y-5.8184
X9.7925Y-6.3766
X11.0067Y-3.9447
X11.0067Y-5.2837
X12.1563Y-6.3802
X12.424Y-4.7819
X13.8413Y-5.8928
X13.8413Y-4.5542
T0
M30
