%TF.GenerationSoftware,KiCad,Pcbnew,6.0.9*%
%TF.CreationDate,2022-10-31T19:27:22+01:00*%
%TF.ProjectId,neok(both),6e656f6b-2862-46f7-9468-292e6b696361,v1.0.0*%
%TF.SameCoordinates,Original*%
%TF.FileFunction,Paste,Top*%
%TF.FilePolarity,Positive*%
%FSLAX46Y46*%
G04 Gerber Fmt 4.6, Leading zero omitted, Abs format (unit mm)*
G04 Created by KiCad (PCBNEW 6.0.9) date 2022-10-31 19:27:22*
%MOMM*%
%LPD*%
G01*
G04 APERTURE LIST*
G04 Aperture macros list*
%AMRotRect*
0 Rectangle, with rotation*
0 The origin of the aperture is its center*
0 $1 length*
0 $2 width*
0 $3 Rotation angle, in degrees counterclockwise*
0 Add horizontal line*
21,1,$1,$2,0,0,$3*%
G04 Aperture macros list end*
%ADD10R,0.900000X1.200000*%
%ADD11RotRect,0.900000X1.200000X342.500000*%
%ADD12RotRect,0.900000X1.200000X352.500000*%
%ADD13RotRect,0.900000X1.200000X335.000000*%
%ADD14RotRect,0.900000X1.200000X330.000000*%
%ADD15RotRect,0.900000X1.200000X205.000000*%
%ADD16RotRect,0.900000X1.200000X197.500000*%
%ADD17RotRect,0.900000X1.200000X210.000000*%
%ADD18RotRect,0.900000X1.200000X187.500000*%
G04 APERTURE END LIST*
D10*
%TO.C,D17*%
X124600004Y-148800004D03*
X127900004Y-148800004D03*
%TD*%
%TO.C,D3*%
X52599993Y-130270002D03*
X55899993Y-130270002D03*
%TD*%
%TO.C,D20*%
X124599997Y-97800000D03*
X127899997Y-97800000D03*
%TD*%
D11*
%TO.C,D31*%
X158874516Y-179522303D03*
X162021782Y-180514633D03*
%TD*%
D10*
%TO.C,D29*%
X119920002Y-174300000D03*
X123220002Y-174300000D03*
%TD*%
%TO.C,D26*%
X160600003Y-138599996D03*
X163900003Y-138599996D03*
%TD*%
%TO.C,D4*%
X52600001Y-113270001D03*
X55900001Y-113270001D03*
%TD*%
%TO.C,D12*%
X88600009Y-113270007D03*
X91900009Y-113270007D03*
%TD*%
%TO.C,D5*%
X70600008Y-164270003D03*
X73900008Y-164270003D03*
%TD*%
%TO.C,D7*%
X70600000Y-130270007D03*
X73900000Y-130270007D03*
%TD*%
%TO.C,D13*%
X106600009Y-153049999D03*
X109900009Y-153049999D03*
%TD*%
%TO.C,D23*%
X142600002Y-119050000D03*
X145900002Y-119050000D03*
%TD*%
%TO.C,D1*%
X52600007Y-164270002D03*
X55900007Y-164270002D03*
%TD*%
%TO.C,D24*%
X142600006Y-102049995D03*
X145900006Y-102049995D03*
%TD*%
%TO.C,D16*%
X106599996Y-102049998D03*
X109899996Y-102049998D03*
%TD*%
%TO.C,D28*%
X160600009Y-104600009D03*
X163900009Y-104600009D03*
%TD*%
%TO.C,D22*%
X142599996Y-136050003D03*
X145899996Y-136050003D03*
%TD*%
D12*
%TO.C,D30*%
X139501193Y-175432676D03*
X142772961Y-175863412D03*
%TD*%
D10*
%TO.C,D2*%
X52600004Y-147269998D03*
X55900004Y-147269998D03*
%TD*%
D13*
%TO.C,D33*%
X177151752Y-166808819D03*
X180142568Y-168203459D03*
%TD*%
D10*
%TO.C,D27*%
X160600004Y-121600005D03*
X163900004Y-121600005D03*
%TD*%
%TO.C,D21*%
X142599995Y-153050003D03*
X145899995Y-153050003D03*
%TD*%
%TO.C,D19*%
X124599998Y-114800004D03*
X127899998Y-114800004D03*
%TD*%
%TO.C,D14*%
X106600000Y-136050002D03*
X109900000Y-136050002D03*
%TD*%
%TO.C,D15*%
X106599997Y-119050007D03*
X109899997Y-119050007D03*
%TD*%
D14*
%TO.C,D32*%
X177259389Y-187338274D03*
X180117273Y-188988274D03*
%TD*%
D10*
%TO.C,D18*%
X124600002Y-131800007D03*
X127900002Y-131800007D03*
%TD*%
%TO.C,D6*%
X70600002Y-147270008D03*
X73900002Y-147270008D03*
%TD*%
%TO.C,D9*%
X88600007Y-164270004D03*
X91900007Y-164270004D03*
%TD*%
%TO.C,D11*%
X88599998Y-130270000D03*
X91899998Y-130270000D03*
%TD*%
%TO.C,D8*%
X70600001Y-113270000D03*
X73900001Y-113270000D03*
%TD*%
%TO.C,D25*%
X160599996Y-155600002D03*
X163899996Y-155600002D03*
%TD*%
%TO.C,D10*%
X88600006Y-147270001D03*
X91900006Y-147270001D03*
%TD*%
%TO.C,D15*%
X308222020Y-117956449D03*
X304922020Y-117956449D03*
%TD*%
%TO.C,D10*%
X326222011Y-146176443D03*
X322922011Y-146176443D03*
%TD*%
%TO.C,D13*%
X308222008Y-151956441D03*
X304922008Y-151956441D03*
%TD*%
%TO.C,D9*%
X326222010Y-163176446D03*
X322922010Y-163176446D03*
%TD*%
%TO.C,D28*%
X254222008Y-103506451D03*
X250922008Y-103506451D03*
%TD*%
%TO.C,D12*%
X326222008Y-112176449D03*
X322922008Y-112176449D03*
%TD*%
%TO.C,D3*%
X362222024Y-129176444D03*
X358922024Y-129176444D03*
%TD*%
%TO.C,D25*%
X254222021Y-154506444D03*
X250922021Y-154506444D03*
%TD*%
%TO.C,D5*%
X344222009Y-163176445D03*
X340922009Y-163176445D03*
%TD*%
%TO.C,D23*%
X272222015Y-117956442D03*
X268922015Y-117956442D03*
%TD*%
%TO.C,D19*%
X290222019Y-113706446D03*
X286922019Y-113706446D03*
%TD*%
%TO.C,D22*%
X272222021Y-134956445D03*
X268922021Y-134956445D03*
%TD*%
%TO.C,D1*%
X362222010Y-163176444D03*
X358922010Y-163176444D03*
%TD*%
%TO.C,D29*%
X294902015Y-173206442D03*
X291602015Y-173206442D03*
%TD*%
D15*
%TO.C,D33*%
X237670265Y-165715261D03*
X234679449Y-167109901D03*
%TD*%
D10*
%TO.C,D27*%
X254222013Y-120506447D03*
X250922013Y-120506447D03*
%TD*%
D16*
%TO.C,D31*%
X255947501Y-178428745D03*
X252800235Y-179421075D03*
%TD*%
D10*
%TO.C,D4*%
X362222016Y-112176443D03*
X358922016Y-112176443D03*
%TD*%
%TO.C,D18*%
X290222015Y-130706449D03*
X286922015Y-130706449D03*
%TD*%
%TO.C,D14*%
X308222017Y-134956444D03*
X304922017Y-134956444D03*
%TD*%
D17*
%TO.C,D32*%
X237562628Y-186244716D03*
X234704744Y-187894716D03*
%TD*%
D10*
%TO.C,D6*%
X344222015Y-146176450D03*
X340922015Y-146176450D03*
%TD*%
D18*
%TO.C,D30*%
X275320824Y-174339118D03*
X272049056Y-174769854D03*
%TD*%
D10*
%TO.C,D21*%
X272222022Y-151956445D03*
X268922022Y-151956445D03*
%TD*%
%TO.C,D20*%
X290222020Y-96706442D03*
X286922020Y-96706442D03*
%TD*%
%TO.C,D24*%
X272222011Y-100956437D03*
X268922011Y-100956437D03*
%TD*%
%TO.C,D16*%
X308222021Y-100956440D03*
X304922021Y-100956440D03*
%TD*%
%TO.C,D2*%
X362222013Y-146176440D03*
X358922013Y-146176440D03*
%TD*%
%TO.C,D26*%
X254222014Y-137506438D03*
X250922014Y-137506438D03*
%TD*%
%TO.C,D17*%
X290222013Y-147706446D03*
X286922013Y-147706446D03*
%TD*%
%TO.C,D7*%
X344222017Y-129176449D03*
X340922017Y-129176449D03*
%TD*%
%TO.C,D11*%
X326222019Y-129176442D03*
X322922019Y-129176442D03*
%TD*%
%TO.C,D8*%
X344222016Y-112176442D03*
X340922016Y-112176442D03*
%TD*%
M02*
