%TF.GenerationSoftware,KiCad,Pcbnew,6.0.9*%
%TF.CreationDate,2022-10-31T19:27:22+01:00*%
%TF.ProjectId,neok(both),6e656f6b-2862-46f7-9468-292e6b696361,v1.0.0*%
%TF.SameCoordinates,Original*%
%TF.FileFunction,Copper,L2,Bot*%
%TF.FilePolarity,Positive*%
%FSLAX46Y46*%
G04 Gerber Fmt 4.6, Leading zero omitted, Abs format (unit mm)*
G04 Created by KiCad (PCBNEW 6.0.9) date 2022-10-31 19:27:22*
%MOMM*%
%LPD*%
G01*
G04 APERTURE LIST*
G04 Aperture macros list*
%AMRotRect*
0 Rectangle, with rotation*
0 The origin of the aperture is its center*
0 $1 length*
0 $2 width*
0 $3 Rotation angle, in degrees counterclockwise*
0 Add horizontal line*
21,1,$1,$2,0,0,$3*%
G04 Aperture macros list end*
%TA.AperFunction,ComponentPad*%
%ADD10C,1.905000*%
%TD*%
%TA.AperFunction,SMDPad,CuDef*%
%ADD11R,0.900000X1.200000*%
%TD*%
%TA.AperFunction,ComponentPad*%
%ADD12R,1.778000X1.778000*%
%TD*%
%TA.AperFunction,ComponentPad*%
%ADD13C,3.200000*%
%TD*%
%TA.AperFunction,ComponentPad*%
%ADD14C,2.032000*%
%TD*%
%TA.AperFunction,SMDPad,CuDef*%
%ADD15RotRect,0.900000X1.200000X342.500000*%
%TD*%
%TA.AperFunction,ComponentPad*%
%ADD16RotRect,1.778000X1.778000X342.500000*%
%TD*%
%TA.AperFunction,ComponentPad*%
%ADD17R,1.752600X1.752600*%
%TD*%
%TA.AperFunction,ComponentPad*%
%ADD18C,1.752600*%
%TD*%
%TA.AperFunction,ComponentPad*%
%ADD19C,1.700000*%
%TD*%
%TA.AperFunction,ComponentPad*%
%ADD20C,1.930400*%
%TD*%
%TA.AperFunction,SMDPad,CuDef*%
%ADD21RotRect,0.900000X1.200000X352.500000*%
%TD*%
%TA.AperFunction,ComponentPad*%
%ADD22RotRect,1.778000X1.778000X352.500000*%
%TD*%
%TA.AperFunction,SMDPad,CuDef*%
%ADD23RotRect,0.900000X1.200000X335.000000*%
%TD*%
%TA.AperFunction,ComponentPad*%
%ADD24RotRect,1.778000X1.778000X335.000000*%
%TD*%
%TA.AperFunction,SMDPad,CuDef*%
%ADD25RotRect,0.900000X1.200000X330.000000*%
%TD*%
%TA.AperFunction,ComponentPad*%
%ADD26RotRect,1.778000X1.778000X330.000000*%
%TD*%
%TA.AperFunction,SMDPad,CuDef*%
%ADD27RotRect,0.900000X1.200000X205.000000*%
%TD*%
%TA.AperFunction,ComponentPad*%
%ADD28RotRect,1.778000X1.778000X205.000000*%
%TD*%
%TA.AperFunction,SMDPad,CuDef*%
%ADD29RotRect,0.900000X1.200000X197.500000*%
%TD*%
%TA.AperFunction,ComponentPad*%
%ADD30RotRect,1.778000X1.778000X197.500000*%
%TD*%
%TA.AperFunction,SMDPad,CuDef*%
%ADD31RotRect,0.900000X1.200000X210.000000*%
%TD*%
%TA.AperFunction,ComponentPad*%
%ADD32RotRect,1.778000X1.778000X210.000000*%
%TD*%
%TA.AperFunction,SMDPad,CuDef*%
%ADD33RotRect,0.900000X1.200000X187.500000*%
%TD*%
%TA.AperFunction,ComponentPad*%
%ADD34RotRect,1.778000X1.778000X187.500000*%
%TD*%
%TA.AperFunction,ViaPad*%
%ADD35C,0.800000*%
%TD*%
%TA.AperFunction,Conductor*%
%ADD36C,0.200000*%
%TD*%
%TA.AperFunction,Conductor*%
%ADD37C,0.250000*%
%TD*%
G04 APERTURE END LIST*
D10*
%TO.P,D17,1*%
%TO.N,N/C*%
X130060004Y-148800004D03*
D11*
X124600004Y-148800004D03*
D12*
%TO.P,D17,2*%
X122440004Y-148800004D03*
D11*
X127900004Y-148800004D03*
%TD*%
%TO.P,D3,1*%
%TO.N,N/C*%
X52599993Y-130270002D03*
D10*
X58059993Y-130270002D03*
D11*
%TO.P,D3,2*%
X55899993Y-130270002D03*
D12*
X50439993Y-130270002D03*
%TD*%
D13*
%TO.P,,*%
%TO.N,*%
X99252017Y-122553558D03*
%TD*%
D14*
%TO.P,S17,1*%
%TO.N,N/C*%
X131249995Y-140000005D03*
X121249995Y-140000005D03*
%TO.P,S17,2*%
X126249995Y-137900005D03*
X126249995Y-137900005D03*
%TD*%
D10*
%TO.P,D20,1*%
%TO.N,N/C*%
X130059997Y-97800000D03*
D11*
X124599997Y-97800000D03*
%TO.P,D20,2*%
X127899997Y-97800000D03*
D12*
X122439997Y-97800000D03*
%TD*%
D10*
%TO.P,D31,1*%
%TO.N,N/C*%
X164081811Y-181164157D03*
D15*
X158874516Y-179522303D03*
D16*
%TO.P,D31,2*%
X156814487Y-178872779D03*
D15*
X162021782Y-180514633D03*
%TD*%
D13*
%TO.P,,*%
%TO.N,*%
X63251752Y-116770005D03*
%TD*%
D11*
%TO.P,D29,1*%
%TO.N,N/C*%
X119920002Y-174300000D03*
D10*
X125380002Y-174300000D03*
D11*
%TO.P,D29,2*%
X123220002Y-174300000D03*
D12*
X117760002Y-174300000D03*
%TD*%
D14*
%TO.P,S10,1*%
%TO.N,N/C*%
X95249996Y-138470007D03*
X85249996Y-138470007D03*
%TO.P,S10,2*%
X90249996Y-136370007D03*
X90249996Y-136370007D03*
%TD*%
%TO.P,S22,1*%
%TO.N,N/C*%
X149250001Y-127250005D03*
X139250001Y-127250005D03*
%TO.P,S22,2*%
X144250001Y-125150005D03*
X144250001Y-125150005D03*
%TD*%
D10*
%TO.P,D26,1*%
%TO.N,N/C*%
X166060003Y-138599996D03*
D11*
X160600003Y-138599996D03*
%TO.P,D26,2*%
X163900003Y-138599996D03*
D12*
X158440003Y-138599996D03*
%TD*%
D14*
%TO.P,S19,1*%
%TO.N,N/C*%
X131249996Y-105999999D03*
X121249996Y-105999999D03*
%TO.P,S19,2*%
X126249996Y-103899999D03*
X126249996Y-103899999D03*
%TD*%
D13*
%TO.P,,*%
%TO.N,*%
X63251754Y-150770000D03*
%TD*%
D14*
%TO.P,S9,1*%
%TO.N,N/C*%
X85250001Y-155470004D03*
X95250001Y-155470004D03*
%TO.P,S9,2*%
X90250001Y-153370004D03*
X90250001Y-153370004D03*
%TD*%
%TO.P,S27,1*%
%TO.N,N/C*%
X157249998Y-112799996D03*
X167249998Y-112799996D03*
%TO.P,S27,2*%
X162249998Y-110699996D03*
X162249998Y-110699996D03*
%TD*%
D10*
%TO.P,D4,1*%
%TO.N,N/C*%
X58060001Y-113270001D03*
D11*
X52600001Y-113270001D03*
D12*
%TO.P,D4,2*%
X50440001Y-113270001D03*
D11*
X55900001Y-113270001D03*
%TD*%
D14*
%TO.P,S1,1*%
%TO.N,N/C*%
X59249999Y-155469994D03*
X49249999Y-155469994D03*
%TO.P,S1,2*%
X54249999Y-153369994D03*
X54249999Y-153369994D03*
%TD*%
D11*
%TO.P,D12,1*%
%TO.N,N/C*%
X88600009Y-113270007D03*
D10*
X94060009Y-113270007D03*
D11*
%TO.P,D12,2*%
X91900009Y-113270007D03*
D12*
X86440009Y-113270007D03*
%TD*%
D14*
%TO.P,S2,1*%
%TO.N,N/C*%
X59250003Y-138469992D03*
X49250003Y-138469992D03*
%TO.P,S2,2*%
X54250003Y-136369992D03*
X54250003Y-136369992D03*
%TD*%
D11*
%TO.P,D5,1*%
%TO.N,N/C*%
X70600008Y-164270003D03*
D10*
X76060008Y-164270003D03*
D11*
%TO.P,D5,2*%
X73900008Y-164270003D03*
D12*
X68440008Y-164270003D03*
%TD*%
D10*
%TO.P,D7,1*%
%TO.N,N/C*%
X76060000Y-130270007D03*
D11*
X70600000Y-130270007D03*
D12*
%TO.P,D7,2*%
X68440000Y-130270007D03*
D11*
X73900000Y-130270007D03*
%TD*%
D10*
%TO.P,D13,1*%
%TO.N,N/C*%
X112060009Y-153049999D03*
D11*
X106600009Y-153049999D03*
D12*
%TO.P,D13,2*%
X104440009Y-153049999D03*
D11*
X109900009Y-153049999D03*
%TD*%
D17*
%TO.P,MCU1,1*%
%TO.N,N/C*%
X174449998Y-97100006D03*
D18*
%TO.P,MCU1,2*%
X174449998Y-99640006D03*
%TO.P,MCU1,3*%
X174449998Y-102180006D03*
%TO.P,MCU1,4*%
X174449998Y-104720006D03*
%TO.P,MCU1,5*%
X174449998Y-107260006D03*
%TO.P,MCU1,6*%
X174449998Y-109800006D03*
%TO.P,MCU1,7*%
X174449998Y-112340006D03*
%TO.P,MCU1,8*%
X174449998Y-114880006D03*
%TO.P,MCU1,9*%
X174449998Y-117420006D03*
%TO.P,MCU1,10*%
X174449998Y-119960006D03*
%TO.P,MCU1,11*%
X174449998Y-122500006D03*
%TO.P,MCU1,12*%
X174449998Y-125040006D03*
%TO.P,MCU1,13*%
X189689998Y-97100006D03*
%TO.P,MCU1,14*%
X189689998Y-99640006D03*
%TO.P,MCU1,15*%
X189689998Y-102180006D03*
%TO.P,MCU1,16*%
X189689998Y-104720006D03*
%TO.P,MCU1,17*%
X189689998Y-107260006D03*
%TO.P,MCU1,18*%
X189689998Y-109800006D03*
%TO.P,MCU1,19*%
X189689998Y-112340006D03*
%TO.P,MCU1,20*%
X189689998Y-114880006D03*
%TO.P,MCU1,21*%
X189689998Y-117420006D03*
%TO.P,MCU1,22*%
X189689998Y-119960006D03*
%TO.P,MCU1,23*%
X189689998Y-122500006D03*
%TO.P,MCU1,24*%
X189689998Y-125040006D03*
%TD*%
D14*
%TO.P,S5,1*%
%TO.N,N/C*%
X77250010Y-155469998D03*
X67250010Y-155469998D03*
%TO.P,S5,2*%
X72250010Y-153369998D03*
X72250010Y-153369998D03*
%TD*%
D11*
%TO.P,D23,1*%
%TO.N,N/C*%
X142600002Y-119050000D03*
D10*
X148060002Y-119050000D03*
D11*
%TO.P,D23,2*%
X145900002Y-119050000D03*
D12*
X140440002Y-119050000D03*
%TD*%
D11*
%TO.P,D1,1*%
%TO.N,N/C*%
X52600007Y-164270002D03*
D10*
X58060007Y-164270002D03*
D11*
%TO.P,D1,2*%
X55900007Y-164270002D03*
D12*
X50440007Y-164270002D03*
%TD*%
D11*
%TO.P,D24,1*%
%TO.N,N/C*%
X142600006Y-102049995D03*
D10*
X148060006Y-102049995D03*
D11*
%TO.P,D24,2*%
X145900006Y-102049995D03*
D12*
X140440006Y-102049995D03*
%TD*%
D14*
%TO.P,S33,1*%
%TO.N,N/C*%
X186897745Y-161643723D03*
X177834667Y-157417540D03*
%TO.P,S33,2*%
X183253705Y-157627385D03*
X183253705Y-157627385D03*
%TD*%
D10*
%TO.P,D16,1*%
%TO.N,N/C*%
X112059996Y-102049998D03*
D11*
X106599996Y-102049998D03*
D12*
%TO.P,D16,2*%
X104439996Y-102049998D03*
D11*
X109899996Y-102049998D03*
%TD*%
D10*
%TO.P,D28,1*%
%TO.N,N/C*%
X166060009Y-104600009D03*
D11*
X160600009Y-104600009D03*
D12*
%TO.P,D28,2*%
X158440009Y-104600009D03*
D11*
X163900009Y-104600009D03*
%TD*%
D19*
%TO.P,REF\u002A\u002A,1*%
%TO.N,N/C*%
X187021751Y-128079994D03*
%TO.P,REF\u002A\u002A,2*%
X184481751Y-128079994D03*
%TO.P,REF\u002A\u002A,3*%
X181941751Y-128079994D03*
%TO.P,REF\u002A\u002A,4*%
X179401751Y-128079994D03*
%TO.P,REF\u002A\u002A,5*%
X176861751Y-128079994D03*
%TD*%
D14*
%TO.P,S31,1*%
%TO.N,N/C*%
X158325773Y-170122235D03*
X167862943Y-173129293D03*
%TO.P,S31,2*%
X163725840Y-169622958D03*
X163725840Y-169622958D03*
%TD*%
%TO.P,S13,1*%
%TO.N,N/C*%
X103249997Y-144250002D03*
X113249997Y-144250002D03*
%TO.P,S13,2*%
X108249997Y-142150002D03*
X108249997Y-142150002D03*
%TD*%
D13*
%TO.P,REF\u002A\u002A,*%
%TO.N,*%
X189886757Y-133639998D03*
X189886757Y-148879998D03*
D20*
%TO.P,REF\u002A\u002A,1*%
%TO.N,N/C*%
X180996757Y-150149998D03*
%TO.P,REF\u002A\u002A,2*%
X180996757Y-147609998D03*
%TO.P,REF\u002A\u002A,3*%
X180996757Y-145069998D03*
%TO.P,REF\u002A\u002A,4*%
X180996757Y-142529998D03*
%TO.P,REF\u002A\u002A,5*%
X180996757Y-139989998D03*
%TO.P,REF\u002A\u002A,6*%
X180996757Y-137449998D03*
%TO.P,REF\u002A\u002A,7*%
X180996757Y-134909998D03*
%TO.P,REF\u002A\u002A,8*%
X180996757Y-132369998D03*
%TD*%
D10*
%TO.P,D22,1*%
%TO.N,N/C*%
X148059996Y-136050003D03*
D11*
X142599996Y-136050003D03*
%TO.P,D22,2*%
X145899996Y-136050003D03*
D12*
X140439996Y-136050003D03*
%TD*%
D21*
%TO.P,D30,1*%
%TO.N,N/C*%
X139501193Y-175432676D03*
D10*
X144914482Y-176145349D03*
D21*
%TO.P,D30,2*%
X142772961Y-175863412D03*
D22*
X137359672Y-175150739D03*
%TD*%
D13*
%TO.P,,*%
%TO.N,*%
X135251748Y-135299998D03*
%TD*%
D10*
%TO.P,D2,1*%
%TO.N,N/C*%
X58060004Y-147269998D03*
D11*
X52600004Y-147269998D03*
%TO.P,D2,2*%
X55900004Y-147269998D03*
D12*
X50440004Y-147269998D03*
%TD*%
D10*
%TO.P,D33,1*%
%TO.N,N/C*%
X182100193Y-169116315D03*
D23*
X177151752Y-166808819D03*
D24*
%TO.P,D33,2*%
X175194127Y-165895963D03*
D23*
X180142568Y-168203459D03*
%TD*%
D14*
%TO.P,S26,1*%
%TO.N,N/C*%
X167249995Y-129800000D03*
X157249995Y-129800000D03*
%TO.P,S26,2*%
X162249995Y-127700000D03*
X162249995Y-127700000D03*
%TD*%
D10*
%TO.P,D27,1*%
%TO.N,N/C*%
X166060004Y-121600005D03*
D11*
X160600004Y-121600005D03*
D12*
%TO.P,D27,2*%
X158440004Y-121600005D03*
D11*
X163900004Y-121600005D03*
%TD*%
D10*
%TO.P,D21,1*%
%TO.N,N/C*%
X148059995Y-153050003D03*
D11*
X142599995Y-153050003D03*
%TO.P,D21,2*%
X145899995Y-153050003D03*
D12*
X140439995Y-153050003D03*
%TD*%
D14*
%TO.P,S3,1*%
%TO.N,N/C*%
X59250002Y-121469998D03*
X49250002Y-121469998D03*
%TO.P,S3,2*%
X54250002Y-119369998D03*
X54250002Y-119369998D03*
%TD*%
%TO.P,S6,1*%
%TO.N,N/C*%
X77249996Y-138469999D03*
X67249996Y-138469999D03*
%TO.P,S6,2*%
X72249996Y-136369999D03*
X72249996Y-136369999D03*
%TD*%
%TO.P,S28,1*%
%TO.N,N/C*%
X167250009Y-95799999D03*
X157250009Y-95799999D03*
%TO.P,S28,2*%
X162250009Y-93699999D03*
X162250009Y-93699999D03*
%TD*%
%TO.P,S29,1*%
%TO.N,N/C*%
X116570000Y-165500004D03*
X126570000Y-165500004D03*
%TO.P,S29,2*%
X121570000Y-163400004D03*
X121570000Y-163400004D03*
%TD*%
%TO.P,S20,1*%
%TO.N,N/C*%
X131250006Y-89000005D03*
X121250006Y-89000005D03*
%TO.P,S20,2*%
X126250006Y-86900005D03*
X126250006Y-86900005D03*
%TD*%
D17*
%TO.P,MCU1,1*%
%TO.N,N/C*%
X225172019Y-96006448D03*
D18*
%TO.P,MCU1,2*%
X225172019Y-98546448D03*
%TO.P,MCU1,3*%
X225172019Y-101086448D03*
%TO.P,MCU1,4*%
X225172019Y-103626448D03*
%TO.P,MCU1,5*%
X225172019Y-106166448D03*
%TO.P,MCU1,6*%
X225172019Y-108706448D03*
%TO.P,MCU1,7*%
X225172019Y-111246448D03*
%TO.P,MCU1,8*%
X225172019Y-113786448D03*
%TO.P,MCU1,9*%
X225172019Y-116326448D03*
%TO.P,MCU1,10*%
X225172019Y-118866448D03*
%TO.P,MCU1,11*%
X225172019Y-121406448D03*
%TO.P,MCU1,12*%
X225172019Y-123946448D03*
%TO.P,MCU1,13*%
X240412019Y-96006448D03*
%TO.P,MCU1,14*%
X240412019Y-98546448D03*
%TO.P,MCU1,15*%
X240412019Y-101086448D03*
%TO.P,MCU1,16*%
X240412019Y-103626448D03*
%TO.P,MCU1,17*%
X240412019Y-106166448D03*
%TO.P,MCU1,18*%
X240412019Y-108706448D03*
%TO.P,MCU1,19*%
X240412019Y-111246448D03*
%TO.P,MCU1,20*%
X240412019Y-113786448D03*
%TO.P,MCU1,21*%
X240412019Y-116326448D03*
%TO.P,MCU1,22*%
X240412019Y-118866448D03*
%TO.P,MCU1,23*%
X240412019Y-121406448D03*
%TO.P,MCU1,24*%
X240412019Y-123946448D03*
%TD*%
D13*
%TO.P,,*%
%TO.N,*%
X135251756Y-101290004D03*
%TD*%
D14*
%TO.P,S24,1*%
%TO.N,N/C*%
X139249992Y-93250007D03*
X149249992Y-93250007D03*
%TO.P,S24,2*%
X144249992Y-91150007D03*
X144249992Y-91150007D03*
%TD*%
D13*
%TO.P,REF\u002A\u002A,*%
%TO.N,*%
X224935260Y-147786440D03*
X224935260Y-132546440D03*
D20*
%TO.P,REF\u002A\u002A,1*%
%TO.N,N/C*%
X233825260Y-131276440D03*
%TO.P,REF\u002A\u002A,2*%
X233825260Y-133816440D03*
%TO.P,REF\u002A\u002A,3*%
X233825260Y-136356440D03*
%TO.P,REF\u002A\u002A,4*%
X233825260Y-138896440D03*
%TO.P,REF\u002A\u002A,5*%
X233825260Y-141436440D03*
%TO.P,REF\u002A\u002A,6*%
X233825260Y-143976440D03*
%TO.P,REF\u002A\u002A,7*%
X233825260Y-146516440D03*
%TO.P,REF\u002A\u002A,8*%
X233825260Y-149056440D03*
%TD*%
D14*
%TO.P,S23,1*%
%TO.N,N/C*%
X149250006Y-110250004D03*
X139250006Y-110250004D03*
%TO.P,S23,2*%
X144250006Y-108150004D03*
X144250006Y-108150004D03*
%TD*%
D11*
%TO.P,D19,1*%
%TO.N,N/C*%
X124599998Y-114800004D03*
D10*
X130059998Y-114800004D03*
D11*
%TO.P,D19,2*%
X127899998Y-114800004D03*
D12*
X122439998Y-114800004D03*
%TD*%
D14*
%TO.P,S8,1*%
%TO.N,N/C*%
X77250001Y-104470003D03*
X67250001Y-104470003D03*
%TO.P,S8,2*%
X72250001Y-102370003D03*
X72250001Y-102370003D03*
%TD*%
D10*
%TO.P,D14,1*%
%TO.N,N/C*%
X112060000Y-136050002D03*
D11*
X106600000Y-136050002D03*
D12*
%TO.P,D14,2*%
X104440000Y-136050002D03*
D11*
X109900000Y-136050002D03*
%TD*%
%TO.P,D15,1*%
%TO.N,N/C*%
X106599997Y-119050007D03*
D10*
X112059997Y-119050007D03*
D11*
%TO.P,D15,2*%
X109899997Y-119050007D03*
D12*
X104439997Y-119050007D03*
%TD*%
D19*
%TO.P,REF\u002A\u002A,1*%
%TO.N,N/C*%
X237960266Y-126986436D03*
%TO.P,REF\u002A\u002A,2*%
X235420266Y-126986436D03*
%TO.P,REF\u002A\u002A,3*%
X232880266Y-126986436D03*
%TO.P,REF\u002A\u002A,4*%
X230340266Y-126986436D03*
%TO.P,REF\u002A\u002A,5*%
X227800266Y-126986436D03*
%TD*%
D10*
%TO.P,D32,1*%
%TO.N,N/C*%
X181987888Y-190068274D03*
D25*
X177259389Y-187338274D03*
%TO.P,D32,2*%
X180117273Y-188988274D03*
D26*
X175388774Y-186258274D03*
%TD*%
D14*
%TO.P,S21,1*%
%TO.N,N/C*%
X149250003Y-144249998D03*
X139250003Y-144249998D03*
%TO.P,S21,2*%
X144250003Y-142149998D03*
X144250003Y-142149998D03*
%TD*%
%TO.P,S30,1*%
%TO.N,N/C*%
X137328493Y-166270697D03*
X147242942Y-167575958D03*
%TO.P,S30,2*%
X142559823Y-164841293D03*
X142559823Y-164841293D03*
%TD*%
%TO.P,S16,1*%
%TO.N,N/C*%
X103250007Y-93250000D03*
X113250007Y-93250000D03*
%TO.P,S16,2*%
X108250007Y-91150000D03*
X108250007Y-91150000D03*
%TD*%
D10*
%TO.P,D18,1*%
%TO.N,N/C*%
X130060002Y-131800007D03*
D11*
X124600002Y-131800007D03*
D12*
%TO.P,D18,2*%
X122440002Y-131800007D03*
D11*
X127900002Y-131800007D03*
%TD*%
%TO.P,D6,1*%
%TO.N,N/C*%
X70600002Y-147270008D03*
D10*
X76060002Y-147270008D03*
D11*
%TO.P,D6,2*%
X73900002Y-147270008D03*
D12*
X68440002Y-147270008D03*
%TD*%
D11*
%TO.P,D9,1*%
%TO.N,N/C*%
X88600007Y-164270004D03*
D10*
X94060007Y-164270004D03*
D11*
%TO.P,D9,2*%
X91900007Y-164270004D03*
D12*
X86440007Y-164270004D03*
%TD*%
D14*
%TO.P,S7,1*%
%TO.N,N/C*%
X67250004Y-121469999D03*
X77250004Y-121469999D03*
%TO.P,S7,2*%
X72250004Y-119369999D03*
X72250004Y-119369999D03*
%TD*%
%TO.P,S15,1*%
%TO.N,N/C*%
X103250000Y-110249998D03*
X113250000Y-110249998D03*
%TO.P,S15,2*%
X108250000Y-108149998D03*
X108250000Y-108149998D03*
%TD*%
D11*
%TO.P,D11,1*%
%TO.N,N/C*%
X88599998Y-130270000D03*
D10*
X94059998Y-130270000D03*
D11*
%TO.P,D11,2*%
X91899998Y-130270000D03*
D12*
X86439998Y-130270000D03*
%TD*%
D14*
%TO.P,S4,1*%
%TO.N,N/C*%
X49250004Y-104470000D03*
X59250004Y-104470000D03*
%TO.P,S4,2*%
X54250004Y-102370000D03*
X54250004Y-102370000D03*
%TD*%
D10*
%TO.P,D8,1*%
%TO.N,N/C*%
X76060001Y-113270000D03*
D11*
X70600001Y-113270000D03*
D12*
%TO.P,D8,2*%
X68440001Y-113270000D03*
D11*
X73900001Y-113270000D03*
%TD*%
D14*
%TO.P,S18,1*%
%TO.N,N/C*%
X131249989Y-123000002D03*
X121249989Y-123000002D03*
%TO.P,S18,2*%
X126249989Y-120900002D03*
X126249989Y-120900002D03*
%TD*%
%TO.P,S25,1*%
%TO.N,N/C*%
X167249997Y-146800002D03*
X157249997Y-146800002D03*
%TO.P,S25,2*%
X162249997Y-144700002D03*
X162249997Y-144700002D03*
%TD*%
%TO.P,S12,1*%
%TO.N,N/C*%
X85249999Y-104470003D03*
X95249999Y-104470003D03*
%TO.P,S12,2*%
X90249999Y-102370003D03*
X90249999Y-102370003D03*
%TD*%
D13*
%TO.P,,*%
%TO.N,*%
X166091754Y-163060004D03*
%TD*%
%TO.P,,*%
%TO.N,*%
X106051752Y-163150006D03*
%TD*%
D14*
%TO.P,S11,1*%
%TO.N,N/C*%
X85249998Y-121470004D03*
X95249998Y-121470004D03*
%TO.P,S11,2*%
X90249998Y-119370004D03*
X90249998Y-119370004D03*
%TD*%
%TO.P,S32,1*%
%TO.N,N/C*%
X187418459Y-183042260D03*
X178758205Y-178042260D03*
%TO.P,S32,2*%
X184138332Y-178723607D03*
X184138332Y-178723607D03*
%TD*%
%TO.P,S14,1*%
%TO.N,N/C*%
X113249999Y-127250001D03*
X103249999Y-127250001D03*
%TO.P,S14,2*%
X108249999Y-125150001D03*
X108249999Y-125150001D03*
%TD*%
D10*
%TO.P,D25,1*%
%TO.N,N/C*%
X166059996Y-155600002D03*
D11*
X160599996Y-155600002D03*
D12*
%TO.P,D25,2*%
X158439996Y-155600002D03*
D11*
X163899996Y-155600002D03*
%TD*%
D10*
%TO.P,D10,1*%
%TO.N,N/C*%
X94060006Y-147270001D03*
D11*
X88600006Y-147270001D03*
D12*
%TO.P,D10,2*%
X86440006Y-147270001D03*
D11*
X91900006Y-147270001D03*
%TD*%
D10*
%TO.P,D15,1*%
%TO.N,N/C*%
X302762020Y-117956449D03*
D11*
X308222020Y-117956449D03*
D12*
%TO.P,D15,2*%
X310382020Y-117956449D03*
D11*
X304922020Y-117956449D03*
%TD*%
D14*
%TO.P,S19,1*%
%TO.N,N/C*%
X293572021Y-104906441D03*
X283572021Y-104906441D03*
%TO.P,S19,2*%
X288572021Y-102806441D03*
X288572021Y-102806441D03*
%TD*%
%TO.P,S15,1*%
%TO.N,N/C*%
X311572017Y-109156440D03*
X301572017Y-109156440D03*
%TO.P,S15,2*%
X306572017Y-107056440D03*
X306572017Y-107056440D03*
%TD*%
%TO.P,S26,1*%
%TO.N,N/C*%
X247572022Y-128706442D03*
X257572022Y-128706442D03*
%TO.P,S26,2*%
X252572022Y-126606442D03*
X252572022Y-126606442D03*
%TD*%
D10*
%TO.P,D10,1*%
%TO.N,N/C*%
X320762011Y-146176443D03*
D11*
X326222011Y-146176443D03*
D12*
%TO.P,D10,2*%
X328382011Y-146176443D03*
D11*
X322922011Y-146176443D03*
%TD*%
D14*
%TO.P,S33,1*%
%TO.N,N/C*%
X227924272Y-160550165D03*
X236987350Y-156323982D03*
%TO.P,S33,2*%
X231568312Y-156533827D03*
X231568312Y-156533827D03*
%TD*%
%TO.P,S17,1*%
%TO.N,N/C*%
X293572022Y-138906447D03*
X283572022Y-138906447D03*
%TO.P,S17,2*%
X288572022Y-136806447D03*
X288572022Y-136806447D03*
%TD*%
D11*
%TO.P,D13,1*%
%TO.N,N/C*%
X308222008Y-151956441D03*
D10*
X302762008Y-151956441D03*
D11*
%TO.P,D13,2*%
X304922008Y-151956441D03*
D12*
X310382008Y-151956441D03*
%TD*%
D13*
%TO.P,,*%
%TO.N,*%
X308770265Y-162056448D03*
%TD*%
D10*
%TO.P,D9,1*%
%TO.N,N/C*%
X320762010Y-163176446D03*
D11*
X326222010Y-163176446D03*
D12*
%TO.P,D9,2*%
X328382010Y-163176446D03*
D11*
X322922010Y-163176446D03*
%TD*%
D14*
%TO.P,S1,1*%
%TO.N,N/C*%
X355572018Y-154376436D03*
X365572018Y-154376436D03*
%TO.P,S1,2*%
X360572018Y-152276436D03*
X360572018Y-152276436D03*
%TD*%
D10*
%TO.P,D28,1*%
%TO.N,N/C*%
X248762008Y-103506451D03*
D11*
X254222008Y-103506451D03*
D12*
%TO.P,D28,2*%
X256382008Y-103506451D03*
D11*
X250922008Y-103506451D03*
%TD*%
%TO.P,D12,1*%
%TO.N,N/C*%
X326222008Y-112176449D03*
D10*
X320762008Y-112176449D03*
D12*
%TO.P,D12,2*%
X328382008Y-112176449D03*
D11*
X322922008Y-112176449D03*
%TD*%
D14*
%TO.P,S12,1*%
%TO.N,N/C*%
X319572018Y-103376445D03*
X329572018Y-103376445D03*
%TO.P,S12,2*%
X324572018Y-101276445D03*
X324572018Y-101276445D03*
%TD*%
D11*
%TO.P,D3,1*%
%TO.N,N/C*%
X362222024Y-129176444D03*
D10*
X356762024Y-129176444D03*
D12*
%TO.P,D3,2*%
X364382024Y-129176444D03*
D11*
X358922024Y-129176444D03*
%TD*%
D10*
%TO.P,D25,1*%
%TO.N,N/C*%
X248762021Y-154506444D03*
D11*
X254222021Y-154506444D03*
D12*
%TO.P,D25,2*%
X256382021Y-154506444D03*
D11*
X250922021Y-154506444D03*
%TD*%
D14*
%TO.P,S11,1*%
%TO.N,N/C*%
X319572019Y-120376446D03*
X329572019Y-120376446D03*
%TO.P,S11,2*%
X324572019Y-118276446D03*
X324572019Y-118276446D03*
%TD*%
%TO.P,S21,1*%
%TO.N,N/C*%
X275572014Y-143156440D03*
X265572014Y-143156440D03*
%TO.P,S21,2*%
X270572014Y-141056440D03*
X270572014Y-141056440D03*
%TD*%
D10*
%TO.P,D5,1*%
%TO.N,N/C*%
X338762009Y-163176445D03*
D11*
X344222009Y-163176445D03*
D12*
%TO.P,D5,2*%
X346382009Y-163176445D03*
D11*
X340922009Y-163176445D03*
%TD*%
%TO.P,D23,1*%
%TO.N,N/C*%
X272222015Y-117956442D03*
D10*
X266762015Y-117956442D03*
D11*
%TO.P,D23,2*%
X268922015Y-117956442D03*
D12*
X274382015Y-117956442D03*
%TD*%
D10*
%TO.P,D19,1*%
%TO.N,N/C*%
X284762019Y-113706446D03*
D11*
X290222019Y-113706446D03*
D12*
%TO.P,D19,2*%
X292382019Y-113706446D03*
D11*
X286922019Y-113706446D03*
%TD*%
%TO.P,D22,1*%
%TO.N,N/C*%
X272222021Y-134956445D03*
D10*
X266762021Y-134956445D03*
D11*
%TO.P,D22,2*%
X268922021Y-134956445D03*
D12*
X274382021Y-134956445D03*
%TD*%
D14*
%TO.P,S25,1*%
%TO.N,N/C*%
X247572020Y-145706444D03*
X257572020Y-145706444D03*
%TO.P,S25,2*%
X252572020Y-143606444D03*
X252572020Y-143606444D03*
%TD*%
D10*
%TO.P,D1,1*%
%TO.N,N/C*%
X356762010Y-163176444D03*
D11*
X362222010Y-163176444D03*
%TO.P,D1,2*%
X358922010Y-163176444D03*
D12*
X364382010Y-163176444D03*
%TD*%
D10*
%TO.P,D29,1*%
%TO.N,N/C*%
X289442015Y-173206442D03*
D11*
X294902015Y-173206442D03*
D12*
%TO.P,D29,2*%
X297062015Y-173206442D03*
D11*
X291602015Y-173206442D03*
%TD*%
D14*
%TO.P,S3,1*%
%TO.N,N/C*%
X365572015Y-120376440D03*
X355572015Y-120376440D03*
%TO.P,S3,2*%
X360572015Y-118276440D03*
X360572015Y-118276440D03*
%TD*%
D27*
%TO.P,D33,1*%
%TO.N,N/C*%
X237670265Y-165715261D03*
D10*
X232721824Y-168022757D03*
D28*
%TO.P,D33,2*%
X239627890Y-164802405D03*
D27*
X234679449Y-167109901D03*
%TD*%
D14*
%TO.P,S30,1*%
%TO.N,N/C*%
X277493524Y-165177139D03*
X267579075Y-166482400D03*
%TO.P,S30,2*%
X272262194Y-163747735D03*
X272262194Y-163747735D03*
%TD*%
%TO.P,S20,1*%
%TO.N,N/C*%
X283572011Y-87906447D03*
X293572011Y-87906447D03*
%TO.P,S20,2*%
X288572011Y-85806447D03*
X288572011Y-85806447D03*
%TD*%
%TO.P,S10,1*%
%TO.N,N/C*%
X319572021Y-137376449D03*
X329572021Y-137376449D03*
%TO.P,S10,2*%
X324572021Y-135276449D03*
X324572021Y-135276449D03*
%TD*%
%TO.P,S18,1*%
%TO.N,N/C*%
X283572028Y-121906444D03*
X293572028Y-121906444D03*
%TO.P,S18,2*%
X288572028Y-119806444D03*
X288572028Y-119806444D03*
%TD*%
%TO.P,S13,1*%
%TO.N,N/C*%
X301572020Y-143156444D03*
X311572020Y-143156444D03*
%TO.P,S13,2*%
X306572020Y-141056444D03*
X306572020Y-141056444D03*
%TD*%
D10*
%TO.P,D27,1*%
%TO.N,N/C*%
X248762013Y-120506447D03*
D11*
X254222013Y-120506447D03*
D12*
%TO.P,D27,2*%
X256382013Y-120506447D03*
D11*
X250922013Y-120506447D03*
%TD*%
D10*
%TO.P,D31,1*%
%TO.N,N/C*%
X250740206Y-180070599D03*
D29*
X255947501Y-178428745D03*
D30*
%TO.P,D31,2*%
X258007530Y-177779221D03*
D29*
X252800235Y-179421075D03*
%TD*%
D11*
%TO.P,D4,1*%
%TO.N,N/C*%
X362222016Y-112176443D03*
D10*
X356762016Y-112176443D03*
D11*
%TO.P,D4,2*%
X358922016Y-112176443D03*
D12*
X364382016Y-112176443D03*
%TD*%
D14*
%TO.P,S22,1*%
%TO.N,N/C*%
X275572016Y-126156447D03*
X265572016Y-126156447D03*
%TO.P,S22,2*%
X270572016Y-124056447D03*
X270572016Y-124056447D03*
%TD*%
D11*
%TO.P,D18,1*%
%TO.N,N/C*%
X290222015Y-130706449D03*
D10*
X284762015Y-130706449D03*
D12*
%TO.P,D18,2*%
X292382015Y-130706449D03*
D11*
X286922015Y-130706449D03*
%TD*%
%TO.P,D14,1*%
%TO.N,N/C*%
X308222017Y-134956444D03*
D10*
X302762017Y-134956444D03*
D11*
%TO.P,D14,2*%
X304922017Y-134956444D03*
D12*
X310382017Y-134956444D03*
%TD*%
D31*
%TO.P,D32,1*%
%TO.N,N/C*%
X237562628Y-186244716D03*
D10*
X232834129Y-188974716D03*
D31*
%TO.P,D32,2*%
X234704744Y-187894716D03*
D32*
X239433243Y-185164716D03*
%TD*%
D14*
%TO.P,S24,1*%
%TO.N,N/C*%
X275572025Y-92156449D03*
X265572025Y-92156449D03*
%TO.P,S24,2*%
X270572025Y-90056449D03*
X270572025Y-90056449D03*
%TD*%
%TO.P,S23,1*%
%TO.N,N/C*%
X275572011Y-109156446D03*
X265572011Y-109156446D03*
%TO.P,S23,2*%
X270572011Y-107056446D03*
X270572011Y-107056446D03*
%TD*%
D10*
%TO.P,D6,1*%
%TO.N,N/C*%
X338762015Y-146176450D03*
D11*
X344222015Y-146176450D03*
D12*
%TO.P,D6,2*%
X346382015Y-146176450D03*
D11*
X340922015Y-146176450D03*
%TD*%
D33*
%TO.P,D30,1*%
%TO.N,N/C*%
X275320824Y-174339118D03*
D10*
X269907535Y-175051791D03*
D33*
%TO.P,D30,2*%
X272049056Y-174769854D03*
D34*
X277462345Y-174057181D03*
%TD*%
D14*
%TO.P,S32,1*%
%TO.N,N/C*%
X227403558Y-181948702D03*
X236063812Y-176948702D03*
%TO.P,S32,2*%
X230683685Y-177630049D03*
X230683685Y-177630049D03*
%TD*%
%TO.P,S6,1*%
%TO.N,N/C*%
X347572021Y-137376441D03*
X337572021Y-137376441D03*
%TO.P,S6,2*%
X342572021Y-135276441D03*
X342572021Y-135276441D03*
%TD*%
D11*
%TO.P,D21,1*%
%TO.N,N/C*%
X272222022Y-151956445D03*
D10*
X266762022Y-151956445D03*
D11*
%TO.P,D21,2*%
X268922022Y-151956445D03*
D12*
X274382022Y-151956445D03*
%TD*%
D14*
%TO.P,S29,1*%
%TO.N,N/C*%
X298252017Y-164406446D03*
X288252017Y-164406446D03*
%TO.P,S29,2*%
X293252017Y-162306446D03*
X293252017Y-162306446D03*
%TD*%
%TO.P,S28,1*%
%TO.N,N/C*%
X247572008Y-94706441D03*
X257572008Y-94706441D03*
%TO.P,S28,2*%
X252572008Y-92606441D03*
X252572008Y-92606441D03*
%TD*%
D13*
%TO.P,,*%
%TO.N,*%
X351570265Y-115676447D03*
%TD*%
D14*
%TO.P,S16,1*%
%TO.N,N/C*%
X311572010Y-92156442D03*
X301572010Y-92156442D03*
%TO.P,S16,2*%
X306572010Y-90056442D03*
X306572010Y-90056442D03*
%TD*%
D13*
%TO.P,,*%
%TO.N,*%
X279570261Y-100196446D03*
%TD*%
D14*
%TO.P,S14,1*%
%TO.N,N/C*%
X301572018Y-126156443D03*
X311572018Y-126156443D03*
%TO.P,S14,2*%
X306572018Y-124056443D03*
X306572018Y-124056443D03*
%TD*%
%TO.P,S7,1*%
%TO.N,N/C*%
X337572013Y-120376441D03*
X347572013Y-120376441D03*
%TO.P,S7,2*%
X342572013Y-118276441D03*
X342572013Y-118276441D03*
%TD*%
D11*
%TO.P,D20,1*%
%TO.N,N/C*%
X290222020Y-96706442D03*
D10*
X284762020Y-96706442D03*
D12*
%TO.P,D20,2*%
X292382020Y-96706442D03*
D11*
X286922020Y-96706442D03*
%TD*%
D14*
%TO.P,S31,1*%
%TO.N,N/C*%
X256496244Y-169028677D03*
X246959074Y-172035735D03*
%TO.P,S31,2*%
X251096177Y-168529400D03*
X251096177Y-168529400D03*
%TD*%
D11*
%TO.P,D24,1*%
%TO.N,N/C*%
X272222011Y-100956437D03*
D10*
X266762011Y-100956437D03*
D12*
%TO.P,D24,2*%
X274382011Y-100956437D03*
D11*
X268922011Y-100956437D03*
%TD*%
D14*
%TO.P,S9,1*%
%TO.N,N/C*%
X329572016Y-154376446D03*
X319572016Y-154376446D03*
%TO.P,S9,2*%
X324572016Y-152276446D03*
X324572016Y-152276446D03*
%TD*%
D11*
%TO.P,D16,1*%
%TO.N,N/C*%
X308222021Y-100956440D03*
D10*
X302762021Y-100956440D03*
D12*
%TO.P,D16,2*%
X310382021Y-100956440D03*
D11*
X304922021Y-100956440D03*
%TD*%
D14*
%TO.P,S4,1*%
%TO.N,N/C*%
X355572013Y-103376442D03*
X365572013Y-103376442D03*
%TO.P,S4,2*%
X360572013Y-101276442D03*
X360572013Y-101276442D03*
%TD*%
%TO.P,S27,1*%
%TO.N,N/C*%
X247572019Y-111706438D03*
X257572019Y-111706438D03*
%TO.P,S27,2*%
X252572019Y-109606438D03*
X252572019Y-109606438D03*
%TD*%
D10*
%TO.P,D2,1*%
%TO.N,N/C*%
X356762013Y-146176440D03*
D11*
X362222013Y-146176440D03*
D12*
%TO.P,D2,2*%
X364382013Y-146176440D03*
D11*
X358922013Y-146176440D03*
%TD*%
D14*
%TO.P,S8,1*%
%TO.N,N/C*%
X347572016Y-103376445D03*
X337572016Y-103376445D03*
%TO.P,S8,2*%
X342572016Y-101276445D03*
X342572016Y-101276445D03*
%TD*%
D13*
%TO.P,,*%
%TO.N,*%
X315570000Y-121460000D03*
%TD*%
%TO.P,,*%
%TO.N,*%
X279570269Y-134206440D03*
%TD*%
%TO.P,,*%
%TO.N,*%
X248730263Y-161966446D03*
%TD*%
D14*
%TO.P,S2,1*%
%TO.N,N/C*%
X365572014Y-137376434D03*
X355572014Y-137376434D03*
%TO.P,S2,2*%
X360572014Y-135276434D03*
X360572014Y-135276434D03*
%TD*%
D10*
%TO.P,D26,1*%
%TO.N,N/C*%
X248762014Y-137506438D03*
D11*
X254222014Y-137506438D03*
%TO.P,D26,2*%
X250922014Y-137506438D03*
D12*
X256382014Y-137506438D03*
%TD*%
D10*
%TO.P,D17,1*%
%TO.N,N/C*%
X284762013Y-147706446D03*
D11*
X290222013Y-147706446D03*
%TO.P,D17,2*%
X286922013Y-147706446D03*
D12*
X292382013Y-147706446D03*
%TD*%
D10*
%TO.P,D7,1*%
%TO.N,N/C*%
X338762017Y-129176449D03*
D11*
X344222017Y-129176449D03*
%TO.P,D7,2*%
X340922017Y-129176449D03*
D12*
X346382017Y-129176449D03*
%TD*%
D10*
%TO.P,D11,1*%
%TO.N,N/C*%
X320762019Y-129176442D03*
D11*
X326222019Y-129176442D03*
D12*
%TO.P,D11,2*%
X328382019Y-129176442D03*
D11*
X322922019Y-129176442D03*
%TD*%
D10*
%TO.P,D8,1*%
%TO.N,N/C*%
X338762016Y-112176442D03*
D11*
X344222016Y-112176442D03*
%TO.P,D8,2*%
X340922016Y-112176442D03*
D12*
X346382016Y-112176442D03*
%TD*%
D14*
%TO.P,S5,1*%
%TO.N,N/C*%
X347572007Y-154376440D03*
X337572007Y-154376440D03*
%TO.P,S5,2*%
X342572007Y-152276440D03*
X342572007Y-152276440D03*
%TD*%
D13*
%TO.P,,*%
%TO.N,*%
X351570263Y-149676442D03*
%TD*%
D35*
%TO.N,*%
X187342017Y-124773558D03*
X177962017Y-118343558D03*
X188172017Y-123593558D03*
X184502017Y-131283558D03*
X184342017Y-122493558D03*
X241001478Y-128280000D03*
X185442017Y-132103558D03*
X177962017Y-120843558D03*
X245530000Y-142540000D03*
X232061478Y-116360000D03*
X187112017Y-148883558D03*
X228391478Y-118850000D03*
X192112017Y-127553558D03*
X231591478Y-128050000D03*
X185272017Y-119963558D03*
X185272017Y-123593558D03*
X232061478Y-113770000D03*
X184338465Y-117420006D03*
X243570000Y-142560000D03*
X186442017Y-133223558D03*
X169292017Y-143633558D03*
X171252017Y-143653558D03*
%TD*%
D36*
%TO.N,*%
X185272017Y-119963558D02*
X185275569Y-119960006D01*
D37*
X90249998Y-153370005D02*
X97401751Y-153370006D01*
X126250005Y-86900005D02*
X120321744Y-86899997D01*
D36*
X232061478Y-113770000D02*
X232045030Y-113786448D01*
D37*
X345600266Y-118276444D02*
X348520266Y-118276443D01*
D36*
X189522017Y-131163558D02*
X187112017Y-133573558D01*
X232027926Y-116326448D02*
X225172019Y-116326448D01*
D37*
X102721759Y-158690001D02*
X116860000Y-158690000D01*
D36*
X226481478Y-129270000D02*
X233871478Y-129270000D01*
X181555569Y-109800006D02*
X189689998Y-109800006D01*
D37*
X104281744Y-142149998D02*
X115791752Y-142150000D01*
X274690261Y-124056437D02*
X276520267Y-124056446D01*
X69411750Y-153370007D02*
X72250001Y-153370004D01*
X82191756Y-132349994D02*
X82191754Y-149330001D01*
X118161745Y-99900000D02*
X118161750Y-116850004D01*
X309516442Y-124056442D02*
X312526443Y-124056443D01*
X137524102Y-104127650D02*
X137521752Y-104130003D01*
X350580274Y-131246445D02*
X346550264Y-135276450D01*
X345410267Y-152276449D02*
X342572016Y-152276446D01*
X292660272Y-136806445D02*
X288572020Y-136806444D01*
X64421751Y-104270006D02*
X64421747Y-114570001D01*
D36*
X232891478Y-104880000D02*
X231637926Y-103626448D01*
X234011478Y-128840000D02*
X245530000Y-140358522D01*
D37*
X251096174Y-168529402D02*
X264179131Y-155446441D01*
X137511759Y-138170004D02*
X141491751Y-142150002D01*
X312526443Y-124056443D02*
X314590000Y-126120000D01*
D36*
X189522017Y-126953558D02*
X189522017Y-131163558D01*
D37*
X310540260Y-107056453D02*
X306572018Y-107056446D01*
X249420265Y-157486441D02*
X259310263Y-157486447D01*
D36*
X177962017Y-120843558D02*
X177312017Y-121493558D01*
D37*
X46281753Y-115279998D02*
X46281746Y-132350000D01*
D36*
X225651478Y-127790000D02*
X226701478Y-128840000D01*
D37*
X364450274Y-118276440D02*
X360572016Y-118276441D01*
X66301751Y-119370001D02*
X64241753Y-121430000D01*
D36*
X179402017Y-108573558D02*
X180715569Y-107260006D01*
D37*
X189689998Y-102180006D02*
X189689998Y-104720006D01*
X346550264Y-135276450D02*
X342572021Y-135276442D01*
X105100001Y-125150001D02*
X102219999Y-125150001D01*
X97401751Y-153370006D02*
X102721759Y-158690001D01*
X144249999Y-91150000D02*
X138341761Y-91150006D01*
X117191745Y-143550002D02*
X117191739Y-154810003D01*
X72250001Y-102370004D02*
X66321749Y-102370008D01*
X46281746Y-132350000D02*
X46281747Y-149349996D01*
X360572010Y-101276441D02*
X365368478Y-101276444D01*
X350580264Y-147106443D02*
X345410267Y-152276449D01*
X64241753Y-121430000D02*
X64241743Y-132340003D01*
D36*
X223151478Y-109440000D02*
X223885030Y-108706448D01*
D37*
X180996757Y-137449998D02*
X182365577Y-137449998D01*
X345600266Y-118276444D02*
X342572020Y-118276438D01*
X328590270Y-152276442D02*
X324572019Y-152276447D01*
D36*
X245530000Y-140358522D02*
X245530000Y-142540000D01*
D37*
X69221751Y-119370002D02*
X66301751Y-119370001D01*
X100251750Y-93200007D02*
X100251750Y-104119990D01*
X368540270Y-148256438D02*
X364520271Y-152276442D01*
X230683686Y-177630053D02*
X246290266Y-162023471D01*
X120321744Y-86899997D02*
X118161753Y-89060004D01*
X332630259Y-114246449D02*
X328600265Y-118276444D01*
D36*
X177312017Y-121493558D02*
X177312017Y-124873558D01*
X240412019Y-124534683D02*
X240412019Y-123946448D01*
X243571478Y-138970000D02*
X243571478Y-142558522D01*
X227371478Y-123580000D02*
X225651478Y-125300000D01*
X228375030Y-118866448D02*
X225172019Y-118866448D01*
D37*
X180996757Y-150149998D02*
X184445577Y-150149998D01*
D36*
X231151478Y-142760000D02*
X231151478Y-131670000D01*
D37*
X273330266Y-141056444D02*
X270572017Y-141056443D01*
X314570267Y-119002617D02*
X309516442Y-124056442D01*
X256580265Y-109606444D02*
X252572016Y-109606443D01*
D36*
X231701478Y-131310000D02*
X231711478Y-131300000D01*
X223151478Y-128380000D02*
X223151478Y-109440000D01*
D37*
X54250007Y-102369999D02*
X49453539Y-102370002D01*
X276520267Y-124056446D02*
X277297922Y-124834092D01*
X189689998Y-104720006D02*
X191208465Y-104720006D01*
X314570267Y-103026432D02*
X310540260Y-107056453D01*
X296660272Y-98806442D02*
X296660267Y-115756446D01*
X299030265Y-141056442D02*
X297630272Y-142456444D01*
X137451749Y-156540001D02*
X135261750Y-154350004D01*
X314570267Y-103026432D02*
X314570267Y-119002617D01*
X158281746Y-144699998D02*
X162249995Y-144700001D01*
X138301750Y-125150004D02*
X137524095Y-125927650D01*
X260580269Y-122576445D02*
X260580265Y-139566447D01*
X297962017Y-157596442D02*
X293252018Y-162306437D01*
X50301746Y-153370000D02*
X54250005Y-153369996D01*
X183132017Y-136683558D02*
X184502017Y-135313558D01*
X82191754Y-149330001D02*
X86231747Y-153370000D01*
X108250005Y-91150004D02*
X102301741Y-91150001D01*
D36*
X243571478Y-142558522D02*
X243570000Y-142560000D01*
D37*
X50371743Y-119369998D02*
X54250001Y-119369999D01*
X154241750Y-95790001D02*
X154241754Y-106700000D01*
X281130267Y-136796445D02*
X281140264Y-136806440D01*
X122211753Y-120900006D02*
X126249990Y-120899998D01*
D36*
X232880266Y-126986436D02*
X232880266Y-104891212D01*
D37*
X317420266Y-152276448D02*
X312100258Y-157596443D01*
D36*
X185275569Y-119960006D02*
X189689998Y-119960006D01*
D37*
X342572016Y-101276446D02*
X348500268Y-101276450D01*
X192112017Y-105623558D02*
X192112017Y-127553558D01*
X281140264Y-136806440D02*
X288572020Y-136806444D01*
D36*
X222671478Y-107360000D02*
X223865030Y-106166448D01*
D37*
X140131756Y-125149995D02*
X138301750Y-125150004D01*
X153401759Y-143870003D02*
X151681753Y-142149997D01*
X136121760Y-105530009D02*
X136121745Y-121140006D01*
X296660267Y-115756446D02*
X296660271Y-132806439D01*
X364520269Y-135276443D02*
X360572018Y-135276440D01*
X256550267Y-126606448D02*
X252572025Y-126606445D01*
X348520266Y-118276443D02*
X350580264Y-120336442D01*
X46281754Y-104360005D02*
X46281753Y-115279998D01*
X364520271Y-152276442D02*
X360572012Y-152276438D01*
X170326323Y-144700008D02*
X183253714Y-157627382D01*
X260580263Y-105606442D02*
X256580265Y-109606444D01*
X309516442Y-124056442D02*
X306572015Y-124056441D01*
D36*
X228391478Y-118850000D02*
X228375030Y-118866448D01*
X241001478Y-128280000D02*
X231821478Y-128280000D01*
D37*
X259310263Y-157486447D02*
X261420268Y-155376442D01*
D36*
X180292017Y-111063558D02*
X181555569Y-109800006D01*
D37*
X187149998Y-99640006D02*
X189689998Y-102180006D01*
X162249995Y-144700001D02*
X170326323Y-144700008D01*
X368540271Y-131256442D02*
X368540270Y-148256438D01*
D36*
X222671478Y-128680000D02*
X222671478Y-107360000D01*
D37*
X133681753Y-137899998D02*
X126249997Y-137900002D01*
X100251750Y-104119990D02*
X104281757Y-108150011D01*
X154241748Y-123670003D02*
X154241752Y-140660005D01*
X273280271Y-107056439D02*
X270572017Y-107056447D01*
X158241752Y-110700002D02*
X162250001Y-110700001D01*
X296660264Y-87966446D02*
X296660272Y-98806442D01*
D36*
X188172017Y-123593558D02*
X185272017Y-123593558D01*
D37*
X246290264Y-160616437D02*
X249420265Y-157486441D01*
X154241752Y-140660005D02*
X158281746Y-144699998D01*
X186442017Y-148153558D02*
X186442017Y-133223558D01*
X332630261Y-131256436D02*
X328610271Y-135276439D01*
X137524099Y-138157648D02*
X137511759Y-138170004D01*
X252572014Y-92606443D02*
X258450274Y-92606446D01*
X191208465Y-104720006D02*
X192112017Y-105623558D01*
D36*
X179401751Y-128079994D02*
X180292017Y-127189728D01*
D37*
X260580263Y-105606442D02*
X260580269Y-122576445D01*
X118161745Y-99900000D02*
X122161754Y-103900001D01*
D36*
X187342017Y-124773558D02*
X189522017Y-126953558D01*
X237960266Y-126986436D02*
X240412019Y-124534683D01*
D37*
X258470269Y-92586444D02*
X260580267Y-94696443D01*
X314590000Y-126120000D02*
X314590000Y-137006710D01*
X156351748Y-93680002D02*
X154241750Y-95790001D01*
D36*
X230161478Y-129770000D02*
X224541478Y-129770000D01*
D37*
X154241748Y-123670003D02*
X158271750Y-127700006D01*
D36*
X233871478Y-129270000D02*
X243571478Y-138970000D01*
D37*
X292610264Y-119806448D02*
X288572027Y-119806440D01*
D36*
X235420266Y-104901212D02*
X236695030Y-103626448D01*
D37*
X348500268Y-101276450D02*
X350400266Y-103176448D01*
X135261750Y-154350004D02*
X135261739Y-139460005D01*
X151681753Y-142149997D02*
X144250000Y-142150001D01*
D36*
X232061478Y-116360000D02*
X232027926Y-116326448D01*
D37*
X136121745Y-121140006D02*
X140131756Y-125149995D01*
D36*
X184348465Y-122500006D02*
X189689998Y-122500006D01*
D37*
X162250003Y-93700001D02*
X156371743Y-93700004D01*
X278700257Y-104436451D02*
X278700272Y-120046448D01*
X168531753Y-161709995D02*
X165401752Y-158579999D01*
X154241754Y-106700000D02*
X154241748Y-123670003D01*
X278383486Y-157626444D02*
X272262204Y-163747733D01*
X185442017Y-136713558D02*
X185442017Y-132103558D01*
X158271750Y-127700006D02*
X162249992Y-127700003D01*
X277297922Y-90874097D02*
X277297915Y-103034092D01*
X256540271Y-143606440D02*
X252572022Y-143606443D01*
X277300265Y-103036445D02*
X278700257Y-104436451D01*
X116860000Y-158690000D02*
X121569999Y-163399995D01*
X49443536Y-102359995D02*
X48281753Y-102359993D01*
D36*
X176482017Y-119823558D02*
X176482017Y-125033558D01*
D37*
X102301741Y-91150001D02*
X100251750Y-93200007D01*
X64241753Y-148200001D02*
X69411750Y-153370007D01*
X100251746Y-127118254D02*
X100251746Y-138119997D01*
X260580265Y-139566447D02*
X256540271Y-143606440D01*
X332630269Y-103416451D02*
X332630259Y-114246449D01*
D36*
X237872019Y-98546448D02*
X240412019Y-101086448D01*
X231637926Y-103626448D02*
X225172019Y-103626448D01*
D37*
X183122017Y-139033558D02*
X185442017Y-136713558D01*
X82191756Y-132349994D02*
X86211746Y-136369997D01*
X244495694Y-143606450D02*
X231568303Y-156533824D01*
D36*
X233825260Y-141436440D02*
X232527918Y-141436440D01*
D37*
X278700272Y-120046448D02*
X274690261Y-124056437D01*
D36*
X224281478Y-130290000D02*
X222671478Y-128680000D01*
D37*
X102219999Y-125150001D02*
X100251746Y-127118254D01*
D36*
X225172019Y-98546448D02*
X237872019Y-98546448D01*
D37*
X279560267Y-153256446D02*
X279560278Y-138366447D01*
X100251746Y-138119997D02*
X104281744Y-142149998D01*
X49453539Y-102370002D02*
X49443536Y-102359995D01*
X118161746Y-133899997D02*
X122161745Y-137900003D01*
X82191758Y-115340007D02*
X82191756Y-132349994D01*
D36*
X180292017Y-127189728D02*
X180292017Y-111063558D01*
D37*
X274690261Y-124056437D02*
X270572017Y-124056447D01*
D36*
X229771478Y-130290000D02*
X224281478Y-130290000D01*
X227371478Y-122340000D02*
X227371478Y-123580000D01*
D37*
X117191739Y-154810003D02*
X121101755Y-158720001D01*
D36*
X223865030Y-106166448D02*
X225172019Y-106166448D01*
D37*
X277370268Y-155446443D02*
X279560267Y-153256446D01*
X155511754Y-158580005D02*
X153401749Y-156470000D01*
X350580264Y-120336442D02*
X350580274Y-131246445D01*
X118161750Y-116850004D02*
X122211753Y-120900006D01*
D36*
X232527918Y-141436440D02*
X231701478Y-140610000D01*
X169292017Y-132223558D02*
X169292017Y-143633558D01*
D37*
X182365577Y-137449998D02*
X183132017Y-136683558D01*
D36*
X177312017Y-124873558D02*
X171252017Y-130933558D01*
D37*
X135261739Y-139460005D02*
X133691750Y-137890003D01*
X330490269Y-101276437D02*
X332630269Y-103416451D01*
X324572019Y-152276447D02*
X317420266Y-152276448D01*
X138341761Y-91150006D02*
X137524095Y-91967655D01*
X270572018Y-90056442D02*
X276480256Y-90056448D01*
X122161745Y-137900003D02*
X126249997Y-137900002D01*
X82191758Y-115340007D02*
X86221752Y-119370002D01*
X312520276Y-90056443D02*
X314570267Y-92106449D01*
X324572021Y-101276440D02*
X330490269Y-101276437D01*
X252572022Y-143606443D02*
X244495694Y-143606450D01*
D36*
X176861751Y-128079994D02*
X179402017Y-125539728D01*
X176482017Y-125033558D02*
X169292017Y-132223558D01*
D37*
X154241754Y-106700000D02*
X158241752Y-110700002D01*
X261420268Y-155376442D02*
X261420258Y-142776445D01*
X279560278Y-138366447D02*
X281130267Y-136796445D01*
X121101755Y-158720001D02*
X136438531Y-158720002D01*
X174449998Y-99640006D02*
X187149998Y-99640006D01*
X115791752Y-142150000D02*
X117191745Y-143550002D01*
X182165577Y-139989998D02*
X183122017Y-139033558D01*
D36*
X232045030Y-113786448D02*
X225172019Y-113786448D01*
D37*
X156371743Y-93700004D02*
X156351748Y-93680002D01*
X332630261Y-131256436D02*
X332630263Y-148236443D01*
X69221751Y-119370002D02*
X72249997Y-119369996D01*
D36*
X177962017Y-118343558D02*
X176482017Y-119823558D01*
D37*
X150642886Y-156539999D02*
X137451749Y-156540001D01*
X365378481Y-101266437D02*
X366540264Y-101266435D01*
X368540264Y-114186440D02*
X368540271Y-131256442D01*
X260580269Y-122576445D02*
X256550267Y-126606448D01*
X86231747Y-153370000D02*
X90249998Y-153370005D01*
X104281757Y-108150011D02*
X108249999Y-108150004D01*
X163725843Y-169622960D02*
X150642886Y-156539999D01*
X312100258Y-157596443D02*
X297962017Y-157596442D01*
D36*
X225151478Y-127940000D02*
X225151478Y-125820000D01*
X231151478Y-131670000D02*
X229771478Y-130290000D01*
D37*
X277297918Y-137064090D02*
X277310258Y-137076446D01*
X350580274Y-131246445D02*
X350580264Y-147106443D01*
X136438531Y-158720002D02*
X142559813Y-164841291D01*
X46281753Y-115279998D02*
X50371743Y-119369998D01*
X297630278Y-153716445D02*
X293720262Y-157626443D01*
D36*
X236695030Y-103626448D02*
X240412019Y-103626448D01*
D37*
X350400266Y-103176448D02*
X350400270Y-113476443D01*
X82191748Y-104510009D02*
X82191758Y-115340007D01*
D36*
X225151478Y-125820000D02*
X225172019Y-125799459D01*
X226437926Y-121406448D02*
X227371478Y-122340000D01*
X225172019Y-121406448D02*
X226437926Y-121406448D01*
D37*
X350400270Y-113476443D02*
X345600266Y-118276444D01*
X263140264Y-141056439D02*
X270572017Y-141056443D01*
X165401752Y-158579999D02*
X155511754Y-158580005D01*
D36*
X225172019Y-125799459D02*
X225172019Y-123946448D01*
D37*
X105100001Y-125150001D02*
X108250002Y-125149999D01*
X314590000Y-137006710D02*
X310540273Y-141056440D01*
X168531751Y-163117029D02*
X168531753Y-161709995D01*
X277297922Y-124834092D02*
X277297918Y-137064090D01*
X186442017Y-130040260D02*
X184481751Y-128079994D01*
X296660267Y-115756446D02*
X292610264Y-119806448D01*
X258450274Y-92606446D02*
X258470269Y-92586444D01*
X306572012Y-90056446D02*
X312520276Y-90056443D01*
X261420258Y-142776445D02*
X263140264Y-141056439D01*
X64241743Y-132340003D02*
X68271753Y-136370008D01*
X186442017Y-133223558D02*
X186442017Y-130040260D01*
X184502017Y-135313558D02*
X184502017Y-131283558D01*
X100251750Y-120301750D02*
X105100001Y-125150001D01*
X141491751Y-142150002D02*
X144250000Y-142150001D01*
X137524095Y-125927650D02*
X137524099Y-138157648D01*
D36*
X180715569Y-107260006D02*
X189689998Y-107260006D01*
D37*
X332630259Y-114246449D02*
X332630261Y-131256436D01*
D36*
X171252017Y-130933558D02*
X171252017Y-143653558D01*
X235420266Y-126986436D02*
X235420266Y-104901212D01*
D37*
X332630263Y-148236443D02*
X328590270Y-152276442D01*
X246290266Y-162023471D02*
X246290264Y-160616437D01*
X293720262Y-157626443D02*
X278383486Y-157626444D01*
X137521752Y-104130003D02*
X141541746Y-108149997D01*
D36*
X225651478Y-125300000D02*
X225651478Y-127790000D01*
D37*
X366540264Y-101266435D02*
X368540263Y-103266447D01*
X184138331Y-178723611D02*
X168531751Y-163117029D01*
X368540263Y-103266447D02*
X368540264Y-114186440D01*
X86211746Y-136369997D02*
X90250004Y-136370003D01*
D36*
X184338465Y-117420006D02*
X189689998Y-117420006D01*
D37*
X328600265Y-118276444D02*
X324572021Y-118276443D01*
X64241743Y-132340003D02*
X64241753Y-148200001D01*
X84331748Y-102369995D02*
X82191748Y-104510009D01*
X184445577Y-150149998D02*
X186442017Y-148153558D01*
X118161753Y-89060004D02*
X118161745Y-99900000D01*
D36*
X187112017Y-133573558D02*
X187112017Y-148883558D01*
D37*
X292660263Y-102806443D02*
X288572019Y-102806438D01*
X66321749Y-102370008D02*
X64421751Y-104270006D01*
X277300265Y-103036445D02*
X273280271Y-107056439D01*
X140131756Y-125149995D02*
X144250000Y-125150005D01*
X365368478Y-101276444D02*
X365378481Y-101266437D01*
X118161750Y-116850004D02*
X118161746Y-133899997D01*
X133691750Y-137890003D02*
X133681753Y-137899998D01*
D36*
X226481478Y-129270000D02*
X225151478Y-127940000D01*
D37*
X48281753Y-102359993D02*
X46281754Y-104360005D01*
X90249996Y-102369998D02*
X84331748Y-102369995D01*
X314570267Y-92106449D02*
X314570267Y-103026432D01*
X46281746Y-132350000D02*
X50301748Y-136370001D01*
X277310258Y-137076446D02*
X273330266Y-141056444D01*
X137521752Y-104130003D02*
X136121760Y-105530009D01*
X276480256Y-90056448D02*
X277297922Y-90874097D01*
X294500273Y-85806439D02*
X296660264Y-87966446D01*
D36*
X240412019Y-101086448D02*
X240412019Y-103626448D01*
D37*
X368540271Y-131256442D02*
X364520269Y-135276443D01*
X260580267Y-94696443D02*
X260580263Y-105606442D01*
D36*
X224541478Y-129770000D02*
X223151478Y-128380000D01*
X231821478Y-128280000D02*
X231591478Y-128050000D01*
D37*
X180996757Y-139989998D02*
X182165577Y-139989998D01*
D36*
X226701478Y-128840000D02*
X234011478Y-128840000D01*
X231701478Y-140610000D02*
X231701478Y-131310000D01*
X223885030Y-108706448D02*
X225172019Y-108706448D01*
D37*
X153401749Y-156470000D02*
X153401759Y-143870003D01*
X137524095Y-91967655D02*
X137524102Y-104127650D01*
X141541746Y-108149997D02*
X144250000Y-108150005D01*
X368540264Y-114186440D02*
X364450274Y-118276440D01*
D36*
X184342017Y-122493558D02*
X184348465Y-122500006D01*
X232367918Y-143976440D02*
X231151478Y-142760000D01*
D37*
X64421747Y-114570001D02*
X69221751Y-119370002D01*
X122161754Y-103900001D02*
X126249998Y-103899996D01*
X297630272Y-142456444D02*
X297630278Y-153716445D01*
X288572012Y-85806447D02*
X294500273Y-85806439D01*
X68271753Y-136370008D02*
X72249996Y-136370000D01*
X100251750Y-104119990D02*
X100251750Y-120301750D01*
X86221752Y-119370002D02*
X90249996Y-119370001D01*
X328610271Y-135276439D02*
X324572013Y-135276445D01*
D36*
X179402017Y-125539728D02*
X179402017Y-108573558D01*
D37*
X46281747Y-149349996D02*
X50301746Y-153370000D01*
D36*
X233825260Y-143976440D02*
X232367918Y-143976440D01*
D37*
X264179131Y-155446441D02*
X277370268Y-155446443D01*
X296660271Y-132806439D02*
X292660272Y-136806445D01*
X277297915Y-103034092D02*
X277300265Y-103036445D01*
X50301748Y-136370001D02*
X54249999Y-136369998D01*
D36*
X231701478Y-131310000D02*
X230161478Y-129770000D01*
D37*
X310540273Y-141056440D02*
X299030265Y-141056442D01*
X296660272Y-98806442D02*
X292660263Y-102806443D01*
%TD*%
M02*
