%TF.GenerationSoftware,KiCad,Pcbnew,6.0.9*%
%TF.CreationDate,2022-10-31T19:27:22+01:00*%
%TF.ProjectId,neok(both),6e656f6b-2862-46f7-9468-292e6b696361,v1.0.0*%
%TF.SameCoordinates,Original*%
%TF.FileFunction,Profile,NP*%
%FSLAX46Y46*%
G04 Gerber Fmt 4.6, Leading zero omitted, Abs format (unit mm)*
G04 Created by KiCad (PCBNEW 6.0.9) date 2022-10-31 19:27:22*
%MOMM*%
%LPD*%
G01*
G04 APERTURE LIST*
%TA.AperFunction,Profile*%
%ADD10C,0.150000*%
%TD*%
G04 APERTURE END LIST*
D10*
X193095946Y-181208565D02*
G75*
G03*
X193229867Y-180698723I-865546J499865D01*
G01*
X108310990Y-173106245D02*
X111835987Y-176934786D01*
X278572009Y-87456438D02*
X262572018Y-87456445D01*
X116250003Y-88549994D02*
G75*
G03*
X117249994Y-87550000I-3J999994D01*
G01*
X117249996Y-85299996D02*
X117249994Y-87550000D01*
X135249999Y-87550003D02*
X135249996Y-85300006D01*
X46250000Y-99769999D02*
X98250001Y-99770006D01*
X97563338Y-167796763D02*
X100947778Y-168595857D01*
X46250003Y-167770005D02*
X97333552Y-167770000D01*
X152249999Y-88550003D02*
X136250008Y-88549996D01*
X306643859Y-171892160D02*
G75*
G03*
X306511027Y-172012687I602741J-797740D01*
G01*
X302986030Y-175841228D02*
X306511027Y-172012687D01*
X101144984Y-168664856D02*
G75*
G03*
X100947778Y-168595857I-426984J-904044D01*
G01*
X246790661Y-184985737D02*
X265005226Y-179242705D01*
X302986029Y-175841227D02*
G75*
G03*
X302958652Y-175872218I742371J-683373D01*
G01*
X313874239Y-167502299D02*
X317258679Y-166703205D01*
X99249996Y-89549998D02*
X99250000Y-98770010D01*
X168230653Y-186166990D02*
X183866531Y-195194367D01*
X302551577Y-176352787D02*
X302958652Y-175872218D01*
X230955486Y-194100809D02*
X246591364Y-185073432D01*
X221726079Y-180115002D02*
X229589459Y-193734781D01*
X315571956Y-88456440D02*
G75*
G03*
X314572017Y-87456444I-1000056J-60D01*
G01*
X297572023Y-86456442D02*
X297572021Y-84206438D01*
X192850001Y-92099997D02*
G75*
G03*
X191849999Y-91099999I-999901J97D01*
G01*
X221592150Y-179605165D02*
X221971973Y-141011361D01*
X111863365Y-176965776D02*
X112270440Y-177446345D01*
X192850044Y-142104919D02*
X193229867Y-180698723D01*
X315571952Y-97676452D02*
G75*
G03*
X316572016Y-98676448I1000048J52D01*
G01*
X222972018Y-90006422D02*
G75*
G03*
X221972022Y-91006439I-118J-999878D01*
G01*
X168230658Y-186166981D02*
G75*
G03*
X168031356Y-186079294I-499658J-865319D01*
G01*
X279572021Y-84206448D02*
X279572018Y-86456445D01*
X134249996Y-84300007D02*
X118249992Y-84300007D01*
X100250000Y-88549996D02*
G75*
G03*
X99249996Y-89549998I100J-1000104D01*
G01*
X101144986Y-168664852D02*
X104556591Y-170275892D01*
X306643861Y-171892162D02*
X310089603Y-169288710D01*
X46250000Y-99770001D02*
G75*
G03*
X45250001Y-100770001I100J-1000099D01*
G01*
X296572025Y-83206449D02*
X280572021Y-83206449D01*
X153249995Y-90100006D02*
X153250000Y-89549999D01*
X310265422Y-169182326D02*
G75*
G03*
X310089603Y-169288710I426878J-903974D01*
G01*
X192849995Y-92099997D02*
X192850004Y-142095075D01*
X316572016Y-98676448D02*
X368572017Y-98676441D01*
X130733296Y-177808557D02*
X149646617Y-180298540D01*
X368572014Y-166676414D02*
G75*
G03*
X369572014Y-165676438I86J999914D01*
G01*
X278572009Y-87456418D02*
G75*
G03*
X279572018Y-86456445I91J999918D01*
G01*
X45249995Y-166769996D02*
G75*
G03*
X46250003Y-167770005I999905J-104D01*
G01*
X45250003Y-166769996D02*
X45250001Y-100770001D01*
X297571957Y-86456442D02*
G75*
G03*
X298572014Y-87456443I1000043J42D01*
G01*
X222972018Y-90006441D02*
X260572021Y-90006442D01*
X116250003Y-88550001D02*
X100250000Y-88550002D01*
X284219247Y-176706437D02*
G75*
G03*
X284088721Y-176714999I53J-999963D01*
G01*
X221592162Y-179605165D02*
G75*
G03*
X221726079Y-180115002I999638J-9935D01*
G01*
X153250000Y-90100006D02*
G75*
G03*
X154249996Y-91100000I999900J-94D01*
G01*
X153249997Y-89549999D02*
G75*
G03*
X152249999Y-88550003I-999797J199D01*
G01*
X183866536Y-195194359D02*
G75*
G03*
X185232557Y-194828341I499964J866159D01*
G01*
X301788535Y-176706481D02*
G75*
G03*
X302551577Y-176352787I65J999781D01*
G01*
X149816793Y-180336256D02*
G75*
G03*
X149646618Y-180298538I-300793J-954344D01*
G01*
X221971973Y-141011361D02*
G75*
G03*
X221972013Y-141001517I-757073J7961D01*
G01*
X154249996Y-91100000D02*
X191849999Y-91099999D01*
X317488465Y-166676446D02*
G75*
G03*
X317258679Y-166703205I135J-1001154D01*
G01*
X97563340Y-167796755D02*
G75*
G03*
X97333552Y-167770000I-229640J-972145D01*
G01*
X135250004Y-87550003D02*
G75*
G03*
X136250008Y-88549996I999896J-97D01*
G01*
X297572051Y-84206438D02*
G75*
G03*
X296572025Y-83206449I-1000151J-162D01*
G01*
X313874240Y-167502303D02*
G75*
G03*
X313677031Y-167571294I229860J-973397D01*
G01*
X221972013Y-141001517D02*
X221972022Y-91006439D01*
X369572059Y-99676443D02*
G75*
G03*
X368572017Y-98676441I-999959J43D01*
G01*
X265175399Y-179204977D02*
G75*
G03*
X265005226Y-179242705I130801J-992623D01*
G01*
X260572021Y-90006422D02*
G75*
G03*
X261572022Y-89006448I79J999922D01*
G01*
X369572016Y-99676443D02*
X369572014Y-165676438D01*
X108310995Y-173106240D02*
G75*
G03*
X108178156Y-172985720I-735095J-676760D01*
G01*
X112270439Y-177446346D02*
G75*
G03*
X113033482Y-177800007I762961J646146D01*
G01*
X111863364Y-176965777D02*
G75*
G03*
X111835987Y-176934786I-777564J-659323D01*
G01*
X314572017Y-87456444D02*
X298572014Y-87456443D01*
X185232558Y-194828339D02*
X193095938Y-181208560D01*
X104732417Y-170382265D02*
G75*
G03*
X104556591Y-170275892I-603317J-798735D01*
G01*
X261572017Y-88456441D02*
X261572022Y-89006448D01*
X130733296Y-177808555D02*
G75*
G03*
X130602770Y-177799998I-130596J-992345D01*
G01*
X262572018Y-87456517D02*
G75*
G03*
X261572017Y-88456441I82J-1000083D01*
G01*
X310265426Y-169182334D02*
X313677031Y-167571294D01*
X284219246Y-176706439D02*
X301788532Y-176706448D01*
X104732414Y-170382268D02*
X108178156Y-172985720D01*
X118249992Y-84299996D02*
G75*
G03*
X117249996Y-85299996I108J-1000104D01*
G01*
X229589482Y-193734770D02*
G75*
G03*
X230955486Y-194100809I866018J499970D01*
G01*
X192850004Y-142095075D02*
G75*
G03*
X192850044Y-142104919I757096J-1825D01*
G01*
X149816791Y-180336263D02*
X168031356Y-186079295D01*
X280572021Y-83206521D02*
G75*
G03*
X279572021Y-84206448I79J-1000079D01*
G01*
X113033485Y-177800006D02*
X130602771Y-177799997D01*
X135249993Y-85300006D02*
G75*
G03*
X134249996Y-84300007I-999793J206D01*
G01*
X265175400Y-179204982D02*
X284088721Y-176714999D01*
X246790663Y-184985741D02*
G75*
G03*
X246591364Y-185073432I300137J-952459D01*
G01*
X317488465Y-166676442D02*
X368572014Y-166676447D01*
X98250001Y-99770000D02*
G75*
G03*
X99250000Y-98770010I-1J1000000D01*
G01*
X315572017Y-97676452D02*
X315572021Y-88456440D01*
M02*
