%TF.GenerationSoftware,KiCad,Pcbnew,6.0.9*%
%TF.CreationDate,2022-10-31T19:27:22+01:00*%
%TF.ProjectId,neok(both),6e656f6b-2862-46f7-9468-292e6b696361,v1.0.0*%
%TF.SameCoordinates,Original*%
%TF.FileFunction,Copper,L1,Top*%
%TF.FilePolarity,Positive*%
%FSLAX46Y46*%
G04 Gerber Fmt 4.6, Leading zero omitted, Abs format (unit mm)*
G04 Created by KiCad (PCBNEW 6.0.9) date 2022-10-31 19:27:22*
%MOMM*%
%LPD*%
G01*
G04 APERTURE LIST*
G04 Aperture macros list*
%AMRotRect*
0 Rectangle, with rotation*
0 The origin of the aperture is its center*
0 $1 length*
0 $2 width*
0 $3 Rotation angle, in degrees counterclockwise*
0 Add horizontal line*
21,1,$1,$2,0,0,$3*%
G04 Aperture macros list end*
%TA.AperFunction,ComponentPad*%
%ADD10C,1.905000*%
%TD*%
%TA.AperFunction,SMDPad,CuDef*%
%ADD11R,0.900000X1.200000*%
%TD*%
%TA.AperFunction,ComponentPad*%
%ADD12R,1.778000X1.778000*%
%TD*%
%TA.AperFunction,ComponentPad*%
%ADD13C,3.200000*%
%TD*%
%TA.AperFunction,ComponentPad*%
%ADD14C,2.032000*%
%TD*%
%TA.AperFunction,SMDPad,CuDef*%
%ADD15RotRect,0.900000X1.200000X342.500000*%
%TD*%
%TA.AperFunction,ComponentPad*%
%ADD16RotRect,1.778000X1.778000X342.500000*%
%TD*%
%TA.AperFunction,ComponentPad*%
%ADD17R,1.752600X1.752600*%
%TD*%
%TA.AperFunction,ComponentPad*%
%ADD18C,1.752600*%
%TD*%
%TA.AperFunction,ComponentPad*%
%ADD19C,1.700000*%
%TD*%
%TA.AperFunction,ComponentPad*%
%ADD20C,1.930400*%
%TD*%
%TA.AperFunction,SMDPad,CuDef*%
%ADD21RotRect,0.900000X1.200000X352.500000*%
%TD*%
%TA.AperFunction,ComponentPad*%
%ADD22RotRect,1.778000X1.778000X352.500000*%
%TD*%
%TA.AperFunction,SMDPad,CuDef*%
%ADD23RotRect,0.900000X1.200000X335.000000*%
%TD*%
%TA.AperFunction,ComponentPad*%
%ADD24RotRect,1.778000X1.778000X335.000000*%
%TD*%
%TA.AperFunction,SMDPad,CuDef*%
%ADD25RotRect,0.900000X1.200000X330.000000*%
%TD*%
%TA.AperFunction,ComponentPad*%
%ADD26RotRect,1.778000X1.778000X330.000000*%
%TD*%
%TA.AperFunction,SMDPad,CuDef*%
%ADD27RotRect,0.900000X1.200000X205.000000*%
%TD*%
%TA.AperFunction,ComponentPad*%
%ADD28RotRect,1.778000X1.778000X205.000000*%
%TD*%
%TA.AperFunction,SMDPad,CuDef*%
%ADD29RotRect,0.900000X1.200000X197.500000*%
%TD*%
%TA.AperFunction,ComponentPad*%
%ADD30RotRect,1.778000X1.778000X197.500000*%
%TD*%
%TA.AperFunction,SMDPad,CuDef*%
%ADD31RotRect,0.900000X1.200000X210.000000*%
%TD*%
%TA.AperFunction,ComponentPad*%
%ADD32RotRect,1.778000X1.778000X210.000000*%
%TD*%
%TA.AperFunction,SMDPad,CuDef*%
%ADD33RotRect,0.900000X1.200000X187.500000*%
%TD*%
%TA.AperFunction,ComponentPad*%
%ADD34RotRect,1.778000X1.778000X187.500000*%
%TD*%
%TA.AperFunction,ViaPad*%
%ADD35C,0.800000*%
%TD*%
%TA.AperFunction,Conductor*%
%ADD36C,0.250000*%
%TD*%
%TA.AperFunction,Conductor*%
%ADD37C,0.200000*%
%TD*%
G04 APERTURE END LIST*
D10*
%TO.P,D17,1*%
%TO.N,N/C*%
X130060004Y-148800004D03*
D11*
X124600004Y-148800004D03*
%TO.P,D17,2*%
X127900004Y-148800004D03*
D12*
X122440004Y-148800004D03*
%TD*%
D11*
%TO.P,D3,1*%
%TO.N,N/C*%
X52599993Y-130270002D03*
D10*
X58059993Y-130270002D03*
D11*
%TO.P,D3,2*%
X55899993Y-130270002D03*
D12*
X50439993Y-130270002D03*
%TD*%
D13*
%TO.P,,*%
%TO.N,*%
X99252017Y-122553558D03*
%TD*%
D14*
%TO.P,S17,1*%
%TO.N,N/C*%
X131249995Y-140000005D03*
X121249995Y-140000005D03*
%TO.P,S17,2*%
X126249995Y-137900005D03*
X126249995Y-137900005D03*
%TD*%
D10*
%TO.P,D20,1*%
%TO.N,N/C*%
X130059997Y-97800000D03*
D11*
X124599997Y-97800000D03*
%TO.P,D20,2*%
X127899997Y-97800000D03*
D12*
X122439997Y-97800000D03*
%TD*%
D15*
%TO.P,D31,1*%
%TO.N,N/C*%
X158874516Y-179522303D03*
D10*
X164081811Y-181164157D03*
D16*
%TO.P,D31,2*%
X156814487Y-178872779D03*
D15*
X162021782Y-180514633D03*
%TD*%
D13*
%TO.P,,*%
%TO.N,*%
X63251752Y-116770005D03*
%TD*%
D11*
%TO.P,D29,1*%
%TO.N,N/C*%
X119920002Y-174300000D03*
D10*
X125380002Y-174300000D03*
D11*
%TO.P,D29,2*%
X123220002Y-174300000D03*
D12*
X117760002Y-174300000D03*
%TD*%
D14*
%TO.P,S10,1*%
%TO.N,N/C*%
X95249996Y-138470007D03*
X85249996Y-138470007D03*
%TO.P,S10,2*%
X90249996Y-136370007D03*
X90249996Y-136370007D03*
%TD*%
%TO.P,S22,1*%
%TO.N,N/C*%
X149250001Y-127250005D03*
X139250001Y-127250005D03*
%TO.P,S22,2*%
X144250001Y-125150005D03*
X144250001Y-125150005D03*
%TD*%
D10*
%TO.P,D26,1*%
%TO.N,N/C*%
X166060003Y-138599996D03*
D11*
X160600003Y-138599996D03*
%TO.P,D26,2*%
X163900003Y-138599996D03*
D12*
X158440003Y-138599996D03*
%TD*%
D14*
%TO.P,S19,1*%
%TO.N,N/C*%
X131249996Y-105999999D03*
X121249996Y-105999999D03*
%TO.P,S19,2*%
X126249996Y-103899999D03*
X126249996Y-103899999D03*
%TD*%
D13*
%TO.P,,*%
%TO.N,*%
X63251754Y-150770000D03*
%TD*%
D14*
%TO.P,S9,1*%
%TO.N,N/C*%
X85250001Y-155470004D03*
X95250001Y-155470004D03*
%TO.P,S9,2*%
X90250001Y-153370004D03*
X90250001Y-153370004D03*
%TD*%
%TO.P,S27,1*%
%TO.N,N/C*%
X157249998Y-112799996D03*
X167249998Y-112799996D03*
%TO.P,S27,2*%
X162249998Y-110699996D03*
X162249998Y-110699996D03*
%TD*%
D10*
%TO.P,D4,1*%
%TO.N,N/C*%
X58060001Y-113270001D03*
D11*
X52600001Y-113270001D03*
D12*
%TO.P,D4,2*%
X50440001Y-113270001D03*
D11*
X55900001Y-113270001D03*
%TD*%
D14*
%TO.P,S1,1*%
%TO.N,N/C*%
X59249999Y-155469994D03*
X49249999Y-155469994D03*
%TO.P,S1,2*%
X54249999Y-153369994D03*
X54249999Y-153369994D03*
%TD*%
D11*
%TO.P,D12,1*%
%TO.N,N/C*%
X88600009Y-113270007D03*
D10*
X94060009Y-113270007D03*
D11*
%TO.P,D12,2*%
X91900009Y-113270007D03*
D12*
X86440009Y-113270007D03*
%TD*%
D14*
%TO.P,S2,1*%
%TO.N,N/C*%
X59250003Y-138469992D03*
X49250003Y-138469992D03*
%TO.P,S2,2*%
X54250003Y-136369992D03*
X54250003Y-136369992D03*
%TD*%
D11*
%TO.P,D5,1*%
%TO.N,N/C*%
X70600008Y-164270003D03*
D10*
X76060008Y-164270003D03*
D12*
%TO.P,D5,2*%
X68440008Y-164270003D03*
D11*
X73900008Y-164270003D03*
%TD*%
D10*
%TO.P,D7,1*%
%TO.N,N/C*%
X76060000Y-130270007D03*
D11*
X70600000Y-130270007D03*
%TO.P,D7,2*%
X73900000Y-130270007D03*
D12*
X68440000Y-130270007D03*
%TD*%
D11*
%TO.P,D13,1*%
%TO.N,N/C*%
X106600009Y-153049999D03*
D10*
X112060009Y-153049999D03*
D12*
%TO.P,D13,2*%
X104440009Y-153049999D03*
D11*
X109900009Y-153049999D03*
%TD*%
D17*
%TO.P,MCU1,1*%
%TO.N,N/C*%
X174449998Y-97100006D03*
D18*
%TO.P,MCU1,2*%
X174449998Y-99640006D03*
%TO.P,MCU1,3*%
X174449998Y-102180006D03*
%TO.P,MCU1,4*%
X174449998Y-104720006D03*
%TO.P,MCU1,5*%
X174449998Y-107260006D03*
%TO.P,MCU1,6*%
X174449998Y-109800006D03*
%TO.P,MCU1,7*%
X174449998Y-112340006D03*
%TO.P,MCU1,8*%
X174449998Y-114880006D03*
%TO.P,MCU1,9*%
X174449998Y-117420006D03*
%TO.P,MCU1,10*%
X174449998Y-119960006D03*
%TO.P,MCU1,11*%
X174449998Y-122500006D03*
%TO.P,MCU1,12*%
X174449998Y-125040006D03*
%TO.P,MCU1,13*%
X189689998Y-97100006D03*
%TO.P,MCU1,14*%
X189689998Y-99640006D03*
%TO.P,MCU1,15*%
X189689998Y-102180006D03*
%TO.P,MCU1,16*%
X189689998Y-104720006D03*
%TO.P,MCU1,17*%
X189689998Y-107260006D03*
%TO.P,MCU1,18*%
X189689998Y-109800006D03*
%TO.P,MCU1,19*%
X189689998Y-112340006D03*
%TO.P,MCU1,20*%
X189689998Y-114880006D03*
%TO.P,MCU1,21*%
X189689998Y-117420006D03*
%TO.P,MCU1,22*%
X189689998Y-119960006D03*
%TO.P,MCU1,23*%
X189689998Y-122500006D03*
%TO.P,MCU1,24*%
X189689998Y-125040006D03*
%TD*%
D14*
%TO.P,S5,1*%
%TO.N,N/C*%
X77250010Y-155469998D03*
X67250010Y-155469998D03*
%TO.P,S5,2*%
X72250010Y-153369998D03*
X72250010Y-153369998D03*
%TD*%
D11*
%TO.P,D23,1*%
%TO.N,N/C*%
X142600002Y-119050000D03*
D10*
X148060002Y-119050000D03*
D12*
%TO.P,D23,2*%
X140440002Y-119050000D03*
D11*
X145900002Y-119050000D03*
%TD*%
%TO.P,D1,1*%
%TO.N,N/C*%
X52600007Y-164270002D03*
D10*
X58060007Y-164270002D03*
D12*
%TO.P,D1,2*%
X50440007Y-164270002D03*
D11*
X55900007Y-164270002D03*
%TD*%
%TO.P,D24,1*%
%TO.N,N/C*%
X142600006Y-102049995D03*
D10*
X148060006Y-102049995D03*
D11*
%TO.P,D24,2*%
X145900006Y-102049995D03*
D12*
X140440006Y-102049995D03*
%TD*%
D14*
%TO.P,S33,1*%
%TO.N,N/C*%
X186897745Y-161643723D03*
X177834667Y-157417540D03*
%TO.P,S33,2*%
X183253705Y-157627385D03*
X183253705Y-157627385D03*
%TD*%
D11*
%TO.P,D16,1*%
%TO.N,N/C*%
X106599996Y-102049998D03*
D10*
X112059996Y-102049998D03*
D11*
%TO.P,D16,2*%
X109899996Y-102049998D03*
D12*
X104439996Y-102049998D03*
%TD*%
D10*
%TO.P,D28,1*%
%TO.N,N/C*%
X166060009Y-104600009D03*
D11*
X160600009Y-104600009D03*
D12*
%TO.P,D28,2*%
X158440009Y-104600009D03*
D11*
X163900009Y-104600009D03*
%TD*%
D19*
%TO.P,REF\u002A\u002A,1*%
%TO.N,N/C*%
X187021751Y-128079994D03*
%TO.P,REF\u002A\u002A,2*%
X184481751Y-128079994D03*
%TO.P,REF\u002A\u002A,3*%
X181941751Y-128079994D03*
%TO.P,REF\u002A\u002A,4*%
X179401751Y-128079994D03*
%TO.P,REF\u002A\u002A,5*%
X176861751Y-128079994D03*
%TD*%
D14*
%TO.P,S31,1*%
%TO.N,N/C*%
X158325773Y-170122235D03*
X167862943Y-173129293D03*
%TO.P,S31,2*%
X163725840Y-169622958D03*
X163725840Y-169622958D03*
%TD*%
%TO.P,S13,1*%
%TO.N,N/C*%
X103249997Y-144250002D03*
X113249997Y-144250002D03*
%TO.P,S13,2*%
X108249997Y-142150002D03*
X108249997Y-142150002D03*
%TD*%
D13*
%TO.P,REF\u002A\u002A,*%
%TO.N,*%
X189886757Y-133639998D03*
X189886757Y-148879998D03*
D20*
%TO.P,REF\u002A\u002A,1*%
%TO.N,N/C*%
X180996757Y-150149998D03*
%TO.P,REF\u002A\u002A,2*%
X180996757Y-147609998D03*
%TO.P,REF\u002A\u002A,3*%
X180996757Y-145069998D03*
%TO.P,REF\u002A\u002A,4*%
X180996757Y-142529998D03*
%TO.P,REF\u002A\u002A,5*%
X180996757Y-139989998D03*
%TO.P,REF\u002A\u002A,6*%
X180996757Y-137449998D03*
%TO.P,REF\u002A\u002A,7*%
X180996757Y-134909998D03*
%TO.P,REF\u002A\u002A,8*%
X180996757Y-132369998D03*
%TD*%
D10*
%TO.P,D22,1*%
%TO.N,N/C*%
X148059996Y-136050003D03*
D11*
X142599996Y-136050003D03*
D12*
%TO.P,D22,2*%
X140439996Y-136050003D03*
D11*
X145899996Y-136050003D03*
%TD*%
D21*
%TO.P,D30,1*%
%TO.N,N/C*%
X139501193Y-175432676D03*
D10*
X144914482Y-176145349D03*
D22*
%TO.P,D30,2*%
X137359672Y-175150739D03*
D21*
X142772961Y-175863412D03*
%TD*%
D13*
%TO.P,,*%
%TO.N,*%
X135251748Y-135299998D03*
%TD*%
D10*
%TO.P,D2,1*%
%TO.N,N/C*%
X58060004Y-147269998D03*
D11*
X52600004Y-147269998D03*
D12*
%TO.P,D2,2*%
X50440004Y-147269998D03*
D11*
X55900004Y-147269998D03*
%TD*%
D10*
%TO.P,D33,1*%
%TO.N,N/C*%
X182100193Y-169116315D03*
D23*
X177151752Y-166808819D03*
D24*
%TO.P,D33,2*%
X175194127Y-165895963D03*
D23*
X180142568Y-168203459D03*
%TD*%
D14*
%TO.P,S26,1*%
%TO.N,N/C*%
X167249995Y-129800000D03*
X157249995Y-129800000D03*
%TO.P,S26,2*%
X162249995Y-127700000D03*
X162249995Y-127700000D03*
%TD*%
D11*
%TO.P,D27,1*%
%TO.N,N/C*%
X160600004Y-121600005D03*
D10*
X166060004Y-121600005D03*
D12*
%TO.P,D27,2*%
X158440004Y-121600005D03*
D11*
X163900004Y-121600005D03*
%TD*%
%TO.P,D21,1*%
%TO.N,N/C*%
X142599995Y-153050003D03*
D10*
X148059995Y-153050003D03*
D12*
%TO.P,D21,2*%
X140439995Y-153050003D03*
D11*
X145899995Y-153050003D03*
%TD*%
D14*
%TO.P,S3,1*%
%TO.N,N/C*%
X59250002Y-121469998D03*
X49250002Y-121469998D03*
%TO.P,S3,2*%
X54250002Y-119369998D03*
X54250002Y-119369998D03*
%TD*%
%TO.P,S6,1*%
%TO.N,N/C*%
X77249996Y-138469999D03*
X67249996Y-138469999D03*
%TO.P,S6,2*%
X72249996Y-136369999D03*
X72249996Y-136369999D03*
%TD*%
%TO.P,S28,1*%
%TO.N,N/C*%
X167250009Y-95799999D03*
X157250009Y-95799999D03*
%TO.P,S28,2*%
X162250009Y-93699999D03*
X162250009Y-93699999D03*
%TD*%
%TO.P,S29,1*%
%TO.N,N/C*%
X116570000Y-165500004D03*
X126570000Y-165500004D03*
%TO.P,S29,2*%
X121570000Y-163400004D03*
X121570000Y-163400004D03*
%TD*%
%TO.P,S20,1*%
%TO.N,N/C*%
X131250006Y-89000005D03*
X121250006Y-89000005D03*
%TO.P,S20,2*%
X126250006Y-86900005D03*
X126250006Y-86900005D03*
%TD*%
D17*
%TO.P,MCU1,1*%
%TO.N,N/C*%
X225172019Y-96006448D03*
D18*
%TO.P,MCU1,2*%
X225172019Y-98546448D03*
%TO.P,MCU1,3*%
X225172019Y-101086448D03*
%TO.P,MCU1,4*%
X225172019Y-103626448D03*
%TO.P,MCU1,5*%
X225172019Y-106166448D03*
%TO.P,MCU1,6*%
X225172019Y-108706448D03*
%TO.P,MCU1,7*%
X225172019Y-111246448D03*
%TO.P,MCU1,8*%
X225172019Y-113786448D03*
%TO.P,MCU1,9*%
X225172019Y-116326448D03*
%TO.P,MCU1,10*%
X225172019Y-118866448D03*
%TO.P,MCU1,11*%
X225172019Y-121406448D03*
%TO.P,MCU1,12*%
X225172019Y-123946448D03*
%TO.P,MCU1,13*%
X240412019Y-96006448D03*
%TO.P,MCU1,14*%
X240412019Y-98546448D03*
%TO.P,MCU1,15*%
X240412019Y-101086448D03*
%TO.P,MCU1,16*%
X240412019Y-103626448D03*
%TO.P,MCU1,17*%
X240412019Y-106166448D03*
%TO.P,MCU1,18*%
X240412019Y-108706448D03*
%TO.P,MCU1,19*%
X240412019Y-111246448D03*
%TO.P,MCU1,20*%
X240412019Y-113786448D03*
%TO.P,MCU1,21*%
X240412019Y-116326448D03*
%TO.P,MCU1,22*%
X240412019Y-118866448D03*
%TO.P,MCU1,23*%
X240412019Y-121406448D03*
%TO.P,MCU1,24*%
X240412019Y-123946448D03*
%TD*%
D13*
%TO.P,,*%
%TO.N,*%
X135251756Y-101290004D03*
%TD*%
D14*
%TO.P,S24,1*%
%TO.N,N/C*%
X139249992Y-93250007D03*
X149249992Y-93250007D03*
%TO.P,S24,2*%
X144249992Y-91150007D03*
X144249992Y-91150007D03*
%TD*%
D13*
%TO.P,REF\u002A\u002A,*%
%TO.N,*%
X224935260Y-147786440D03*
X224935260Y-132546440D03*
D20*
%TO.P,REF\u002A\u002A,1*%
%TO.N,N/C*%
X233825260Y-131276440D03*
%TO.P,REF\u002A\u002A,2*%
X233825260Y-133816440D03*
%TO.P,REF\u002A\u002A,3*%
X233825260Y-136356440D03*
%TO.P,REF\u002A\u002A,4*%
X233825260Y-138896440D03*
%TO.P,REF\u002A\u002A,5*%
X233825260Y-141436440D03*
%TO.P,REF\u002A\u002A,6*%
X233825260Y-143976440D03*
%TO.P,REF\u002A\u002A,7*%
X233825260Y-146516440D03*
%TO.P,REF\u002A\u002A,8*%
X233825260Y-149056440D03*
%TD*%
D14*
%TO.P,S23,1*%
%TO.N,N/C*%
X149250006Y-110250004D03*
X139250006Y-110250004D03*
%TO.P,S23,2*%
X144250006Y-108150004D03*
X144250006Y-108150004D03*
%TD*%
D10*
%TO.P,D19,1*%
%TO.N,N/C*%
X130059998Y-114800004D03*
D11*
X124599998Y-114800004D03*
%TO.P,D19,2*%
X127899998Y-114800004D03*
D12*
X122439998Y-114800004D03*
%TD*%
D14*
%TO.P,S8,1*%
%TO.N,N/C*%
X77250001Y-104470003D03*
X67250001Y-104470003D03*
%TO.P,S8,2*%
X72250001Y-102370003D03*
X72250001Y-102370003D03*
%TD*%
D10*
%TO.P,D14,1*%
%TO.N,N/C*%
X112060000Y-136050002D03*
D11*
X106600000Y-136050002D03*
D12*
%TO.P,D14,2*%
X104440000Y-136050002D03*
D11*
X109900000Y-136050002D03*
%TD*%
%TO.P,D15,1*%
%TO.N,N/C*%
X106599997Y-119050007D03*
D10*
X112059997Y-119050007D03*
D11*
%TO.P,D15,2*%
X109899997Y-119050007D03*
D12*
X104439997Y-119050007D03*
%TD*%
D19*
%TO.P,REF\u002A\u002A,1*%
%TO.N,N/C*%
X237960266Y-126986436D03*
%TO.P,REF\u002A\u002A,2*%
X235420266Y-126986436D03*
%TO.P,REF\u002A\u002A,3*%
X232880266Y-126986436D03*
%TO.P,REF\u002A\u002A,4*%
X230340266Y-126986436D03*
%TO.P,REF\u002A\u002A,5*%
X227800266Y-126986436D03*
%TD*%
D10*
%TO.P,D32,1*%
%TO.N,N/C*%
X181987888Y-190068274D03*
D25*
X177259389Y-187338274D03*
%TO.P,D32,2*%
X180117273Y-188988274D03*
D26*
X175388774Y-186258274D03*
%TD*%
D14*
%TO.P,S21,1*%
%TO.N,N/C*%
X149250003Y-144249998D03*
X139250003Y-144249998D03*
%TO.P,S21,2*%
X144250003Y-142149998D03*
X144250003Y-142149998D03*
%TD*%
%TO.P,S30,1*%
%TO.N,N/C*%
X137328493Y-166270697D03*
X147242942Y-167575958D03*
%TO.P,S30,2*%
X142559823Y-164841293D03*
X142559823Y-164841293D03*
%TD*%
%TO.P,S16,1*%
%TO.N,N/C*%
X103250007Y-93250000D03*
X113250007Y-93250000D03*
%TO.P,S16,2*%
X108250007Y-91150000D03*
X108250007Y-91150000D03*
%TD*%
D10*
%TO.P,D18,1*%
%TO.N,N/C*%
X130060002Y-131800007D03*
D11*
X124600002Y-131800007D03*
%TO.P,D18,2*%
X127900002Y-131800007D03*
D12*
X122440002Y-131800007D03*
%TD*%
D11*
%TO.P,D6,1*%
%TO.N,N/C*%
X70600002Y-147270008D03*
D10*
X76060002Y-147270008D03*
D11*
%TO.P,D6,2*%
X73900002Y-147270008D03*
D12*
X68440002Y-147270008D03*
%TD*%
D11*
%TO.P,D9,1*%
%TO.N,N/C*%
X88600007Y-164270004D03*
D10*
X94060007Y-164270004D03*
D11*
%TO.P,D9,2*%
X91900007Y-164270004D03*
D12*
X86440007Y-164270004D03*
%TD*%
D14*
%TO.P,S7,1*%
%TO.N,N/C*%
X67250004Y-121469999D03*
X77250004Y-121469999D03*
%TO.P,S7,2*%
X72250004Y-119369999D03*
X72250004Y-119369999D03*
%TD*%
%TO.P,S15,1*%
%TO.N,N/C*%
X103250000Y-110249998D03*
X113250000Y-110249998D03*
%TO.P,S15,2*%
X108250000Y-108149998D03*
X108250000Y-108149998D03*
%TD*%
D11*
%TO.P,D11,1*%
%TO.N,N/C*%
X88599998Y-130270000D03*
D10*
X94059998Y-130270000D03*
D12*
%TO.P,D11,2*%
X86439998Y-130270000D03*
D11*
X91899998Y-130270000D03*
%TD*%
D14*
%TO.P,S4,1*%
%TO.N,N/C*%
X49250004Y-104470000D03*
X59250004Y-104470000D03*
%TO.P,S4,2*%
X54250004Y-102370000D03*
X54250004Y-102370000D03*
%TD*%
D10*
%TO.P,D8,1*%
%TO.N,N/C*%
X76060001Y-113270000D03*
D11*
X70600001Y-113270000D03*
%TO.P,D8,2*%
X73900001Y-113270000D03*
D12*
X68440001Y-113270000D03*
%TD*%
D14*
%TO.P,S18,1*%
%TO.N,N/C*%
X131249989Y-123000002D03*
X121249989Y-123000002D03*
%TO.P,S18,2*%
X126249989Y-120900002D03*
X126249989Y-120900002D03*
%TD*%
%TO.P,S25,1*%
%TO.N,N/C*%
X167249997Y-146800002D03*
X157249997Y-146800002D03*
%TO.P,S25,2*%
X162249997Y-144700002D03*
X162249997Y-144700002D03*
%TD*%
%TO.P,S12,1*%
%TO.N,N/C*%
X85249999Y-104470003D03*
X95249999Y-104470003D03*
%TO.P,S12,2*%
X90249999Y-102370003D03*
X90249999Y-102370003D03*
%TD*%
D13*
%TO.P,,*%
%TO.N,*%
X166091754Y-163060004D03*
%TD*%
%TO.P,,*%
%TO.N,*%
X106051752Y-163150006D03*
%TD*%
D14*
%TO.P,S11,1*%
%TO.N,N/C*%
X85249998Y-121470004D03*
X95249998Y-121470004D03*
%TO.P,S11,2*%
X90249998Y-119370004D03*
X90249998Y-119370004D03*
%TD*%
%TO.P,S32,1*%
%TO.N,N/C*%
X187418459Y-183042260D03*
X178758205Y-178042260D03*
%TO.P,S32,2*%
X184138332Y-178723607D03*
X184138332Y-178723607D03*
%TD*%
%TO.P,S14,1*%
%TO.N,N/C*%
X113249999Y-127250001D03*
X103249999Y-127250001D03*
%TO.P,S14,2*%
X108249999Y-125150001D03*
X108249999Y-125150001D03*
%TD*%
D11*
%TO.P,D25,1*%
%TO.N,N/C*%
X160599996Y-155600002D03*
D10*
X166059996Y-155600002D03*
D12*
%TO.P,D25,2*%
X158439996Y-155600002D03*
D11*
X163899996Y-155600002D03*
%TD*%
%TO.P,D10,1*%
%TO.N,N/C*%
X88600006Y-147270001D03*
D10*
X94060006Y-147270001D03*
D12*
%TO.P,D10,2*%
X86440006Y-147270001D03*
D11*
X91900006Y-147270001D03*
%TD*%
D10*
%TO.P,D15,1*%
%TO.N,N/C*%
X302762020Y-117956449D03*
D11*
X308222020Y-117956449D03*
D12*
%TO.P,D15,2*%
X310382020Y-117956449D03*
D11*
X304922020Y-117956449D03*
%TD*%
D14*
%TO.P,S19,1*%
%TO.N,N/C*%
X293572021Y-104906441D03*
X283572021Y-104906441D03*
%TO.P,S19,2*%
X288572021Y-102806441D03*
X288572021Y-102806441D03*
%TD*%
%TO.P,S15,1*%
%TO.N,N/C*%
X311572017Y-109156440D03*
X301572017Y-109156440D03*
%TO.P,S15,2*%
X306572017Y-107056440D03*
X306572017Y-107056440D03*
%TD*%
%TO.P,S26,1*%
%TO.N,N/C*%
X247572022Y-128706442D03*
X257572022Y-128706442D03*
%TO.P,S26,2*%
X252572022Y-126606442D03*
X252572022Y-126606442D03*
%TD*%
D10*
%TO.P,D10,1*%
%TO.N,N/C*%
X320762011Y-146176443D03*
D11*
X326222011Y-146176443D03*
%TO.P,D10,2*%
X322922011Y-146176443D03*
D12*
X328382011Y-146176443D03*
%TD*%
D14*
%TO.P,S33,1*%
%TO.N,N/C*%
X227924272Y-160550165D03*
X236987350Y-156323982D03*
%TO.P,S33,2*%
X231568312Y-156533827D03*
X231568312Y-156533827D03*
%TD*%
%TO.P,S17,1*%
%TO.N,N/C*%
X293572022Y-138906447D03*
X283572022Y-138906447D03*
%TO.P,S17,2*%
X288572022Y-136806447D03*
X288572022Y-136806447D03*
%TD*%
D10*
%TO.P,D13,1*%
%TO.N,N/C*%
X302762008Y-151956441D03*
D11*
X308222008Y-151956441D03*
%TO.P,D13,2*%
X304922008Y-151956441D03*
D12*
X310382008Y-151956441D03*
%TD*%
D13*
%TO.P,,*%
%TO.N,*%
X308770265Y-162056448D03*
%TD*%
D10*
%TO.P,D9,1*%
%TO.N,N/C*%
X320762010Y-163176446D03*
D11*
X326222010Y-163176446D03*
%TO.P,D9,2*%
X322922010Y-163176446D03*
D12*
X328382010Y-163176446D03*
%TD*%
D14*
%TO.P,S1,1*%
%TO.N,N/C*%
X355572018Y-154376436D03*
X365572018Y-154376436D03*
%TO.P,S1,2*%
X360572018Y-152276436D03*
X360572018Y-152276436D03*
%TD*%
D10*
%TO.P,D28,1*%
%TO.N,N/C*%
X248762008Y-103506451D03*
D11*
X254222008Y-103506451D03*
%TO.P,D28,2*%
X250922008Y-103506451D03*
D12*
X256382008Y-103506451D03*
%TD*%
D11*
%TO.P,D12,1*%
%TO.N,N/C*%
X326222008Y-112176449D03*
D10*
X320762008Y-112176449D03*
D12*
%TO.P,D12,2*%
X328382008Y-112176449D03*
D11*
X322922008Y-112176449D03*
%TD*%
D14*
%TO.P,S12,1*%
%TO.N,N/C*%
X319572018Y-103376445D03*
X329572018Y-103376445D03*
%TO.P,S12,2*%
X324572018Y-101276445D03*
X324572018Y-101276445D03*
%TD*%
D11*
%TO.P,D3,1*%
%TO.N,N/C*%
X362222024Y-129176444D03*
D10*
X356762024Y-129176444D03*
D11*
%TO.P,D3,2*%
X358922024Y-129176444D03*
D12*
X364382024Y-129176444D03*
%TD*%
D11*
%TO.P,D25,1*%
%TO.N,N/C*%
X254222021Y-154506444D03*
D10*
X248762021Y-154506444D03*
D12*
%TO.P,D25,2*%
X256382021Y-154506444D03*
D11*
X250922021Y-154506444D03*
%TD*%
D14*
%TO.P,S11,1*%
%TO.N,N/C*%
X319572019Y-120376446D03*
X329572019Y-120376446D03*
%TO.P,S11,2*%
X324572019Y-118276446D03*
X324572019Y-118276446D03*
%TD*%
%TO.P,S21,1*%
%TO.N,N/C*%
X275572014Y-143156440D03*
X265572014Y-143156440D03*
%TO.P,S21,2*%
X270572014Y-141056440D03*
X270572014Y-141056440D03*
%TD*%
D11*
%TO.P,D5,1*%
%TO.N,N/C*%
X344222009Y-163176445D03*
D10*
X338762009Y-163176445D03*
D12*
%TO.P,D5,2*%
X346382009Y-163176445D03*
D11*
X340922009Y-163176445D03*
%TD*%
%TO.P,D23,1*%
%TO.N,N/C*%
X272222015Y-117956442D03*
D10*
X266762015Y-117956442D03*
D11*
%TO.P,D23,2*%
X268922015Y-117956442D03*
D12*
X274382015Y-117956442D03*
%TD*%
D10*
%TO.P,D19,1*%
%TO.N,N/C*%
X284762019Y-113706446D03*
D11*
X290222019Y-113706446D03*
D12*
%TO.P,D19,2*%
X292382019Y-113706446D03*
D11*
X286922019Y-113706446D03*
%TD*%
%TO.P,D22,1*%
%TO.N,N/C*%
X272222021Y-134956445D03*
D10*
X266762021Y-134956445D03*
D12*
%TO.P,D22,2*%
X274382021Y-134956445D03*
D11*
X268922021Y-134956445D03*
%TD*%
D14*
%TO.P,S25,1*%
%TO.N,N/C*%
X247572020Y-145706444D03*
X257572020Y-145706444D03*
%TO.P,S25,2*%
X252572020Y-143606444D03*
X252572020Y-143606444D03*
%TD*%
D11*
%TO.P,D1,1*%
%TO.N,N/C*%
X362222010Y-163176444D03*
D10*
X356762010Y-163176444D03*
D12*
%TO.P,D1,2*%
X364382010Y-163176444D03*
D11*
X358922010Y-163176444D03*
%TD*%
D10*
%TO.P,D29,1*%
%TO.N,N/C*%
X289442015Y-173206442D03*
D11*
X294902015Y-173206442D03*
D12*
%TO.P,D29,2*%
X297062015Y-173206442D03*
D11*
X291602015Y-173206442D03*
%TD*%
D14*
%TO.P,S3,1*%
%TO.N,N/C*%
X365572015Y-120376440D03*
X355572015Y-120376440D03*
%TO.P,S3,2*%
X360572015Y-118276440D03*
X360572015Y-118276440D03*
%TD*%
D27*
%TO.P,D33,1*%
%TO.N,N/C*%
X237670265Y-165715261D03*
D10*
X232721824Y-168022757D03*
D27*
%TO.P,D33,2*%
X234679449Y-167109901D03*
D28*
X239627890Y-164802405D03*
%TD*%
D14*
%TO.P,S30,1*%
%TO.N,N/C*%
X277493524Y-165177139D03*
X267579075Y-166482400D03*
%TO.P,S30,2*%
X272262194Y-163747735D03*
X272262194Y-163747735D03*
%TD*%
%TO.P,S20,1*%
%TO.N,N/C*%
X283572011Y-87906447D03*
X293572011Y-87906447D03*
%TO.P,S20,2*%
X288572011Y-85806447D03*
X288572011Y-85806447D03*
%TD*%
%TO.P,S10,1*%
%TO.N,N/C*%
X319572021Y-137376449D03*
X329572021Y-137376449D03*
%TO.P,S10,2*%
X324572021Y-135276449D03*
X324572021Y-135276449D03*
%TD*%
%TO.P,S18,1*%
%TO.N,N/C*%
X283572028Y-121906444D03*
X293572028Y-121906444D03*
%TO.P,S18,2*%
X288572028Y-119806444D03*
X288572028Y-119806444D03*
%TD*%
%TO.P,S13,1*%
%TO.N,N/C*%
X301572020Y-143156444D03*
X311572020Y-143156444D03*
%TO.P,S13,2*%
X306572020Y-141056444D03*
X306572020Y-141056444D03*
%TD*%
D10*
%TO.P,D27,1*%
%TO.N,N/C*%
X248762013Y-120506447D03*
D11*
X254222013Y-120506447D03*
%TO.P,D27,2*%
X250922013Y-120506447D03*
D12*
X256382013Y-120506447D03*
%TD*%
D10*
%TO.P,D31,1*%
%TO.N,N/C*%
X250740206Y-180070599D03*
D29*
X255947501Y-178428745D03*
D30*
%TO.P,D31,2*%
X258007530Y-177779221D03*
D29*
X252800235Y-179421075D03*
%TD*%
D11*
%TO.P,D4,1*%
%TO.N,N/C*%
X362222016Y-112176443D03*
D10*
X356762016Y-112176443D03*
D11*
%TO.P,D4,2*%
X358922016Y-112176443D03*
D12*
X364382016Y-112176443D03*
%TD*%
D14*
%TO.P,S22,1*%
%TO.N,N/C*%
X275572016Y-126156447D03*
X265572016Y-126156447D03*
%TO.P,S22,2*%
X270572016Y-124056447D03*
X270572016Y-124056447D03*
%TD*%
D11*
%TO.P,D18,1*%
%TO.N,N/C*%
X290222015Y-130706449D03*
D10*
X284762015Y-130706449D03*
D12*
%TO.P,D18,2*%
X292382015Y-130706449D03*
D11*
X286922015Y-130706449D03*
%TD*%
%TO.P,D14,1*%
%TO.N,N/C*%
X308222017Y-134956444D03*
D10*
X302762017Y-134956444D03*
D12*
%TO.P,D14,2*%
X310382017Y-134956444D03*
D11*
X304922017Y-134956444D03*
%TD*%
D10*
%TO.P,D32,1*%
%TO.N,N/C*%
X232834129Y-188974716D03*
D31*
X237562628Y-186244716D03*
%TO.P,D32,2*%
X234704744Y-187894716D03*
D32*
X239433243Y-185164716D03*
%TD*%
D14*
%TO.P,S24,1*%
%TO.N,N/C*%
X275572025Y-92156449D03*
X265572025Y-92156449D03*
%TO.P,S24,2*%
X270572025Y-90056449D03*
X270572025Y-90056449D03*
%TD*%
%TO.P,S23,1*%
%TO.N,N/C*%
X275572011Y-109156446D03*
X265572011Y-109156446D03*
%TO.P,S23,2*%
X270572011Y-107056446D03*
X270572011Y-107056446D03*
%TD*%
D11*
%TO.P,D6,1*%
%TO.N,N/C*%
X344222015Y-146176450D03*
D10*
X338762015Y-146176450D03*
D12*
%TO.P,D6,2*%
X346382015Y-146176450D03*
D11*
X340922015Y-146176450D03*
%TD*%
D33*
%TO.P,D30,1*%
%TO.N,N/C*%
X275320824Y-174339118D03*
D10*
X269907535Y-175051791D03*
D34*
%TO.P,D30,2*%
X277462345Y-174057181D03*
D33*
X272049056Y-174769854D03*
%TD*%
D14*
%TO.P,S32,1*%
%TO.N,N/C*%
X227403558Y-181948702D03*
X236063812Y-176948702D03*
%TO.P,S32,2*%
X230683685Y-177630049D03*
X230683685Y-177630049D03*
%TD*%
%TO.P,S6,1*%
%TO.N,N/C*%
X347572021Y-137376441D03*
X337572021Y-137376441D03*
%TO.P,S6,2*%
X342572021Y-135276441D03*
X342572021Y-135276441D03*
%TD*%
D10*
%TO.P,D21,1*%
%TO.N,N/C*%
X266762022Y-151956445D03*
D11*
X272222022Y-151956445D03*
%TO.P,D21,2*%
X268922022Y-151956445D03*
D12*
X274382022Y-151956445D03*
%TD*%
D14*
%TO.P,S29,1*%
%TO.N,N/C*%
X298252017Y-164406446D03*
X288252017Y-164406446D03*
%TO.P,S29,2*%
X293252017Y-162306446D03*
X293252017Y-162306446D03*
%TD*%
%TO.P,S28,1*%
%TO.N,N/C*%
X247572008Y-94706441D03*
X257572008Y-94706441D03*
%TO.P,S28,2*%
X252572008Y-92606441D03*
X252572008Y-92606441D03*
%TD*%
D13*
%TO.P,,*%
%TO.N,*%
X351570265Y-115676447D03*
%TD*%
D14*
%TO.P,S16,1*%
%TO.N,N/C*%
X311572010Y-92156442D03*
X301572010Y-92156442D03*
%TO.P,S16,2*%
X306572010Y-90056442D03*
X306572010Y-90056442D03*
%TD*%
D13*
%TO.P,,*%
%TO.N,*%
X279570261Y-100196446D03*
%TD*%
D14*
%TO.P,S14,1*%
%TO.N,N/C*%
X301572018Y-126156443D03*
X311572018Y-126156443D03*
%TO.P,S14,2*%
X306572018Y-124056443D03*
X306572018Y-124056443D03*
%TD*%
%TO.P,S7,1*%
%TO.N,N/C*%
X337572013Y-120376441D03*
X347572013Y-120376441D03*
%TO.P,S7,2*%
X342572013Y-118276441D03*
X342572013Y-118276441D03*
%TD*%
D11*
%TO.P,D20,1*%
%TO.N,N/C*%
X290222020Y-96706442D03*
D10*
X284762020Y-96706442D03*
D12*
%TO.P,D20,2*%
X292382020Y-96706442D03*
D11*
X286922020Y-96706442D03*
%TD*%
D14*
%TO.P,S31,1*%
%TO.N,N/C*%
X256496244Y-169028677D03*
X246959074Y-172035735D03*
%TO.P,S31,2*%
X251096177Y-168529400D03*
X251096177Y-168529400D03*
%TD*%
D11*
%TO.P,D24,1*%
%TO.N,N/C*%
X272222011Y-100956437D03*
D10*
X266762011Y-100956437D03*
D11*
%TO.P,D24,2*%
X268922011Y-100956437D03*
D12*
X274382011Y-100956437D03*
%TD*%
D14*
%TO.P,S9,1*%
%TO.N,N/C*%
X329572016Y-154376446D03*
X319572016Y-154376446D03*
%TO.P,S9,2*%
X324572016Y-152276446D03*
X324572016Y-152276446D03*
%TD*%
D11*
%TO.P,D16,1*%
%TO.N,N/C*%
X308222021Y-100956440D03*
D10*
X302762021Y-100956440D03*
D11*
%TO.P,D16,2*%
X304922021Y-100956440D03*
D12*
X310382021Y-100956440D03*
%TD*%
D14*
%TO.P,S4,1*%
%TO.N,N/C*%
X355572013Y-103376442D03*
X365572013Y-103376442D03*
%TO.P,S4,2*%
X360572013Y-101276442D03*
X360572013Y-101276442D03*
%TD*%
%TO.P,S27,1*%
%TO.N,N/C*%
X247572019Y-111706438D03*
X257572019Y-111706438D03*
%TO.P,S27,2*%
X252572019Y-109606438D03*
X252572019Y-109606438D03*
%TD*%
D11*
%TO.P,D2,1*%
%TO.N,N/C*%
X362222013Y-146176440D03*
D10*
X356762013Y-146176440D03*
D11*
%TO.P,D2,2*%
X358922013Y-146176440D03*
D12*
X364382013Y-146176440D03*
%TD*%
D14*
%TO.P,S8,1*%
%TO.N,N/C*%
X347572016Y-103376445D03*
X337572016Y-103376445D03*
%TO.P,S8,2*%
X342572016Y-101276445D03*
X342572016Y-101276445D03*
%TD*%
D13*
%TO.P,,*%
%TO.N,*%
X315570000Y-121460000D03*
%TD*%
%TO.P,,*%
%TO.N,*%
X279570269Y-134206440D03*
%TD*%
%TO.P,,*%
%TO.N,*%
X248730263Y-161966446D03*
%TD*%
D14*
%TO.P,S2,1*%
%TO.N,N/C*%
X365572014Y-137376434D03*
X355572014Y-137376434D03*
%TO.P,S2,2*%
X360572014Y-135276434D03*
X360572014Y-135276434D03*
%TD*%
D10*
%TO.P,D26,1*%
%TO.N,N/C*%
X248762014Y-137506438D03*
D11*
X254222014Y-137506438D03*
%TO.P,D26,2*%
X250922014Y-137506438D03*
D12*
X256382014Y-137506438D03*
%TD*%
D10*
%TO.P,D17,1*%
%TO.N,N/C*%
X284762013Y-147706446D03*
D11*
X290222013Y-147706446D03*
%TO.P,D17,2*%
X286922013Y-147706446D03*
D12*
X292382013Y-147706446D03*
%TD*%
D11*
%TO.P,D7,1*%
%TO.N,N/C*%
X344222017Y-129176449D03*
D10*
X338762017Y-129176449D03*
D12*
%TO.P,D7,2*%
X346382017Y-129176449D03*
D11*
X340922017Y-129176449D03*
%TD*%
D10*
%TO.P,D11,1*%
%TO.N,N/C*%
X320762019Y-129176442D03*
D11*
X326222019Y-129176442D03*
D12*
%TO.P,D11,2*%
X328382019Y-129176442D03*
D11*
X322922019Y-129176442D03*
%TD*%
D10*
%TO.P,D8,1*%
%TO.N,N/C*%
X338762016Y-112176442D03*
D11*
X344222016Y-112176442D03*
D12*
%TO.P,D8,2*%
X346382016Y-112176442D03*
D11*
X340922016Y-112176442D03*
%TD*%
D14*
%TO.P,S5,1*%
%TO.N,N/C*%
X347572007Y-154376440D03*
X337572007Y-154376440D03*
%TO.P,S5,2*%
X342572007Y-152276440D03*
X342572007Y-152276440D03*
%TD*%
D13*
%TO.P,,*%
%TO.N,*%
X351570263Y-149676442D03*
%TD*%
D35*
%TO.N,*%
X187342017Y-124773558D03*
X177962017Y-118343558D03*
X188172017Y-123593558D03*
X184502017Y-131283558D03*
X184342017Y-122493558D03*
X241001478Y-128280000D03*
X185442017Y-132103558D03*
X177962017Y-120843558D03*
X245530000Y-142540000D03*
X232061478Y-116360000D03*
X187112017Y-148883558D03*
X228391478Y-118850000D03*
X192112017Y-127553558D03*
X231591478Y-128050000D03*
X185272017Y-119963558D03*
X185272017Y-123593558D03*
X232061478Y-113770000D03*
X184338465Y-117420006D03*
X243570000Y-142560000D03*
X186442017Y-133223558D03*
X169292017Y-143633558D03*
X171252017Y-143653558D03*
%TD*%
D36*
%TO.N,*%
X338762016Y-163176444D02*
X338762016Y-155566442D01*
X308660268Y-136686435D02*
X298362009Y-136686446D01*
X356762012Y-104566438D02*
X355572014Y-103376437D01*
X284762020Y-130706436D02*
X286922017Y-130706442D01*
D37*
X225172019Y-96006448D02*
X226097926Y-96006448D01*
D36*
X158440000Y-104599996D02*
X160599993Y-104600002D01*
D37*
X135722017Y-117193558D02*
X141172017Y-122643558D01*
D36*
X275320822Y-174339116D02*
X277441055Y-174041137D01*
X355572014Y-103376437D02*
X365572018Y-103376440D01*
X328380261Y-129176442D02*
X326620267Y-130936442D01*
X142989997Y-155600002D02*
X158439997Y-155599998D01*
D37*
X169982017Y-138743558D02*
X169982017Y-126113558D01*
D36*
X364382021Y-129194695D02*
X362660262Y-130916438D01*
X113250000Y-127249998D02*
X103250010Y-127250005D01*
X278721608Y-175316436D02*
X277462345Y-174057169D01*
D37*
X171642017Y-138793558D02*
X171642017Y-128023558D01*
X183682017Y-126339728D02*
X183682017Y-126333558D01*
D36*
X70041753Y-148870000D02*
X84839997Y-148870000D01*
D37*
X135482017Y-117673558D02*
X140952017Y-123143558D01*
X258270000Y-104490000D02*
X256840000Y-105920000D01*
X72250004Y-119369999D02*
X73856445Y-117763558D01*
X188172017Y-97873558D02*
X188945569Y-97100006D01*
D36*
X86441752Y-164270006D02*
X88111755Y-165940000D01*
X310382015Y-134964693D02*
X308660268Y-136686435D01*
D37*
X308250000Y-120570000D02*
X298310000Y-120570000D01*
D36*
X104441754Y-153050005D02*
X106081747Y-154689998D01*
X148059998Y-145440001D02*
X149249997Y-144250006D01*
D37*
X228391478Y-123370000D02*
X228391478Y-118850000D01*
D36*
X310382018Y-151956440D02*
X310380263Y-151956447D01*
X271832016Y-103506448D02*
X256382017Y-103506438D01*
X181987892Y-190068283D02*
X180117272Y-188988287D01*
X246959067Y-172035731D02*
X256386279Y-168972645D01*
X76060006Y-105660002D02*
X77250005Y-104470006D01*
X145985683Y-168523363D02*
X147242942Y-167575953D01*
X66770001Y-165940005D02*
X68440003Y-164270005D01*
X192122017Y-113283558D02*
X191178465Y-112340006D01*
X320762013Y-155566444D02*
X319572012Y-154376449D01*
D37*
X245308467Y-91110000D02*
X240412019Y-96006448D01*
D36*
X166060003Y-104600002D02*
X166060005Y-96990002D01*
X356762022Y-129176447D02*
X358922019Y-129176442D01*
X229029128Y-182384271D02*
X227403566Y-181948697D01*
X58059995Y-164270003D02*
X58059994Y-156660000D01*
X76060003Y-147270000D02*
X73900002Y-147270004D01*
X104440001Y-119049997D02*
X106599996Y-119050001D01*
X163900000Y-155600004D02*
X166060001Y-155600006D01*
X310382016Y-117956439D02*
X310370263Y-117956437D01*
X320762010Y-129176448D02*
X322922011Y-129176439D01*
X362940265Y-147616445D02*
X347822016Y-147616447D01*
D37*
X121142017Y-99953558D02*
X130542017Y-99953558D01*
D36*
X68440003Y-164270005D02*
X68441747Y-164270000D01*
X288252009Y-164406442D02*
X298252019Y-164406441D01*
X147242942Y-167575953D02*
X137427055Y-166196420D01*
D37*
X173358465Y-107260006D02*
X174449998Y-107260006D01*
D36*
X338762011Y-104566444D02*
X337572012Y-103376448D01*
X248762015Y-137506443D02*
X250922019Y-137506440D01*
X358922024Y-146176441D02*
X356762017Y-146176442D01*
D37*
X183692017Y-126323558D02*
X185782017Y-126323558D01*
X227051478Y-128480000D02*
X226341478Y-128480000D01*
X231241478Y-109980000D02*
X232515030Y-108706448D01*
D36*
X124121753Y-116479996D02*
X137741753Y-116480003D01*
D37*
X187021751Y-128079994D02*
X187018453Y-128079994D01*
X252572020Y-143606444D02*
X249086444Y-143606444D01*
D36*
X298492021Y-119816436D02*
X292382013Y-113706441D01*
D37*
X174872017Y-127193558D02*
X174992017Y-127193558D01*
X306572018Y-124056443D02*
X301076443Y-124056443D01*
D36*
X58059995Y-130270005D02*
X55899998Y-130270000D01*
X292382019Y-130706439D02*
X290807013Y-132281448D01*
X106311752Y-120909998D02*
X116329996Y-120909994D01*
X338762014Y-146176442D02*
X338762018Y-138566442D01*
X144914485Y-176145346D02*
X142794253Y-175847372D01*
X292382013Y-113706441D02*
X292380266Y-113706435D01*
D37*
X167302017Y-92203558D02*
X172492017Y-97393558D01*
D36*
X112059995Y-111440004D02*
X113250002Y-110250003D01*
X302762017Y-151956442D02*
X302762024Y-144346441D01*
X346382016Y-129176445D02*
X344222017Y-129176443D01*
X50441751Y-147270004D02*
X51881752Y-148710003D01*
X338762017Y-121566443D02*
X337572007Y-120376442D01*
D37*
X170242017Y-120573558D02*
X170855569Y-119960006D01*
D36*
X76060003Y-147270000D02*
X76059999Y-139660000D01*
D37*
X239627890Y-164802405D02*
X243570000Y-160860295D01*
D36*
X362660262Y-130916438D02*
X348122013Y-130916442D01*
X297062024Y-173206445D02*
X294902015Y-173206441D01*
X191178465Y-112340006D02*
X189689998Y-112340006D01*
D37*
X227371478Y-123580000D02*
X223901478Y-127050000D01*
D36*
X140440000Y-102050000D02*
X142990001Y-104600006D01*
X310382022Y-138818191D02*
X310382008Y-134956445D01*
X266762021Y-100956441D02*
X268922019Y-100956447D01*
D37*
X170772017Y-138733558D02*
X170772017Y-127683558D01*
D36*
X319410267Y-113736448D02*
X326822018Y-113736451D01*
D37*
X170772017Y-127683558D02*
X171772017Y-126683558D01*
X230298820Y-130290000D02*
X224641478Y-130290000D01*
D36*
X328382019Y-163176436D02*
X326222016Y-163176440D01*
D37*
X117812017Y-89393558D02*
X122112017Y-85093558D01*
X156832017Y-139843558D02*
X157882017Y-140893558D01*
D36*
X302762019Y-134956439D02*
X302762024Y-127346445D01*
X239627884Y-164802407D02*
X240744961Y-167197985D01*
D37*
X106652017Y-104423558D02*
X116672017Y-104423558D01*
D36*
X275874572Y-176158894D02*
X259003765Y-178529934D01*
X140439995Y-136049999D02*
X142600004Y-136050000D01*
D37*
X240372019Y-113786448D02*
X244146448Y-113786448D01*
X314550000Y-98660000D02*
X314550000Y-90070000D01*
X256382008Y-103506451D02*
X256382008Y-103517992D01*
X340965572Y-116670000D02*
X321510000Y-116670000D01*
D36*
X187322017Y-99803558D02*
X184618465Y-97100006D01*
X59250003Y-104469995D02*
X49249999Y-104469998D01*
X138947445Y-177252452D02*
X155818252Y-179623492D01*
X328382016Y-146176442D02*
X326222014Y-146176445D01*
X182100192Y-169116315D02*
X185316315Y-162219319D01*
D37*
X185262017Y-119953558D02*
X185272017Y-119963558D01*
D36*
X95411750Y-114830006D02*
X87999999Y-114830009D01*
X266762020Y-117956446D02*
X266762016Y-110346444D01*
D37*
X171252017Y-161583558D02*
X171252017Y-143653558D01*
D36*
X112060002Y-94440000D02*
X113250002Y-93250002D01*
D37*
X271370000Y-138750000D02*
X257990000Y-138750000D01*
D36*
X137380962Y-175134695D02*
X137359674Y-175150733D01*
X175388774Y-186258279D02*
X174077973Y-184947479D01*
X122439998Y-131799997D02*
X124600003Y-131799998D01*
D37*
X244580000Y-121150000D02*
X244580000Y-119480000D01*
D36*
X326620267Y-130936442D02*
X319430254Y-130936439D01*
X158440001Y-121600004D02*
X160599997Y-121600004D01*
D37*
X245500000Y-122970000D02*
X243936448Y-121406448D01*
D36*
X355572016Y-154376444D02*
X365572020Y-154376445D01*
D37*
X230298820Y-130290000D02*
X233825260Y-133816440D01*
D36*
X248762015Y-137506443D02*
X248762026Y-129896445D01*
X187342017Y-124773558D02*
X187322017Y-124753558D01*
X142794253Y-175847372D02*
X142772968Y-175863406D01*
X257995015Y-177802754D02*
X258007531Y-177779222D01*
X290807013Y-132281448D02*
X277057017Y-132281440D01*
D37*
X223901478Y-127050000D02*
X223901478Y-129550000D01*
D36*
X338762021Y-112176441D02*
X340922017Y-112176438D01*
X55899993Y-147269999D02*
X58060000Y-147270000D01*
X364382023Y-112176437D02*
X362222012Y-112176442D01*
D37*
X254860000Y-122020000D02*
X246900000Y-122020000D01*
X172492017Y-97393558D02*
X172492017Y-106393558D01*
D36*
X250740211Y-180070602D02*
X252776481Y-179408977D01*
X284762016Y-89096444D02*
X283572016Y-87906445D01*
X148059996Y-102049999D02*
X145899998Y-102050005D01*
X308740270Y-153596440D02*
X298272011Y-153596443D01*
X148059997Y-119050004D02*
X145899999Y-119050001D01*
D37*
X324572021Y-135276449D02*
X322956449Y-135276449D01*
D36*
X277394962Y-165102862D02*
X277493524Y-165177137D01*
X329952026Y-113746442D02*
X328382017Y-112176443D01*
X319430254Y-130936439D02*
X310382013Y-121888196D01*
X186112017Y-132103558D02*
X192122017Y-126093558D01*
X256362468Y-180628549D02*
X258007534Y-177779225D01*
D37*
X249480000Y-105920000D02*
X244153552Y-111246448D01*
D36*
X86440007Y-130270001D02*
X88599998Y-130270004D01*
X68439999Y-147270005D02*
X68441746Y-147270002D01*
D37*
X171252017Y-161953853D02*
X171252017Y-161583558D01*
D36*
X344780264Y-147776442D02*
X329982020Y-147776442D01*
D37*
X169272017Y-121763558D02*
X169272017Y-116463558D01*
D36*
X274382014Y-151956448D02*
X271832020Y-154506444D01*
X126570008Y-165500000D02*
X116569998Y-165499999D01*
X329952026Y-113746442D02*
X344812014Y-113746442D01*
X185442017Y-132103558D02*
X186112017Y-132103558D01*
X58060001Y-113270001D02*
X58060005Y-105659996D01*
D37*
X170855569Y-119960006D02*
X174449998Y-119960006D01*
X188172017Y-121243558D02*
X188172017Y-123593558D01*
X256373553Y-120506447D02*
X254860000Y-122020000D01*
D36*
X130060003Y-107190003D02*
X131249995Y-106000001D01*
X112060000Y-153050000D02*
X112059993Y-145439999D01*
X76060001Y-156660000D02*
X77250000Y-155470007D01*
X362740264Y-164846444D02*
X348052016Y-164846447D01*
D37*
X168392017Y-124093558D02*
X170242017Y-122243558D01*
D36*
X310382017Y-100956446D02*
X308222021Y-100956442D01*
X70111744Y-165940002D02*
X84770002Y-165940003D01*
X319410267Y-113736448D02*
X310382013Y-104708191D01*
X346380271Y-146176444D02*
X344780264Y-147776442D01*
X229505702Y-161125761D02*
X227924267Y-160550164D01*
D37*
X113745574Y-125150001D02*
X121222017Y-117673558D01*
D36*
X277070264Y-115376444D02*
X276962018Y-115376449D01*
X248361735Y-172750421D02*
X246959067Y-172035731D01*
D37*
X244840000Y-129818522D02*
X241371478Y-126350000D01*
D36*
X292380266Y-113706435D02*
X290700264Y-115386438D01*
X52081753Y-165940002D02*
X66770001Y-165940005D01*
X266762015Y-134956439D02*
X268922015Y-134956445D01*
X301572015Y-109156445D02*
X311572014Y-109156442D01*
D37*
X169292017Y-155513558D02*
X169292017Y-143633558D01*
X130962017Y-85093558D02*
X135382017Y-89513558D01*
D36*
X104439999Y-153049998D02*
X106600006Y-153050003D01*
X84839997Y-148870000D02*
X86440001Y-147270000D01*
X290490262Y-149586445D02*
X276752020Y-149586441D01*
X130060003Y-97800000D02*
X130060001Y-90190002D01*
D37*
X243986448Y-116326448D02*
X240372019Y-116326448D01*
D36*
X51881752Y-148710003D02*
X67000001Y-148710005D01*
X320762014Y-104566447D02*
X319572014Y-103376448D01*
X320762015Y-112176441D02*
X320762014Y-104566447D01*
X127900007Y-148800001D02*
X130060003Y-148800001D01*
X284762014Y-147706443D02*
X284762023Y-140096441D01*
X52161755Y-132009996D02*
X66700004Y-132010000D01*
D37*
X244153552Y-111246448D02*
X240372019Y-111246448D01*
D36*
X86439998Y-164269994D02*
X88600001Y-164269998D01*
X158459549Y-181722107D02*
X156814483Y-178872783D01*
X346382014Y-163176447D02*
X346380270Y-163176442D01*
X86440000Y-113270001D02*
X88600003Y-113270002D01*
D37*
X178885569Y-117420006D02*
X184338465Y-117420006D01*
X245550000Y-154440000D02*
X245530000Y-154420000D01*
X359105571Y-99810000D02*
X315700000Y-99810000D01*
D36*
X58059994Y-156660000D02*
X59250001Y-155470002D01*
D37*
X167832017Y-140893558D02*
X169982017Y-138743558D01*
X231591478Y-128050000D02*
X231161478Y-128480000D01*
D36*
X266762019Y-144346443D02*
X265572020Y-143156448D01*
D37*
X126249995Y-137900005D02*
X141508464Y-137900005D01*
D36*
X175194133Y-165895965D02*
X177151753Y-166808820D01*
X322922019Y-163176442D02*
X320762019Y-163176446D01*
D37*
X159962017Y-123113558D02*
X167922017Y-123113558D01*
D36*
X144914485Y-176145346D02*
X145985683Y-168523363D01*
D37*
X301076443Y-124056443D02*
X293600000Y-116580000D01*
D36*
X116550006Y-154690001D02*
X122439998Y-148800001D01*
X122441751Y-114799993D02*
X124121753Y-116479996D01*
X140439995Y-119050002D02*
X142990002Y-121600000D01*
X67000001Y-148710005D02*
X68439999Y-147270005D01*
D37*
X189689998Y-125411747D02*
X189689998Y-125040006D01*
D36*
X112060000Y-102049999D02*
X112060002Y-94440000D01*
X131249995Y-106000001D02*
X121249999Y-106000008D01*
X166060001Y-155600006D02*
X166060002Y-147990005D01*
X76060000Y-122660001D02*
X77250010Y-121470000D01*
X337572016Y-137376439D02*
X347572015Y-137376444D01*
X191682017Y-125493558D02*
X191682017Y-115493558D01*
X268922017Y-151956447D02*
X266762012Y-151956441D01*
X302762019Y-134956439D02*
X304922011Y-134956439D01*
X364382016Y-163204698D02*
X362740264Y-164846444D01*
X274382022Y-134956441D02*
X271832017Y-137506445D01*
X328380265Y-163176448D02*
X326710262Y-164846442D01*
D37*
X167002017Y-106113558D02*
X159942017Y-106113558D01*
X106572017Y-121663558D02*
X116512017Y-121663558D01*
X73856445Y-117763558D02*
X93312017Y-117763558D01*
X184335569Y-122500006D02*
X184342017Y-122493558D01*
D36*
X58060000Y-147270000D02*
X58060002Y-139659996D01*
X248762016Y-154506448D02*
X248762015Y-146896447D01*
D37*
X297010000Y-88300000D02*
X292710000Y-84000000D01*
X108249999Y-125150001D02*
X113745574Y-125150001D01*
D36*
X106081747Y-154689998D02*
X116550006Y-154690001D01*
X250740211Y-180070602D02*
X248361735Y-172750421D01*
D37*
X90249996Y-136370007D02*
X91865568Y-136370007D01*
D36*
X284762021Y-113706448D02*
X284762014Y-106096445D01*
X338762015Y-129176442D02*
X338762017Y-121566443D01*
X58060005Y-105659996D02*
X59250003Y-104469995D01*
D37*
X298310000Y-120570000D02*
X293840000Y-116100000D01*
D36*
X104440009Y-136050003D02*
X106600005Y-136050004D01*
D37*
X245550000Y-115190000D02*
X245550000Y-115370000D01*
X170675569Y-114880006D02*
X169272017Y-116283558D01*
D36*
X274382022Y-117956444D02*
X272222013Y-117956440D01*
D37*
X100272017Y-91163558D02*
X102042017Y-89393558D01*
X186282017Y-125823558D02*
X186282017Y-106113558D01*
D36*
X286922010Y-147706443D02*
X284762014Y-147706443D01*
D37*
X232471478Y-113770000D02*
X232061478Y-113770000D01*
D36*
X149250008Y-93249998D02*
X139249998Y-93250000D01*
X355572020Y-120376437D02*
X365572019Y-120376448D01*
X77250001Y-138469997D02*
X67250002Y-138470002D01*
D37*
X244146448Y-113786448D02*
X245550000Y-115190000D01*
D36*
X137359674Y-175150733D02*
X137364166Y-175151362D01*
D37*
X256382021Y-154527979D02*
X254840000Y-156070000D01*
X157882017Y-140893558D02*
X167832017Y-140893558D01*
X230341478Y-124445224D02*
X230341478Y-107450000D01*
D36*
X68441747Y-164270000D02*
X70111744Y-165940002D01*
X184502017Y-131283558D02*
X185892017Y-131283558D01*
X162045536Y-180502535D02*
X162021787Y-180514635D01*
D37*
X170835569Y-117420006D02*
X174449998Y-117420006D01*
D36*
X320762019Y-163176446D02*
X320762013Y-155566444D01*
X277457851Y-174057804D02*
X275874572Y-176158894D01*
X292382009Y-96706438D02*
X290817018Y-98271437D01*
X86440007Y-130270001D02*
X86441756Y-130270000D01*
D37*
X177962017Y-120843558D02*
X178852017Y-119953558D01*
D36*
X149250000Y-127250004D02*
X139250006Y-127249999D01*
X167250005Y-112800007D02*
X157250012Y-112799996D01*
D37*
X55716446Y-100903558D02*
X99122017Y-100903558D01*
D36*
X185316315Y-162219319D02*
X186897750Y-161643722D01*
X94059996Y-139660002D02*
X95249996Y-138470004D01*
X284762021Y-113706448D02*
X286922013Y-113706438D01*
X86440001Y-147270000D02*
X88600003Y-147270003D01*
X289442013Y-173206446D02*
X291602025Y-173206447D01*
X302762019Y-117956440D02*
X304922012Y-117956444D01*
X232834125Y-188974725D02*
X229029128Y-182384271D01*
D37*
X153322017Y-92203558D02*
X167302017Y-92203558D01*
X171055569Y-125040006D02*
X174449998Y-125040006D01*
D36*
X166060002Y-147990005D02*
X167250003Y-146799998D01*
X95561741Y-165939996D02*
X104439999Y-157061753D01*
X122440008Y-97799996D02*
X124600000Y-97799999D01*
D37*
X169322017Y-124063558D02*
X170885569Y-122500006D01*
X158440009Y-104611550D02*
X158440009Y-104600009D01*
D36*
X338762016Y-155566442D02*
X337572017Y-154376449D01*
X284762020Y-130706436D02*
X284762025Y-123096447D01*
X158440002Y-138600003D02*
X160599994Y-138600008D01*
X116329996Y-120909994D02*
X122440004Y-114799999D01*
X94060003Y-105660005D02*
X95250003Y-104470006D01*
D37*
X165342017Y-107013558D02*
X170668465Y-112340006D01*
X279340000Y-116580000D02*
X273870000Y-122050000D01*
D36*
X346382018Y-146176447D02*
X344222018Y-146176440D01*
X302762019Y-117956440D02*
X302762022Y-110346446D01*
X155818252Y-179623492D02*
X156814484Y-178872779D01*
X148060003Y-128439999D02*
X149250000Y-127250004D01*
X239433243Y-185164721D02*
X240744044Y-183853921D01*
D37*
X312780000Y-88300000D02*
X297010000Y-88300000D01*
X187112017Y-148883558D02*
X185838457Y-147609998D01*
D36*
X68441746Y-147270002D02*
X70041753Y-148870000D01*
D37*
X245550000Y-120670000D02*
X245550000Y-115370000D01*
X243966448Y-118866448D02*
X240372019Y-118866448D01*
D36*
X232721825Y-168022757D02*
X234679453Y-167109900D01*
X112059998Y-119049998D02*
X112059995Y-111440004D01*
X166060003Y-104600002D02*
X163900006Y-104599999D01*
X347822016Y-147616447D02*
X346382018Y-146176447D01*
X167250000Y-95800005D02*
X157250000Y-95799999D01*
X104439999Y-157061753D02*
X104439999Y-153049998D01*
X301572015Y-92156444D02*
X311572013Y-92156442D01*
D37*
X232061478Y-119190000D02*
X232061478Y-116360000D01*
X224641478Y-130290000D02*
X223901478Y-129550000D01*
D36*
X283572016Y-87906445D02*
X293572017Y-87906448D01*
D37*
X245050000Y-120910000D02*
X246665000Y-122525000D01*
D36*
X292382019Y-147706443D02*
X292370269Y-147706438D01*
X88031754Y-148870003D02*
X95481748Y-148869999D01*
X86440001Y-147270000D02*
X86439996Y-147278251D01*
X166060005Y-96990002D02*
X167250000Y-95800005D01*
X267579075Y-166482395D02*
X277394962Y-165102862D01*
X112059998Y-136049997D02*
X109900006Y-136049997D01*
D37*
X256840000Y-105920000D02*
X249480000Y-105920000D01*
D36*
X247572014Y-145706440D02*
X257572013Y-145706438D01*
X319340269Y-147776441D02*
X310382022Y-138818191D01*
D37*
X360572013Y-101276442D02*
X359105571Y-99810000D01*
D36*
X77250005Y-104470006D02*
X67249993Y-104469995D01*
X95249998Y-121470003D02*
X85250000Y-121469997D01*
X166059996Y-113989993D02*
X167250005Y-112800007D01*
X256382015Y-137506445D02*
X254222023Y-137506450D01*
D37*
X141508464Y-137900005D02*
X143452017Y-139843558D01*
D36*
X142990000Y-138600003D02*
X158440002Y-138600003D01*
X104439999Y-153049998D02*
X104441754Y-153050005D01*
X76060002Y-130270000D02*
X73900007Y-130270002D01*
D37*
X169772017Y-118483558D02*
X170835569Y-117420006D01*
X169982017Y-126113558D02*
X171055569Y-125040006D01*
D36*
X167250011Y-129800006D02*
X157250006Y-129799998D01*
X125380007Y-166690007D02*
X126570008Y-165500000D01*
D37*
X143452017Y-139843558D02*
X156832017Y-139843558D01*
D36*
X122439998Y-148800001D02*
X122451748Y-148799996D01*
D37*
X175194127Y-165895963D02*
X171252017Y-161953853D01*
D36*
X156827002Y-178896312D02*
X156814486Y-178872780D01*
X328382010Y-129176443D02*
X328380261Y-129176442D01*
X252776481Y-179408977D02*
X252800230Y-179421077D01*
X58060007Y-122660006D02*
X59249997Y-121469995D01*
X284762014Y-96706442D02*
X286922012Y-96706443D01*
X140439995Y-119050002D02*
X142600004Y-119049998D01*
D37*
X322956449Y-135276449D02*
X308250000Y-120570000D01*
X231161478Y-128480000D02*
X227051478Y-128480000D01*
D36*
X50439996Y-130288253D02*
X52161755Y-132009996D01*
X137427055Y-166196420D02*
X137328493Y-166270695D01*
D37*
X243570000Y-160860295D02*
X243570000Y-160490000D01*
X273870000Y-122050000D02*
X258210000Y-122050000D01*
D36*
X77250010Y-121470000D02*
X67250001Y-121469995D01*
X248762026Y-129896445D02*
X247572006Y-128706448D01*
X86439998Y-164269994D02*
X86441752Y-164270006D01*
X58060001Y-113270001D02*
X55899997Y-113269998D01*
X131249996Y-122999997D02*
X121250000Y-123000000D01*
X112059998Y-136049997D02*
X112059993Y-128440003D01*
X310380263Y-151956447D02*
X308740270Y-153596440D01*
X148059997Y-119050004D02*
X148060001Y-111440002D01*
X356762016Y-112176443D02*
X356762012Y-104566438D01*
D37*
X185782017Y-126323558D02*
X186282017Y-125823558D01*
X91865568Y-136370007D02*
X106572017Y-121663558D01*
X233801478Y-115100000D02*
X232471478Y-113770000D01*
X170688465Y-109800006D02*
X167002017Y-106113558D01*
D36*
X94060004Y-156660002D02*
X95250005Y-155470007D01*
D37*
X288572022Y-136806447D02*
X273313553Y-136806447D01*
D36*
X95481748Y-148869999D02*
X104439995Y-139911749D01*
X310382013Y-104708191D02*
X310382017Y-100956446D01*
X292382009Y-96706438D02*
X290222017Y-96706441D01*
X265572008Y-109156442D02*
X275572026Y-109156438D01*
X139501195Y-175432674D02*
X137380962Y-175134695D01*
X284762014Y-96706442D02*
X284762016Y-89096444D01*
X284762023Y-140096441D02*
X283572015Y-138906444D01*
D37*
X245511478Y-99800000D02*
X244257926Y-98546448D01*
D36*
X113250007Y-144249997D02*
X103250001Y-144250001D01*
D37*
X156552017Y-105583558D02*
X157982017Y-107013558D01*
D36*
X76060002Y-130270000D02*
X76060000Y-122660001D01*
X104440008Y-102068248D02*
X106081759Y-103710001D01*
X320762010Y-129176448D02*
X320762015Y-121566445D01*
D37*
X314550000Y-90070000D02*
X312780000Y-88300000D01*
D36*
X268836334Y-167429805D02*
X267579075Y-166482395D01*
D37*
X244257926Y-98546448D02*
X240412019Y-98546448D01*
X233825260Y-128581442D02*
X235420266Y-126986436D01*
D36*
X266762020Y-117956446D02*
X268922018Y-117956443D01*
X166060008Y-121599998D02*
X163900002Y-121600000D01*
D37*
X230340266Y-126986436D02*
X231241478Y-126085224D01*
D36*
X86439996Y-147278251D02*
X88031754Y-148870003D01*
X266762015Y-134956439D02*
X266762014Y-127346441D01*
D37*
X130542017Y-99953558D02*
X136172017Y-105583558D01*
D36*
X94060002Y-113269999D02*
X94060003Y-105660005D01*
X364382023Y-112176437D02*
X362807021Y-113751440D01*
X310382013Y-121888196D02*
X310382016Y-117956439D01*
X145900000Y-153050005D02*
X148060005Y-153049999D01*
X297060265Y-173206442D02*
X294950261Y-175316443D01*
X271832020Y-154506444D02*
X256382020Y-154506440D01*
X310382016Y-117956439D02*
X308222021Y-117956443D01*
X116530004Y-103710003D02*
X122440008Y-97799996D01*
X104440004Y-122981754D02*
X104440001Y-119049997D01*
X276752020Y-149586441D02*
X274382014Y-151956448D01*
X104439995Y-139911749D02*
X104440009Y-136050003D01*
D37*
X171772017Y-126683558D02*
X174842017Y-126683558D01*
D36*
X277462343Y-174057175D02*
X277457851Y-174057804D01*
X330052015Y-164846445D02*
X328382019Y-163176436D01*
D37*
X136172017Y-105583558D02*
X156552017Y-105583558D01*
D36*
X364382009Y-146176445D02*
X362222018Y-146176438D01*
D37*
X247466440Y-141056440D02*
X244050000Y-137640000D01*
D36*
X148060002Y-136049997D02*
X148060003Y-128439999D01*
D37*
X284280000Y-98860000D02*
X278650000Y-104490000D01*
X100272017Y-99753558D02*
X100272017Y-91163558D01*
D36*
X266762014Y-127346441D02*
X265572017Y-126156446D01*
D37*
X273313553Y-136806447D02*
X271370000Y-138750000D01*
X156612017Y-123143558D02*
X157562017Y-124093558D01*
D36*
X117759993Y-174300003D02*
X119920002Y-174299999D01*
X187418451Y-183042255D02*
X178758205Y-178042262D01*
X326822018Y-113736451D02*
X328382017Y-112176443D01*
X94060007Y-130270006D02*
X94060002Y-122660003D01*
X247572006Y-128706448D02*
X257572011Y-128706440D01*
X95250003Y-104470006D02*
X85249997Y-104470007D01*
X70010003Y-114840000D02*
X68439994Y-113270001D01*
D37*
X167355577Y-142149998D02*
X170772017Y-138733558D01*
X158448455Y-138599996D02*
X159992017Y-140143558D01*
X239861478Y-126990000D02*
X232061478Y-119190000D01*
X258210000Y-122050000D02*
X257260000Y-123000000D01*
X241361478Y-126990000D02*
X239861478Y-126990000D01*
D36*
X182100192Y-169116315D02*
X180142564Y-168203458D01*
X247572017Y-94706447D02*
X257572017Y-94706441D01*
X265572017Y-126156446D02*
X275572011Y-126156441D01*
X348122013Y-130916442D02*
X346382016Y-129176445D01*
D37*
X257990000Y-138750000D02*
X256940000Y-139800000D01*
X258010000Y-121550000D02*
X257035000Y-122525000D01*
X279440000Y-88420000D02*
X264190000Y-88420000D01*
X176492017Y-125033558D02*
X176492017Y-123783558D01*
D36*
X348052016Y-164846447D02*
X346382014Y-163176447D01*
D37*
X226341478Y-128480000D02*
X225651478Y-127790000D01*
X254880000Y-105020000D02*
X246681478Y-105020000D01*
D36*
X237562630Y-186244727D02*
X239433241Y-185164725D01*
X166060002Y-138600001D02*
X166059991Y-130990003D01*
X319572021Y-137376446D02*
X329572014Y-137376445D01*
X259003765Y-178529934D02*
X258007533Y-177779221D01*
X130059996Y-114800006D02*
X130060003Y-107190003D01*
X91899998Y-164270000D02*
X94059998Y-164270004D01*
D37*
X170885569Y-122500006D02*
X174449998Y-122500006D01*
X184888465Y-104720006D02*
X174449998Y-104720006D01*
D36*
X50439994Y-113269995D02*
X52014996Y-114844998D01*
X256386279Y-168972645D02*
X256496242Y-169028676D01*
X58059995Y-164270003D02*
X55899992Y-164269999D01*
X364382014Y-129176447D02*
X362222015Y-129176446D01*
X167250003Y-146799998D02*
X157250004Y-146799996D01*
X320762018Y-146176451D02*
X320762021Y-138566444D01*
X68439999Y-147270005D02*
X70599999Y-147269998D01*
D37*
X178592017Y-123593558D02*
X177032017Y-125153558D01*
D36*
X302762017Y-100956441D02*
X304922016Y-100956443D01*
X76059999Y-139660000D02*
X77250001Y-138469997D01*
X356762023Y-155566442D02*
X355572016Y-154376444D01*
D37*
X257260000Y-123000000D02*
X246430000Y-123000000D01*
D36*
X94059999Y-147270009D02*
X94059996Y-139660002D01*
X328382016Y-146176442D02*
X328382021Y-146184693D01*
X274382022Y-134956441D02*
X272222013Y-134956442D01*
D37*
X246990000Y-139800000D02*
X244840000Y-137650000D01*
D36*
X130060003Y-97800000D02*
X127900005Y-97800001D01*
X68440001Y-130270003D02*
X70600000Y-130270001D01*
X298292013Y-102616445D02*
X292382009Y-96706438D01*
D37*
X156812017Y-122643558D02*
X157787017Y-123618558D01*
D36*
X301572017Y-126156440D02*
X311572007Y-126156447D01*
X330122019Y-130916446D02*
X328382010Y-129176443D01*
D37*
X178852017Y-119953558D02*
X185262017Y-119953558D01*
D36*
X164081806Y-181164160D02*
X166460282Y-173843979D01*
X73899998Y-164270002D02*
X76060001Y-164270002D01*
X355572017Y-137376451D02*
X365572023Y-137376441D01*
X95391763Y-132029997D02*
X104440004Y-122981754D01*
X137765000Y-133374998D02*
X140439995Y-136049999D01*
D37*
X249086444Y-143606444D02*
X241001478Y-135521478D01*
D36*
X174077973Y-184947479D02*
X174077973Y-168292465D01*
X344812014Y-113746442D02*
X346382023Y-112176443D01*
X104440000Y-102050004D02*
X104440008Y-102068248D01*
X186897750Y-161643722D02*
X177834668Y-157417541D01*
X289442013Y-173206446D02*
X289442010Y-165596449D01*
X113250002Y-93250002D02*
X103250004Y-93250000D01*
X137751753Y-116470002D02*
X137859999Y-116470007D01*
X175388776Y-186258281D02*
X158459549Y-181722107D01*
X76059996Y-113269999D02*
X73900000Y-113269996D01*
X87999999Y-114830009D02*
X86440000Y-113270001D01*
X320762015Y-121566445D02*
X319572019Y-120376445D01*
D37*
X174449998Y-114880006D02*
X170675569Y-114880006D01*
D36*
X137741753Y-116480003D02*
X137751753Y-116470002D01*
X232834125Y-188974725D02*
X234704745Y-187894729D01*
D37*
X256382021Y-154506444D02*
X256382021Y-154527979D01*
D36*
X68440003Y-164270005D02*
X70599995Y-164269998D01*
D37*
X293680000Y-98860000D02*
X284280000Y-98860000D01*
D36*
X292382019Y-147706443D02*
X290222013Y-147706439D01*
X239627884Y-164802407D02*
X237670264Y-165715262D01*
X58060002Y-139659996D02*
X59250000Y-138470009D01*
X148059996Y-102049999D02*
X148059999Y-94439999D01*
X248762015Y-146896447D02*
X247572014Y-145706440D01*
D37*
X184342017Y-117423558D02*
X184338465Y-117420006D01*
D36*
X50440003Y-130270005D02*
X50439996Y-130288253D01*
X289442010Y-165596449D02*
X288252009Y-164406442D01*
X310382017Y-100956446D02*
X310382009Y-100974690D01*
D37*
X256382014Y-137506438D02*
X256373562Y-137506438D01*
D36*
X130059994Y-141189999D02*
X131250002Y-140000002D01*
X232721825Y-168022757D02*
X229505702Y-161125761D01*
D37*
X186282017Y-106113558D02*
X184888465Y-104720006D01*
D36*
X112059993Y-128440003D02*
X113250000Y-127249998D01*
X326710262Y-164846442D02*
X319260276Y-164846438D01*
D37*
X246900000Y-122020000D02*
X245550000Y-120670000D01*
X256373562Y-137506438D02*
X254830000Y-139050000D01*
X298150000Y-103330000D02*
X293680000Y-98860000D01*
D36*
X148059999Y-94439999D02*
X149250008Y-93249998D01*
D37*
X158439996Y-155621537D02*
X159982017Y-157163558D01*
X165735573Y-144700002D02*
X171642017Y-138793558D01*
D36*
X356762015Y-138566438D02*
X355572017Y-137376451D01*
D37*
X239931478Y-126350000D02*
X233801478Y-120220000D01*
X227891478Y-123870000D02*
X228391478Y-123370000D01*
D36*
X308510265Y-119816440D02*
X298492021Y-119816436D01*
D37*
X230341478Y-107450000D02*
X230331478Y-107440000D01*
D36*
X185892017Y-131283558D02*
X191682017Y-125493558D01*
D37*
X254840000Y-156070000D02*
X247180000Y-156070000D01*
X121222017Y-117673558D02*
X135482017Y-117673558D01*
D36*
X283572015Y-138906444D02*
X293572020Y-138906447D01*
X256382016Y-120506446D02*
X254222020Y-120506446D01*
D37*
X241371478Y-126350000D02*
X239931478Y-126350000D01*
D36*
X248762012Y-95896444D02*
X247572017Y-94706447D01*
X191068465Y-114880006D02*
X189689998Y-114880006D01*
X50439999Y-164270004D02*
X52599998Y-164270001D01*
X302762024Y-144346441D02*
X301572010Y-143156439D01*
X284762025Y-123096447D02*
X283572021Y-121906439D01*
D37*
X231605030Y-106166448D02*
X240412019Y-106166448D01*
D36*
X356762010Y-121566448D02*
X355572020Y-120376437D01*
D37*
X159942017Y-106113558D02*
X158440009Y-104611550D01*
X321510000Y-116670000D02*
X308170000Y-103330000D01*
D36*
X175194133Y-165895965D02*
X174077056Y-168291543D01*
D37*
X245530000Y-154420000D02*
X245530000Y-142540000D01*
D36*
X340922019Y-163176444D02*
X338762016Y-163176444D01*
X364382014Y-129176447D02*
X364382021Y-129194695D01*
X310382018Y-151956440D02*
X308222011Y-151956445D01*
X166060002Y-138600001D02*
X163899998Y-138599998D01*
X302762015Y-93346442D02*
X301572015Y-92156444D01*
X284762014Y-106096445D02*
X283572022Y-104906443D01*
X247572012Y-111706449D02*
X257572005Y-111706438D01*
D37*
X256940000Y-139800000D02*
X246990000Y-139800000D01*
X116512017Y-121663558D02*
X120982017Y-117193558D01*
D36*
X104451754Y-119049995D02*
X106311752Y-120909998D01*
X122440004Y-114799999D02*
X124600004Y-114799998D01*
D37*
X157982017Y-107013558D02*
X165342017Y-107013558D01*
D36*
X298272011Y-153596443D02*
X292382019Y-147706443D01*
X122451748Y-148799996D02*
X124331755Y-150680003D01*
X338762014Y-146176442D02*
X340922015Y-146176446D01*
D37*
X293840000Y-116100000D02*
X279100000Y-116100000D01*
D36*
X50440008Y-147270003D02*
X50441751Y-147270004D01*
X104440001Y-119049997D02*
X104451754Y-119049995D01*
X191682017Y-115493558D02*
X191068465Y-114880006D01*
D37*
X244050000Y-137640000D02*
X244050000Y-129678522D01*
X247200000Y-139050000D02*
X245500000Y-137350000D01*
D36*
X346382023Y-112176443D02*
X344222022Y-112176442D01*
X302762024Y-127346445D02*
X301572017Y-126156440D01*
X272027764Y-174753814D02*
X272049049Y-174769848D01*
X239433241Y-185164723D02*
X256362468Y-180628549D01*
X137859999Y-116470007D02*
X140439995Y-119050002D01*
X94060002Y-122660003D02*
X95249998Y-121470003D01*
X356762022Y-129176447D02*
X356762010Y-121566448D01*
D37*
X245050000Y-120910000D02*
X245050000Y-117390000D01*
D36*
X130060003Y-148800001D02*
X130059994Y-141189999D01*
X52014996Y-114844998D02*
X66865005Y-114845005D01*
X125380004Y-174300004D02*
X125380007Y-166690007D01*
D37*
X174992017Y-127193558D02*
X177032017Y-125153558D01*
X122112017Y-85093558D02*
X130962017Y-85093558D01*
D36*
X274382014Y-151956448D02*
X272222015Y-151956438D01*
X77250000Y-155470007D02*
X67249999Y-155469998D01*
X50440008Y-147270003D02*
X52599999Y-147269996D01*
X294950261Y-175316443D02*
X278721608Y-175316436D01*
D37*
X244580000Y-119480000D02*
X243966448Y-118866448D01*
X169322017Y-138443558D02*
X169322017Y-124063558D01*
D36*
X185792889Y-183477829D02*
X187418451Y-183042255D01*
X117761752Y-174300000D02*
X119871756Y-176410001D01*
X276962018Y-115376449D02*
X274382022Y-117956444D01*
D37*
X227371478Y-97280000D02*
X227371478Y-123580000D01*
D36*
X166059991Y-130990003D02*
X167250011Y-129800006D01*
X130059996Y-114800006D02*
X127900004Y-114799996D01*
X137755002Y-99365005D02*
X140440000Y-102050000D01*
D37*
X169272017Y-116283558D02*
X169272017Y-116463558D01*
D36*
X148060001Y-111440002D02*
X149250009Y-110250000D01*
X106161749Y-137779993D02*
X116460008Y-137780004D01*
X310370263Y-117956437D02*
X308510265Y-119816440D01*
D37*
X254830000Y-139050000D02*
X247200000Y-139050000D01*
X183682017Y-126333558D02*
X183692017Y-126323558D01*
D36*
X338762015Y-129176442D02*
X340922010Y-129176444D01*
X319572019Y-120376445D02*
X329572017Y-120376439D01*
X50439994Y-113269995D02*
X52600005Y-113270000D01*
X124004999Y-99364995D02*
X137755002Y-99365005D01*
X117759993Y-174300003D02*
X117761752Y-174300000D01*
X310382008Y-134956445D02*
X310382015Y-134964693D01*
D37*
X120982017Y-117193558D02*
X135722017Y-117193558D01*
D36*
X308740258Y-102616443D02*
X298292013Y-102616445D01*
D37*
X176492017Y-123783558D02*
X177775569Y-122500006D01*
D36*
X326790263Y-147776445D02*
X319340269Y-147776441D01*
X347957012Y-113751447D02*
X346382023Y-112176443D01*
X310382009Y-100974690D02*
X308740258Y-102616443D01*
X302762017Y-151956442D02*
X304922019Y-151956436D01*
X113250002Y-110250003D02*
X103250003Y-110250000D01*
X274382022Y-117956444D02*
X271832015Y-120506442D01*
D37*
X246665000Y-122525000D02*
X257035000Y-122525000D01*
D36*
X364382018Y-163176446D02*
X362222019Y-163176443D01*
D37*
X141172017Y-122643558D02*
X156812017Y-122643558D01*
X177775569Y-122500006D02*
X184335569Y-122500006D01*
X54250004Y-102370000D02*
X55716446Y-100903558D01*
D36*
X140440000Y-102050000D02*
X142600003Y-102050001D01*
X266762021Y-100956441D02*
X266762018Y-93346441D01*
D37*
X102042017Y-89393558D02*
X117812017Y-89393558D01*
D36*
X66865005Y-114845005D02*
X68439994Y-113270001D01*
D37*
X245050000Y-117390000D02*
X243986448Y-116326448D01*
X170242017Y-122243558D02*
X170242017Y-120573558D01*
X279100000Y-116100000D02*
X273650000Y-121550000D01*
D36*
X248762014Y-103506444D02*
X250922011Y-103506441D01*
X277067015Y-98271447D02*
X274382017Y-100956442D01*
D37*
X244840000Y-137650000D02*
X244840000Y-129818522D01*
D36*
X166060008Y-121599998D02*
X166059996Y-113989993D01*
D37*
X187021751Y-128079994D02*
X189689998Y-125411747D01*
D36*
X301572010Y-143156439D02*
X311572016Y-143156443D01*
D37*
X292710000Y-84000000D02*
X283860000Y-84000000D01*
X162249997Y-144700002D02*
X165735573Y-144700002D01*
D36*
X356762022Y-163176445D02*
X358922025Y-163176441D01*
D37*
X230331478Y-107440000D02*
X231605030Y-106166448D01*
D36*
X362807021Y-113751440D02*
X347957012Y-113751447D01*
D37*
X174449998Y-109800006D02*
X170688465Y-109800006D01*
D36*
X137364166Y-175151362D02*
X138947445Y-177252452D01*
X140439995Y-136049999D02*
X142990000Y-138600003D01*
X140440003Y-153050006D02*
X142989997Y-155600002D01*
X130059997Y-131799994D02*
X127900000Y-131800000D01*
X59249997Y-121469995D02*
X49249998Y-121470006D01*
X94060002Y-113269999D02*
X91899998Y-113270002D01*
D37*
X188945569Y-97100006D02*
X189689998Y-97100006D01*
D36*
X344620270Y-130916439D02*
X330122019Y-130916446D01*
D37*
X169772017Y-122003558D02*
X169772017Y-118483558D01*
X256382013Y-120506447D02*
X256373553Y-120506447D01*
D36*
X95250005Y-155470007D02*
X85249993Y-155470004D01*
X248762021Y-112896435D02*
X247572012Y-111706449D01*
X240744044Y-183853921D02*
X240744044Y-167198907D01*
X292382013Y-113706441D02*
X290222013Y-113706440D01*
D37*
X227800266Y-126986436D02*
X230341478Y-124445224D01*
X158440003Y-138599996D02*
X158448455Y-138599996D01*
D36*
X248762009Y-120506440D02*
X248762021Y-112896435D01*
X86441756Y-130270000D02*
X88201750Y-132030000D01*
X364380266Y-146176446D02*
X362940265Y-147616445D01*
X124015004Y-133375006D02*
X137765000Y-133374998D01*
D37*
X159982017Y-157163558D02*
X167642017Y-157163558D01*
X167622017Y-140143558D02*
X169322017Y-138443558D01*
X169772017Y-122003558D02*
X168157017Y-123618558D01*
D36*
X130059997Y-131799994D02*
X130059992Y-124190005D01*
D37*
X245500000Y-137350000D02*
X245500000Y-122970000D01*
D36*
X344710273Y-164846444D02*
X330052015Y-164846445D01*
X319260276Y-164846438D02*
X310382018Y-155968195D01*
X119871756Y-176410001D02*
X136100409Y-176409994D01*
X337572012Y-103376448D02*
X347572024Y-103376437D01*
X250922017Y-154506446D02*
X248762016Y-154506448D01*
D37*
X167642017Y-157163558D02*
X169272017Y-155533558D01*
D36*
X59250000Y-138470009D02*
X49249994Y-138469999D01*
X116460008Y-137780004D02*
X122439998Y-131799997D01*
X104440000Y-102050004D02*
X106599996Y-102050000D01*
X292370269Y-147706438D02*
X290490262Y-149586445D01*
X277441055Y-174041137D02*
X277462343Y-174057175D01*
D37*
X187018453Y-128079994D02*
X186812017Y-127873558D01*
D36*
X88201750Y-132030000D02*
X95391763Y-132029997D01*
D37*
X308170000Y-103330000D02*
X298150000Y-103330000D01*
X170668465Y-112340006D02*
X174449998Y-112340006D01*
D36*
X266762016Y-110346444D02*
X265572008Y-109156442D01*
D37*
X158448464Y-121600005D02*
X159962017Y-123113558D01*
D36*
X181987892Y-190068283D02*
X185792889Y-183477829D01*
X227403566Y-181948697D02*
X236063812Y-176948704D01*
D37*
X225651478Y-127790000D02*
X225651478Y-126110000D01*
X256382008Y-103517992D02*
X254880000Y-105020000D01*
D36*
X68461750Y-130270003D02*
X70201747Y-132009997D01*
X269907532Y-175051788D02*
X272027764Y-174753814D01*
X290700264Y-115386438D02*
X277080264Y-115386445D01*
D37*
X241001478Y-135521478D02*
X241001478Y-128280000D01*
D36*
X248762009Y-120506440D02*
X250922015Y-120506442D01*
X130060001Y-90190002D02*
X131250001Y-89000003D01*
X329982020Y-147776442D02*
X328382016Y-146176442D01*
X122439998Y-131799997D02*
X124015004Y-133375006D01*
X84869991Y-114840000D02*
X86440000Y-113270001D01*
X50440001Y-164298256D02*
X52081753Y-165940002D01*
D37*
X171642017Y-128023558D02*
X172472017Y-127193558D01*
D36*
X319572012Y-154376449D02*
X329572024Y-154376446D01*
X59250001Y-155470002D02*
X49249997Y-155470003D01*
X269907532Y-175051788D02*
X268836334Y-167429805D01*
X346360267Y-129176445D02*
X344620270Y-130916439D01*
X131250001Y-89000003D02*
X121250000Y-89000006D01*
X277080264Y-115386445D02*
X277070264Y-115376444D01*
D37*
X283860000Y-84000000D02*
X279440000Y-88420000D01*
D36*
X112059998Y-119049998D02*
X109900005Y-119050002D01*
X70201747Y-132009997D02*
X84699998Y-132010004D01*
D37*
X185272017Y-123593558D02*
X178592017Y-123593558D01*
D36*
X256382020Y-154506440D02*
X254222018Y-154506442D01*
X298362009Y-136686446D02*
X292382019Y-130706439D01*
D37*
X225651478Y-126110000D02*
X227891478Y-123870000D01*
X150632017Y-89513558D02*
X153322017Y-92203558D01*
D36*
X346382018Y-146176447D02*
X346380271Y-146176444D01*
X302762017Y-100956441D02*
X302762015Y-93346442D01*
X302762022Y-110346446D02*
X301572015Y-109156445D01*
X149249997Y-144250006D02*
X139250004Y-144250003D01*
D37*
X93312017Y-117763558D02*
X106652017Y-104423558D01*
D36*
X84869991Y-114840000D02*
X70010003Y-114840000D01*
X248762014Y-103506444D02*
X248762012Y-95896444D01*
X95249996Y-138470004D02*
X85250003Y-138470003D01*
D37*
X99122017Y-100903558D02*
X100272017Y-99753558D01*
X315700000Y-99810000D02*
X314550000Y-98660000D01*
D36*
X136100409Y-176409994D02*
X137359672Y-175150727D01*
X328382010Y-129176443D02*
X326222019Y-129176446D01*
D37*
X140952017Y-123143558D02*
X156612017Y-123143558D01*
D36*
X84699998Y-132010004D02*
X86440007Y-130270001D01*
X283572022Y-104906443D02*
X293572018Y-104906450D01*
X338762018Y-138566442D02*
X337572016Y-137376439D01*
X346380270Y-163176442D02*
X344710273Y-164846444D01*
X256382017Y-103506438D02*
X254222024Y-103506444D01*
D37*
X233825260Y-131276440D02*
X233825260Y-128581442D01*
D36*
X104440002Y-136058251D02*
X106161749Y-137779993D01*
D37*
X174842017Y-126683558D02*
X176492017Y-125033558D01*
D36*
X142990002Y-121600000D02*
X158440001Y-121600004D01*
X274382017Y-100956442D02*
X272222014Y-100956443D01*
X50440003Y-130270005D02*
X52600002Y-130270004D01*
X104440004Y-105801749D02*
X104440000Y-102050004D01*
X290817018Y-98271437D02*
X277067015Y-98271447D01*
X265572020Y-143156448D02*
X275572013Y-143156445D01*
D37*
X231241478Y-126085224D02*
X231241478Y-109980000D01*
D36*
X122440004Y-114799999D02*
X122441751Y-114799993D01*
X130059992Y-124190005D02*
X131249996Y-122999997D01*
D37*
X168157017Y-123618558D02*
X157787017Y-123618558D01*
D36*
X177259387Y-187338285D02*
X175388776Y-186258283D01*
D37*
X247180000Y-156070000D02*
X245550000Y-154440000D01*
D36*
X68440001Y-130270003D02*
X68461750Y-130270003D01*
D37*
X261500000Y-91110000D02*
X245308467Y-91110000D01*
X246681478Y-105020000D02*
X245511478Y-103850000D01*
D36*
X140440003Y-153050006D02*
X142600002Y-153049996D01*
X94060007Y-130270006D02*
X91900006Y-130269997D01*
D37*
X185838457Y-147609998D02*
X180996757Y-147609998D01*
X264190000Y-88420000D02*
X261500000Y-91110000D01*
D36*
X186442017Y-133223558D02*
X192112017Y-127553558D01*
X112060000Y-102049999D02*
X109900001Y-102050001D01*
D37*
X135382017Y-89513558D02*
X150632017Y-89513558D01*
X181941751Y-128079994D02*
X183682017Y-126339728D01*
D36*
X322922013Y-146176441D02*
X320762018Y-146176451D01*
X149250009Y-110250000D02*
X139249991Y-110249996D01*
X266762018Y-93346441D02*
X265572009Y-92156440D01*
X112059993Y-145439999D02*
X113250007Y-144249997D01*
D37*
X172472017Y-127193558D02*
X174872017Y-127193558D01*
D36*
X88111755Y-165940000D02*
X95561741Y-165939996D01*
X125380004Y-174300004D02*
X123219992Y-174300005D01*
X104440009Y-136050003D02*
X104440002Y-136058251D01*
X124331755Y-150680003D02*
X138069997Y-150679999D01*
D37*
X177962017Y-118343558D02*
X178885569Y-117420006D01*
D36*
X364382009Y-146176445D02*
X364380266Y-146176446D01*
D37*
X243570000Y-160490000D02*
X243570000Y-142560000D01*
X167922017Y-123113558D02*
X169272017Y-121763558D01*
D36*
X76059996Y-113269999D02*
X76060006Y-105660002D01*
D37*
X188172017Y-97873558D02*
X188172017Y-121243558D01*
X144250003Y-142149998D02*
X167355577Y-142149998D01*
D36*
X274382017Y-100956442D02*
X271832016Y-103506448D01*
D37*
X243936448Y-121406448D02*
X240372019Y-121406448D01*
D36*
X84770002Y-165940003D02*
X86439998Y-164269994D01*
X356762017Y-146176442D02*
X356762015Y-138566438D01*
D37*
X169272017Y-155533558D02*
X169292017Y-155513558D01*
D36*
X158435738Y-170066203D02*
X158325775Y-170122234D01*
X346382014Y-163176447D02*
X344222022Y-163176440D01*
X297062024Y-173206445D02*
X297060265Y-173206442D01*
X94059998Y-164270004D02*
X94060004Y-156660002D01*
X66700004Y-132010000D02*
X68440001Y-130270003D01*
X164081806Y-181164160D02*
X162045536Y-180502535D01*
D37*
X172492017Y-106393558D02*
X173358465Y-107260006D01*
D36*
X266762012Y-151956441D02*
X266762019Y-144346443D01*
X271832015Y-120506442D02*
X256382016Y-120506446D01*
X310382008Y-134956445D02*
X308222012Y-134956446D01*
X271832017Y-137506445D02*
X256382015Y-137506445D01*
X337572007Y-120376442D02*
X347572016Y-120376437D01*
X138069997Y-150679999D02*
X140440003Y-153050006D01*
X58059995Y-130270005D02*
X58060007Y-122660006D01*
X68439994Y-113270001D02*
X70599995Y-113270000D01*
X328382017Y-112176443D02*
X326222014Y-112176444D01*
X328382019Y-163176436D02*
X328380265Y-163176448D01*
X142990001Y-104600006D02*
X158440000Y-104599996D01*
D37*
X157562017Y-124093558D02*
X168392017Y-124093558D01*
D36*
X310382018Y-155968195D02*
X310382018Y-151956440D01*
X277057017Y-132281440D02*
X274382022Y-134956441D01*
X91900004Y-147269999D02*
X94059999Y-147270009D01*
X192122017Y-126093558D02*
X192122017Y-113283558D01*
D37*
X244050000Y-129678522D02*
X241361478Y-126990000D01*
D36*
X158874522Y-179522307D02*
X156827002Y-178896312D01*
X122439998Y-148800001D02*
X124600004Y-148799997D01*
D37*
X116672017Y-104423558D02*
X121142017Y-99953558D01*
X273650000Y-121550000D02*
X258010000Y-121550000D01*
D36*
X364382018Y-163176446D02*
X364382016Y-163204698D01*
D37*
X158440004Y-121600005D02*
X158448464Y-121600005D01*
D36*
X346382016Y-129176445D02*
X346360267Y-129176445D01*
X328382021Y-146184693D02*
X326790263Y-147776445D01*
D37*
X158439996Y-155600002D02*
X158439996Y-155621537D01*
D36*
X337572017Y-154376449D02*
X347572018Y-154376440D01*
D37*
X278650000Y-104490000D02*
X258270000Y-104490000D01*
D36*
X184618465Y-97100006D02*
X174449998Y-97100006D01*
X320762015Y-112176441D02*
X322922019Y-112176444D01*
X227924267Y-160550164D02*
X236987349Y-156323983D01*
D37*
X293600000Y-116580000D02*
X279340000Y-116580000D01*
X226097926Y-96006448D02*
X227371478Y-97280000D01*
D36*
X356762022Y-163176445D02*
X356762023Y-155566442D01*
X95411750Y-114830006D02*
X104440004Y-105801749D01*
X148060002Y-136049997D02*
X145900002Y-136050003D01*
X131250002Y-140000002D02*
X121249997Y-140000005D01*
X167862950Y-173129289D02*
X158435738Y-170066203D01*
D37*
X245511478Y-103850000D02*
X245511478Y-99800000D01*
D36*
X50439999Y-164270004D02*
X50440001Y-164298256D01*
D37*
X233801478Y-120220000D02*
X233801478Y-115100000D01*
X246430000Y-123000000D02*
X244580000Y-121150000D01*
D36*
X319572014Y-103376448D02*
X329572020Y-103376449D01*
X122440008Y-97799996D02*
X124004999Y-99364995D01*
X158439997Y-155599998D02*
X160599999Y-155600000D01*
D37*
X342572013Y-118276441D02*
X340965572Y-116670000D01*
X270572014Y-141056440D02*
X247466440Y-141056440D01*
D36*
X187322017Y-124753558D02*
X187322017Y-99803558D01*
X166460282Y-173843979D02*
X167862950Y-173129289D01*
X292382019Y-130706439D02*
X290222014Y-130706440D01*
X148060005Y-153049999D02*
X148059998Y-145440001D01*
X112060000Y-153050000D02*
X109899998Y-153049994D01*
X356762016Y-112176443D02*
X358922020Y-112176440D01*
X106081759Y-103710001D02*
X116530004Y-103710003D01*
X320762021Y-138566444D02*
X319572021Y-137376446D01*
D37*
X232515030Y-108706448D02*
X240412019Y-108706448D01*
D36*
X338762021Y-112176441D02*
X338762011Y-104566444D01*
X76060001Y-164270002D02*
X76060001Y-156660000D01*
X283572021Y-121906439D02*
X293572017Y-121906442D01*
D37*
X159992017Y-140143558D02*
X167622017Y-140143558D01*
D36*
X265572009Y-92156440D02*
X275572019Y-92156442D01*
X255947495Y-178428749D02*
X257995015Y-177802754D01*
%TD*%
M02*
