M48
; DRILL file {KiCad 6.0.9} date Mo 31 Okt 2022 19:27:19 CET
; FORMAT={-:-/ absolute / inch / decimal}
; #@! TF.CreationDate,2022-10-31T19:27:19+01:00
; #@! TF.GenerationSoftware,Kicad,Pcbnew,6.0.9
; #@! TF.FileFunction,NonPlated,1,2,NPTH
FMAT,2
INCH
; #@! TA.AperFunction,NonPlated,NPTH,ComponentDrill
T1C0.0670
; #@! TA.AperFunction,NonPlated,NPTH,ComponentDrill
T2C0.1350
%
G90
G05
T1
X1.9193Y-6.2705
X1.9193Y-4.9319
X1.9193Y-5.6012
X1.9193Y-4.2626
X2.3524Y-6.2705
X2.3524Y-4.9319
X2.3524Y-5.6012
X2.3524Y-4.2626
X2.628Y-5.6012
X2.628Y-4.2626
X2.628Y-4.9319
X2.628Y-6.2705
X3.061Y-5.6012
X3.061Y-4.2626
X3.061Y-4.9319
X3.061Y-6.2705
X3.3366Y-5.6012
X3.3366Y-4.9319
X3.3366Y-4.2626
X3.3366Y-6.2705
X3.7697Y-5.6012
X3.7697Y-4.9319
X3.7697Y-4.2626
X3.7697Y-6.2705
X4.0453Y-5.8287
X4.0453Y-5.1594
X4.0453Y-4.4902
X4.0453Y-3.8209
X4.4783Y-5.8287
X4.4783Y-5.1594
X4.4783Y-4.4902
X4.4783Y-3.8209
X4.5697Y-6.6654
X4.7539Y-4.9921
X4.7539Y-5.6614
X4.7539Y-4.3228
X4.7539Y-3.6535
X5.0028Y-6.6654
X5.187Y-4.9921
X5.187Y-5.6614
X5.187Y-4.3228
X5.187Y-3.6535
X5.3676Y-6.6918
X5.4626Y-3.8209
X5.4626Y-5.1594
X5.4626Y-5.8287
X5.4626Y-4.4902
X5.797Y-6.7484
X5.8957Y-3.8209
X5.8957Y-5.1594
X5.8957Y-5.8287
X5.8957Y-4.4902
X6.1695Y-6.8345
X6.1713Y-5.2598
X6.1713Y-5.9291
X6.1713Y-4.5906
X6.1713Y-3.9213
X6.5826Y-6.9647
X6.6043Y-5.2598
X6.6043Y-5.9291
X6.6043Y-4.5906
X6.6043Y-3.9213
X6.9203Y-6.3248
X6.9459Y-7.1293
X7.3128Y-6.5078
X7.3209Y-7.3458
X9.0107Y-7.3027
X9.0188Y-6.4648
X9.3857Y-7.0862
X9.4113Y-6.2818
X9.7272Y-3.8782
X9.7272Y-4.5475
X9.7272Y-5.8861
X9.7272Y-5.2168
X9.749Y-6.9217
X10.1603Y-3.8782
X10.1603Y-4.5475
X10.1603Y-5.8861
X10.1603Y-5.2168
X10.162Y-6.7914
X10.4359Y-4.4471
X10.4359Y-5.7857
X10.4359Y-5.1164
X10.4359Y-3.7778
X10.5346Y-6.7053
X10.869Y-4.4471
X10.869Y-5.7857
X10.869Y-5.1164
X10.869Y-3.7778
X10.964Y-6.6488
X11.1446Y-3.6105
X11.1446Y-4.2798
X11.1446Y-5.6184
X11.1446Y-4.9491
X11.3288Y-6.6223
X11.5776Y-3.6105
X11.5776Y-4.2798
X11.5776Y-5.6184
X11.5776Y-4.9491
X11.7619Y-6.6223
X11.8532Y-3.7778
X11.8532Y-4.4471
X11.8532Y-5.1164
X11.8532Y-5.7857
X12.2863Y-3.7778
X12.2863Y-4.4471
X12.2863Y-5.1164
X12.2863Y-5.7857
X12.5619Y-6.2274
X12.5619Y-4.2195
X12.5619Y-4.8888
X12.5619Y-5.5581
X12.995Y-6.2274
X12.995Y-4.2195
X12.995Y-4.8888
X12.995Y-5.5581
X13.2706Y-6.2274
X13.2706Y-4.8888
X13.2706Y-4.2195
X13.2706Y-5.5581
X13.7036Y-6.2274
X13.7036Y-4.8888
X13.7036Y-4.2195
X13.7036Y-5.5581
X13.9792Y-4.2195
X13.9792Y-5.5581
X13.9792Y-4.8888
X13.9792Y-6.2274
X14.4123Y-4.2195
X14.4123Y-5.5581
X14.4123Y-4.8888
X14.4123Y-6.2274
T2
X2.1358Y-6.2705
X2.1358Y-4.9319
X2.1358Y-5.6012
X2.1358Y-4.2626
X2.8445Y-5.6012
X2.8445Y-4.2626
X2.8445Y-4.9319
X2.8445Y-6.2705
X3.5531Y-5.6012
X3.5531Y-4.9319
X3.5531Y-4.2626
X3.5531Y-6.2705
X4.2618Y-5.8287
X4.2618Y-5.1594
X4.2618Y-4.4902
X4.2618Y-3.8209
X4.7862Y-6.6654
X4.9705Y-4.9921
X4.9705Y-5.6614
X4.9705Y-4.3228
X4.9705Y-3.6535
X5.5823Y-6.7201
X5.6791Y-3.8209
X5.6791Y-5.1594
X5.6791Y-5.8287
X5.6791Y-4.4902
X6.3761Y-6.8996
X6.3878Y-5.2598
X6.3878Y-5.9291
X6.3878Y-4.5906
X6.3878Y-3.9213
X7.1165Y-6.4163
X7.1334Y-7.2375
X9.1982Y-7.1945
X9.215Y-6.3733
X9.9438Y-3.8782
X9.9438Y-4.5475
X9.9438Y-5.8861
X9.9438Y-5.2168
X9.9555Y-6.8565
X10.6524Y-4.4471
X10.6524Y-5.7857
X10.6524Y-5.1164
X10.6524Y-3.7778
X10.7493Y-6.6771
X11.3611Y-3.6105
X11.3611Y-4.2798
X11.3611Y-5.6184
X11.3611Y-4.9491
X11.5454Y-6.6223
X12.0698Y-3.7778
X12.0698Y-4.4471
X12.0698Y-5.1164
X12.0698Y-5.7857
X12.7784Y-6.2274
X12.7784Y-4.2195
X12.7784Y-4.8888
X12.7784Y-5.5581
X13.4871Y-6.2274
X13.4871Y-4.8888
X13.4871Y-4.2195
X13.4871Y-5.5581
X14.1957Y-4.2195
X14.1957Y-5.5581
X14.1957Y-4.8888
X14.1957Y-6.2274
T0
M30
